<svg width="222" height="63" viewBox="0 0 222 63" fill="none" xmlns="http://www.w3.org/2000/svg">
<path d="M3.56245 59.291V51.515H4.82645V53.243H4.65045C4.77845 52.8483 4.96512 52.5123 5.21045 52.235C5.46645 51.947 5.76512 51.7337 6.10645 51.595C6.45845 51.4457 6.84245 51.371 7.25845 51.371C7.91979 51.371 8.45312 51.531 8.85845 51.851C9.27445 52.1603 9.55179 52.6457 9.69045 53.307H9.45045C9.64245 52.7097 9.98379 52.2403 10.4745 51.899C10.9758 51.547 11.5571 51.371 12.2185 51.371C12.8051 51.371 13.2851 51.483 13.6585 51.707C14.0425 51.931 14.3305 52.2723 14.5225 52.731C14.7145 53.179 14.8105 53.7497 14.8105 54.443V59.291H13.5145V54.507C13.5145 53.7923 13.3918 53.2697 13.1465 52.939C12.9011 52.5977 12.4851 52.427 11.8985 52.427C11.4825 52.427 11.1145 52.5283 10.7945 52.731C10.4851 52.9337 10.2451 53.2217 10.0745 53.595C9.91445 53.9577 9.83445 54.3897 9.83445 54.891V59.291H8.53845V54.507C8.53845 53.7923 8.41045 53.2697 8.15445 52.939C7.90912 52.5977 7.49845 52.427 6.92245 52.427C6.49579 52.427 6.12779 52.5283 5.81845 52.731C5.50912 52.9337 5.26912 53.2217 5.09845 53.595C4.93845 53.9577 4.85845 54.3897 4.85845 54.891V59.291H3.56245ZM27.9856 59.435C27.3562 59.435 26.8336 59.323 26.4176 59.099C26.0122 58.8643 25.7029 58.5177 25.4896 58.059C25.2869 57.6003 25.1856 57.0297 25.1856 56.347V51.515H26.4816V56.331C26.4816 56.7897 26.5402 57.1737 26.6576 57.483C26.7856 57.7817 26.9829 58.0057 27.2496 58.155C27.5162 58.2937 27.8469 58.363 28.2416 58.363C28.6896 58.363 29.0789 58.2617 29.4096 58.059C29.7402 57.8563 30.0016 57.5737 30.1936 57.211C30.3856 56.8483 30.4816 56.4217 30.4816 55.931V51.515H31.7776V59.291H30.5136V57.499H30.7216C30.5082 58.1283 30.1562 58.6083 29.6656 58.939C29.1856 59.2697 28.6256 59.435 27.9856 59.435ZM44.5863 59.435C43.797 59.435 43.1997 59.2003 42.7943 58.731C42.3997 58.2617 42.2023 57.5897 42.2023 56.715V48.011H43.4983V56.619C43.4983 56.9923 43.5463 57.307 43.6423 57.563C43.749 57.819 43.9037 58.011 44.1063 58.139C44.309 58.267 44.5597 58.331 44.8583 58.331C44.9863 58.331 45.109 58.3257 45.2263 58.315C45.3543 58.2937 45.4717 58.267 45.5783 58.235L45.5463 59.323C45.3757 59.355 45.2103 59.3817 45.0503 59.403C44.901 59.4243 44.7463 59.435 44.5863 59.435ZM57.9161 59.435C56.9987 59.435 56.3107 59.1897 55.8521 58.699C55.3934 58.2083 55.1641 57.5097 55.1641 56.603V52.523H53.6441V51.515H55.1641V49.131H56.4601V51.515H58.9241V52.523H56.4601V56.475C56.4601 57.083 56.5881 57.547 56.8441 57.867C57.1001 58.1763 57.5161 58.331 58.0921 58.331C58.2627 58.331 58.4334 58.3097 58.6041 58.267C58.7747 58.2243 58.9294 58.1817 59.0681 58.139L59.2921 59.131C59.1534 59.2057 58.9507 59.275 58.6841 59.339C58.4174 59.403 58.1614 59.435 57.9161 59.435ZM68.2298 49.579V48.123H69.8298V49.579H68.2298ZM68.3898 59.291V51.515H69.6858V59.291H68.3898ZM94.842 59.435C94.4366 59.435 94.042 59.3923 93.658 59.307C93.2846 59.2323 92.9326 59.1257 92.602 58.987C92.282 58.8377 92.0046 58.6617 91.77 58.459L92.186 57.547C92.442 57.7497 92.7193 57.9203 93.018 58.059C93.3166 58.187 93.6206 58.283 93.93 58.347C94.2393 58.411 94.554 58.443 94.874 58.443C95.482 58.443 95.9406 58.331 96.25 58.107C96.5593 57.883 96.714 57.579 96.714 57.195C96.714 56.8963 96.6126 56.6617 96.41 56.491C96.2073 56.3097 95.8873 56.171 95.45 56.075L93.994 55.755C93.322 55.6163 92.8206 55.3763 92.49 55.035C92.17 54.6937 92.01 54.251 92.01 53.707C92.01 53.227 92.1326 52.8163 92.378 52.475C92.634 52.123 92.9913 51.851 93.45 51.659C93.9086 51.467 94.442 51.371 95.05 51.371C95.4126 51.371 95.7593 51.4083 96.09 51.483C96.4206 51.5577 96.73 51.6697 97.018 51.819C97.3166 51.9577 97.5726 52.1337 97.786 52.347L97.354 53.259C97.1513 53.067 96.922 52.907 96.666 52.779C96.41 52.6403 96.1433 52.539 95.866 52.475C95.5993 52.4003 95.3273 52.363 95.05 52.363C94.4526 52.363 93.9993 52.4803 93.69 52.715C93.3806 52.9497 93.226 53.259 93.226 53.643C93.226 53.9417 93.322 54.187 93.514 54.379C93.706 54.571 94.0046 54.7097 94.41 54.795L95.866 55.099C96.5593 55.2483 97.0766 55.4883 97.418 55.819C97.77 56.139 97.946 56.5763 97.946 57.131C97.946 57.6003 97.818 58.011 97.562 58.363C97.306 58.7043 96.9433 58.971 96.474 59.163C96.0153 59.3443 95.4713 59.435 94.842 59.435ZM110.963 59.435C110.046 59.435 109.358 59.1897 108.899 58.699C108.44 58.2083 108.211 57.5097 108.211 56.603V52.523H106.691V51.515H108.211V49.131H109.507V51.515H111.971V52.523H109.507V56.475C109.507 57.083 109.635 57.547 109.891 57.867C110.147 58.1763 110.563 58.331 111.139 58.331C111.31 58.331 111.48 58.3097 111.651 58.267C111.822 58.2243 111.976 58.1817 112.115 58.139L112.339 59.131C112.2 59.2057 111.998 59.275 111.731 59.339C111.464 59.403 111.208 59.435 110.963 59.435ZM124.591 59.435C123.833 59.435 123.177 59.2697 122.623 58.939C122.068 58.6083 121.636 58.1443 121.327 57.547C121.028 56.939 120.879 56.2243 120.879 55.403C120.879 54.5817 121.028 53.8723 121.327 53.275C121.636 52.667 122.068 52.1977 122.623 51.867C123.177 51.5363 123.833 51.371 124.591 51.371C125.348 51.371 126.004 51.5363 126.559 51.867C127.113 52.1977 127.54 52.667 127.839 53.275C128.148 53.8723 128.303 54.5817 128.303 55.403C128.303 56.2243 128.148 56.939 127.839 57.547C127.54 58.1443 127.113 58.6083 126.559 58.939C126.004 59.2697 125.348 59.435 124.591 59.435ZM124.591 58.395C125.327 58.395 125.908 58.139 126.335 57.627C126.772 57.1043 126.991 56.3577 126.991 55.387C126.991 54.427 126.772 53.691 126.335 53.179C125.908 52.667 125.327 52.411 124.591 52.411C123.865 52.411 123.284 52.667 122.847 53.179C122.409 53.691 122.191 54.427 122.191 55.387C122.191 56.3577 122.409 57.1043 122.847 57.627C123.284 58.139 123.865 58.395 124.591 58.395ZM138.249 59.291V51.515H139.513V53.355H139.353C139.535 52.7257 139.849 52.251 140.297 51.931C140.745 51.6003 141.337 51.4083 142.073 51.355L142.537 51.307L142.633 52.427L141.817 52.523C141.092 52.587 140.532 52.8217 140.137 53.227C139.753 53.6217 139.561 54.1657 139.561 54.859V59.291H138.249ZM155.394 59.435C154.572 59.435 153.863 59.275 153.266 58.955C152.679 58.6243 152.22 58.1603 151.89 57.563C151.57 56.9657 151.41 56.251 151.41 55.419C151.41 54.6083 151.57 53.9043 151.89 53.307C152.21 52.699 152.647 52.2243 153.202 51.883C153.767 51.5417 154.418 51.371 155.154 51.371C155.858 51.371 156.46 51.5257 156.962 51.835C157.463 52.1443 157.847 52.5817 158.114 53.147C158.391 53.7123 158.53 54.3897 158.53 55.179V55.675H152.402V54.827H157.666L157.41 55.035C157.41 54.1817 157.218 53.5203 156.834 53.051C156.46 52.571 155.911 52.331 155.186 52.331C154.642 52.331 154.178 52.459 153.794 52.715C153.42 52.9603 153.138 53.307 152.946 53.755C152.754 54.1923 152.658 54.7043 152.658 55.291V55.387C152.658 56.0377 152.759 56.587 152.962 57.035C153.175 57.483 153.49 57.8243 153.906 58.059C154.322 58.283 154.818 58.395 155.394 58.395C155.852 58.395 156.295 58.3257 156.722 58.187C157.159 58.0377 157.57 57.7977 157.954 57.467L158.402 58.379C158.05 58.699 157.602 58.955 157.058 59.147C156.514 59.339 155.959 59.435 155.394 59.435ZM180.515 62.171V51.515H181.779V53.355H181.619C181.789 52.747 182.125 52.267 182.627 51.915C183.139 51.5523 183.747 51.371 184.451 51.371C185.144 51.371 185.747 51.5363 186.259 51.867C186.781 52.187 187.181 52.651 187.459 53.259C187.747 53.8563 187.891 54.571 187.891 55.403C187.891 56.2243 187.747 56.939 187.459 57.547C187.181 58.1443 186.787 58.6083 186.275 58.939C185.763 59.2697 185.155 59.435 184.451 59.435C183.747 59.435 183.144 59.259 182.643 58.907C182.141 58.5443 181.8 58.0643 181.619 57.467H181.811V62.171H180.515ZM184.179 58.395C184.915 58.395 185.496 58.139 185.923 57.627C186.36 57.1043 186.579 56.363 186.579 55.403C186.579 54.4323 186.36 53.691 185.923 53.179C185.496 52.667 184.915 52.411 184.179 52.411C183.453 52.411 182.872 52.667 182.435 53.179C181.997 53.691 181.779 54.4323 181.779 55.403C181.779 56.363 181.997 57.1043 182.435 57.627C182.872 58.139 183.453 58.395 184.179 58.395ZM201.075 59.435C200.318 59.435 199.662 59.2697 199.107 58.939C198.552 58.6083 198.12 58.1443 197.811 57.547C197.512 56.939 197.363 56.2243 197.363 55.403C197.363 54.5817 197.512 53.8723 197.811 53.275C198.12 52.667 198.552 52.1977 199.107 51.867C199.662 51.5363 200.318 51.371 201.075 51.371C201.832 51.371 202.488 51.5363 203.043 51.867C203.598 52.1977 204.024 52.667 204.323 53.275C204.632 53.8723 204.787 54.5817 204.787 55.403C204.787 56.2243 204.632 56.939 204.323 57.547C204.024 58.1443 203.598 58.6083 203.043 58.939C202.488 59.2697 201.832 59.435 201.075 59.435ZM201.075 58.395C201.811 58.395 202.392 58.139 202.819 57.627C203.256 57.1043 203.475 56.3577 203.475 55.387C203.475 54.427 203.256 53.691 202.819 53.179C202.392 52.667 201.811 52.411 201.075 52.411C200.35 52.411 199.768 52.667 199.331 53.179C198.894 53.691 198.675 54.427 198.675 55.387C198.675 56.3577 198.894 57.1043 199.331 57.627C199.768 58.139 200.35 58.395 201.075 58.395ZM217.358 59.435C216.952 59.435 216.558 59.3923 216.174 59.307C215.8 59.2323 215.448 59.1257 215.118 58.987C214.798 58.8377 214.52 58.6617 214.286 58.459L214.702 57.547C214.958 57.7497 215.235 57.9203 215.534 58.059C215.832 58.187 216.136 58.283 216.446 58.347C216.755 58.411 217.07 58.443 217.39 58.443C217.998 58.443 218.456 58.331 218.766 58.107C219.075 57.883 219.23 57.579 219.23 57.195C219.23 56.8963 219.128 56.6617 218.926 56.491C218.723 56.3097 218.403 56.171 217.966 56.075L216.51 55.755C215.838 55.6163 215.336 55.3763 215.006 55.035C214.686 54.6937 214.526 54.251 214.526 53.707C214.526 53.227 214.648 52.8163 214.894 52.475C215.15 52.123 215.507 51.851 215.966 51.659C216.424 51.467 216.958 51.371 217.566 51.371C217.928 51.371 218.275 51.4083 218.606 51.483C218.936 51.5577 219.246 51.6697 219.534 51.819C219.832 51.9577 220.088 52.1337 220.302 52.347L219.87 53.259C219.667 53.067 219.438 52.907 219.182 52.779C218.926 52.6403 218.659 52.539 218.382 52.475C218.115 52.4003 217.843 52.363 217.566 52.363C216.968 52.363 216.515 52.4803 216.206 52.715C215.896 52.9497 215.742 53.259 215.742 53.643C215.742 53.9417 215.838 54.187 216.03 54.379C216.222 54.571 216.52 54.7097 216.926 54.795L218.382 55.099C219.075 55.2483 219.592 55.4883 219.934 55.819C220.286 56.139 220.462 56.5763 220.462 57.131C220.462 57.6003 220.334 58.011 220.078 58.363C219.822 58.7043 219.459 58.971 218.99 59.163C218.531 59.3443 217.987 59.435 217.358 59.435Z" fill="#221A47"/>
<path d="M13.3069 38.291V11.885H19.8949V17.177H19.3009C20.0929 15.269 21.3169 13.829 22.9729 12.857C24.6649 11.849 26.5729 11.345 28.6969 11.345C30.8209 11.345 32.5669 11.741 33.9349 12.533C35.3029 13.325 36.3289 14.531 37.0129 16.151C37.6969 17.735 38.0389 19.751 38.0389 22.199V38.291H31.2889V22.523C31.2889 21.155 31.1089 20.039 30.7489 19.175C30.4249 18.311 29.9029 17.681 29.1829 17.285C28.4989 16.853 27.6169 16.637 26.5369 16.637C25.2409 16.637 24.1069 16.925 23.1349 17.501C22.1629 18.041 21.4069 18.833 20.8669 19.877C20.3269 20.885 20.0569 22.073 20.0569 23.441V38.291H13.3069ZM51.3271 38.291L39.8791 11.885H47.0611L55.2151 32.351H53.5951L62.0191 11.885H68.7691L57.1591 38.291H51.3271ZM83.4343 38.831C80.4463 38.831 77.8723 38.273 75.7123 37.157C73.5523 36.041 71.8783 34.457 70.6903 32.405C69.5383 30.353 68.9623 27.923 68.9623 25.115C68.9623 22.379 69.5203 19.985 70.6363 17.933C71.7883 15.881 73.3543 14.279 75.3343 13.127C77.3503 11.939 79.6363 11.345 82.1923 11.345C84.7123 11.345 86.8723 11.885 88.6723 12.965C90.4723 14.045 91.8583 15.575 92.8303 17.555C93.8383 19.535 94.3423 21.893 94.3423 24.629V26.627H74.4163V22.739H89.5903L88.7263 23.549C88.7263 21.101 88.1863 19.229 87.1063 17.933C86.0263 16.601 84.4783 15.935 82.4623 15.935C80.9503 15.935 79.6543 16.295 78.5743 17.015C77.5303 17.699 76.7203 18.689 76.1443 19.985C75.6043 21.245 75.3343 22.757 75.3343 24.521V24.899C75.3343 26.879 75.6403 28.517 76.2523 29.813C76.8643 31.109 77.7823 32.081 79.0063 32.729C80.2303 33.377 81.7423 33.701 83.5423 33.701C85.0183 33.701 86.4943 33.485 87.9703 33.053C89.4463 32.585 90.7963 31.865 92.0203 30.893L93.9103 35.429C92.6503 36.473 91.0663 37.301 89.1583 37.913C87.2503 38.525 85.3423 38.831 83.4343 38.831ZM98.6079 38.291V11.885H105.196V17.177H104.602C105.394 15.269 106.618 13.829 108.274 12.857C109.966 11.849 111.874 11.345 113.998 11.345C116.122 11.345 117.868 11.741 119.236 12.533C120.604 13.325 121.63 14.531 122.314 16.151C122.998 17.735 123.34 19.751 123.34 22.199V38.291H116.59V22.523C116.59 21.155 116.41 20.039 116.05 19.175C115.726 18.311 115.204 17.681 114.484 17.285C113.8 16.853 112.918 16.637 111.838 16.637C110.542 16.637 109.408 16.925 108.436 17.501C107.464 18.041 106.708 18.833 106.168 19.877C105.628 20.885 105.358 22.073 105.358 23.441V38.291H98.6079ZM141.212 38.831C137.684 38.831 135.056 37.949 133.328 36.185C131.6 34.421 130.736 31.847 130.736 28.463V16.961H125.66V11.885H130.736V4.00101H137.486V11.885H145.478V16.961H137.486V28.085C137.486 29.813 137.864 31.109 138.62 31.973C139.376 32.837 140.6 33.269 142.292 33.269C142.796 33.269 143.318 33.215 143.858 33.107C144.398 32.963 144.956 32.819 145.532 32.675L146.558 37.643C145.91 38.003 145.082 38.291 144.074 38.507C143.102 38.723 142.148 38.831 141.212 38.831ZM158.318 38.831C156.122 38.831 154.304 38.435 152.864 37.643C151.424 36.815 150.344 35.591 149.624 33.971C148.94 32.351 148.598 30.335 148.598 27.923V11.885H155.348V28.031C155.348 29.255 155.51 30.281 155.834 31.109C156.194 31.937 156.716 32.549 157.4 32.945C158.12 33.341 159.02 33.539 160.1 33.539C161.324 33.539 162.386 33.269 163.286 32.729C164.222 32.153 164.942 31.361 165.446 30.353C165.986 29.309 166.256 28.103 166.256 26.735V11.885H173.006V38.291H166.418V32.783H167.174C166.418 34.727 165.266 36.221 163.718 37.265C162.206 38.309 160.406 38.831 158.318 38.831ZM187.646 38.831C185.738 38.831 184.028 38.471 182.516 37.751C181.04 36.995 179.87 35.987 179.006 34.727C178.178 33.467 177.764 32.045 177.764 30.461C177.764 28.517 178.268 26.987 179.276 25.871C180.284 24.719 181.922 23.891 184.19 23.387C186.458 22.883 189.5 22.631 193.316 22.631H196.016V26.519H193.37C191.678 26.519 190.256 26.591 189.104 26.735C187.952 26.843 187.016 27.041 186.296 27.329C185.612 27.581 185.108 27.941 184.784 28.409C184.496 28.877 184.352 29.453 184.352 30.137C184.352 31.325 184.766 32.297 185.594 33.053C186.422 33.809 187.574 34.187 189.05 34.187C190.238 34.187 191.282 33.917 192.182 33.377C193.118 32.801 193.856 32.027 194.396 31.055C194.936 30.083 195.206 28.967 195.206 27.707V21.497C195.206 19.697 194.81 18.401 194.018 17.609C193.226 16.817 191.894 16.421 190.022 16.421C188.546 16.421 187.034 16.655 185.486 17.123C183.938 17.555 182.372 18.239 180.788 19.175L178.844 14.585C179.78 13.937 180.878 13.379 182.138 12.911C183.434 12.407 184.784 12.029 186.188 11.777C187.628 11.489 188.978 11.345 190.238 11.345C192.83 11.345 194.954 11.741 196.61 12.533C198.302 13.325 199.562 14.531 200.39 16.151C201.218 17.735 201.632 19.787 201.632 22.307V38.291H195.314V32.675H195.746C195.494 33.935 194.99 35.033 194.234 35.969C193.514 36.869 192.596 37.571 191.48 38.075C190.364 38.579 189.086 38.831 187.646 38.831ZM216.583 38.831C213.451 38.831 211.129 37.985 209.617 36.293C208.141 34.565 207.403 32.045 207.403 28.733V0.221013H214.153V28.409C214.153 29.453 214.297 30.353 214.585 31.109C214.909 31.829 215.377 32.369 215.989 32.729C216.601 33.089 217.357 33.269 218.257 33.269C218.653 33.269 219.049 33.251 219.445 33.215C219.841 33.179 220.219 33.107 220.579 32.999L220.471 38.345C219.823 38.489 219.175 38.597 218.527 38.669C217.915 38.777 217.267 38.831 216.583 38.831Z" fill="url(#paint0_linear_1052_85)"/>
<circle cx="4.4834" cy="6.48535" r="3.74121" fill="#EB29EC"/>
<path d="M0.742188 11.8926V11.8926C4.46579 11.8926 7.48438 14.9112 7.48438 18.6348V38.2871H0.742188V11.8926Z" fill="#4636FF"/>
<defs>
<linearGradient id="paint0_linear_1052_85" x1="9.79688" y1="19.291" x2="221.797" y2="19.291" gradientUnits="userSpaceOnUse">
<stop stop-color="#4636FF"/>
<stop offset="1" stop-color="#EB29EC"/>
</linearGradient>
</defs>
</svg>
