<svg height="512" viewBox="0 0 64 64" width="512" xmlns="http://www.w3.org/2000/svg"><g id="Layer_2" data-name="Layer 2"><path d="m50.1429 34.4553c.241-1.7678-1.0447-2.8928-1.0447-5.1428s-.5189-11.5136-2.6518-16.5536c-1.3977-3.3026-3.9018-6.0268-8.1607-6.0268s-6.523 1.6879-7.0714 2.7322c-.1623.3091-2.3993-1.6274-2.4657-1.3124-4.288 2.5758-8.831 8.5158-10.8607 13.34-2.5586 6.0811-1.62 13.8475-.3343 17.8653a10.78 10.78 0 0 1 .3214 6.5893l27.5049-.79a13.3378 13.3378 0 0 0 2.513 3.6833s-1.6072-3.4554-.8036-5.4643 2.17-1.8482 2.25-3.9375-.2411-2.5715-.2411-2.5715a3.7733 3.7733 0 0 0 1.0447-2.4112z" fill="#4c2d22"/><path d="m36 35.2433v2.8014l14.88 4.9229a4 4 0 0 1 2.7126 4.2937l-1.4826 11.8627a1 1 0 0 1 -.9923.876h-38.2349a1 1 0 0 1 -.9923-.876l-1.4825-11.86a4 4 0 0 1 2.7161-4.294l14.8491-4.8981.0268-2.8286z" fill="#ffab91"/><path d="m50.88 42.9676-11.103-3.6733.233 6.1957-8.01 2.81-8.01-2.81.2325-6.1814-11.0984 3.6614a4 4 0 0 0 -2.7161 4.2948l1.4825 11.86a1 1 0 0 0 .9923.876h38.2344a1 1 0 0 0 .9923-.876l1.4828-11.8627a4 4 0 0 0 -2.7123-4.2945z" fill="#212121"/><path d="m39.5812 51.6785c1.161-4.8145.1484-11.5978.0144-12.4442l-.8537-.2825-.2676-.0615-6.4743 8-6.4743-8-.1153.0264-1.0084.3327c-.1407.892-1.1394 7.6346.0168 12.4291a18.1727 18.1727 0 0 0 4.6565 8.3215h5.8494a18.1727 18.1727 0 0 0 4.6565-8.3215z" fill="#cbcfd1"/><path d="m32 46.891-1-4.144-4-1.946z" fill="#697f87"/><path d="m32 46.891 1-4.144 4-1.946z" fill="#697f87"/><path d="m28.22 47.041 2.78-4.294-3.027-4.676-3.348 1.105z" fill="#90a4ae"/><path d="m39.381 39.163-3.381-1.118-3 4.702 2.78 4.294z" fill="#90a4ae"/><path d="m26.0056 38.7205-5.4946 1.8123-1.9985 3.8372 3.0826 2.6284-1.4772 3.8494 8.9574 9.1522c-2.4189-3.9923-3.6571-14.3253-3.0697-21.2795z" fill="#464646"/><path d="m42.4049 46.9982 3.0826-2.6282-2.0051-3.85-5.4895-1.816c.5908 6.9544-.6474 17.3005-3.0682 21.296l8.9574-9.1524z" fill="#464646"/><g fill="#ea7760"><path d="m46.94 24a4.0012 4.0012 0 0 0 -3.94-3.9939v-.0061h-2v8h2v-.0061a4.0012 4.0012 0 0 0 3.94-3.9939z"/><path d="m21 20a4 4 0 0 0 0 8h2v-8z"/><path d="m36 37.3639v-2.1206h-8v2.1206a12.8947 12.8947 0 0 0 8 0z"/></g><path d="m21 20c0-6.0751 1-11 11-11 10 0 11 4.9249 11 11v5a11 11 0 0 1 -11 11 11 11 0 0 1 -11-11z" fill="#ffab91"/><path d="m39.2411 17.4464a18.6219 18.6219 0 0 0 -4.7947.924 14.9882 14.9882 0 0 1 -4.8928 0 18.6219 18.6219 0 0 0 -4.7947-.924 12.99 12.99 0 0 0 -4.2053.8036v1.7748a16.2207 16.2207 0 0 1 .8035 1.5466c.2411.5893.5484 3.4054 2.9733 4.0982 2.4375.6964 4.3392.1026 5.491-1.3928a6.6947 6.6947 0 0 0 1.3393-3.7768.8446.8446 0 0 1 1.6786 0 6.6947 6.6947 0 0 0 1.3393 3.7768c1.1514 1.4954 3.0535 2.0892 5.4914 1.3932 2.4249-.6928 2.7322-3.5089 2.9733-4.0982a16.2207 16.2207 0 0 1 .8035-1.5466v-1.7752a12.99 12.99 0 0 0 -4.2057-.8036zm-10.7054 7.2321a4.5454 4.5454 0 0 1 -4.5268.2143 3.5288 3.5288 0 0 1 -1.7143-2.625 2.5763 2.5763 0 0 1 .7054-2.5707 5.2173 5.2173 0 0 1 3.2768-.8846c1.5178 0 3.6518.8035 3.92 1.6875a4.7546 4.7546 0 0 1 -1.6611 4.1785zm13.17-2.4107a3.5288 3.5288 0 0 1 -1.7143 2.625 4.5454 4.5454 0 0 1 -4.5268-.2143 4.7546 4.7546 0 0 1 -1.661-4.1785c.2678-.884 2.4018-1.6875 3.92-1.6875a5.2173 5.2173 0 0 1 3.2764.8846 2.5763 2.5763 0 0 1 .7054 2.5707z" fill="#212121"/><path d="m41.8214 10.75c-1.1363-1.4462-4.3583-2.0935-6.52-2.373a3.5664 3.5664 0 0 0 -.3768-1.1627c-.5483-1.0443-2.1835-3.2143-6.4425-3.2143s-8.5982 4.2589-10.9285 8.7589-2.6518 14.3036-2.6518 16.5536-1.2857 3.375-1.0447 5.1428a3.7733 3.7733 0 0 0 1.0447 2.4107s-.3214.4822-.2411 2.5715 1.4464 1.9285 2.25 3.9375-.8036 5.4643-.8036 5.4643a14.5274 14.5274 0 0 0 3.6153-6.7923c1.0438-4.3816.6222-5.4756-.1867-8.047s-.8571-8.4163.75-11.0357 5.7857-4.8215 9.2143-6.9108a18.333 18.333 0 0 0 3.7868-3.0144 5.7677 5.7677 0 0 0 3.7132 1.9698c5.7857.8036 6 4.9911 6 4.9911s.5893-7-1.1786-9.25z" fill="#4c2d22"/></g></svg>