<?xml version="1.0"?>
<svg xmlns="http://www.w3.org/2000/svg" id="Layer_6" data-name="Layer 6" viewBox="0 0 32 32" width="512" height="512"><path d="M3.2,31.41a1.06,1.06,0,0,1-.53-.14A5.33,5.33,0,0,1,0,26.67V5.33A5.34,5.34,0,0,1,5.33,0H26.67A5.34,5.34,0,0,1,32,5.33V22.4a1.07,1.07,0,1,1-2.13,0V5.33a3.2,3.2,0,0,0-3.2-3.2H5.33a3.2,3.2,0,0,0-3.2,3.2V26.67a3.19,3.19,0,0,0,1.6,2.76,1.07,1.07,0,0,1-.53,2Z"/><path d="M22.4,32H9.27A2.87,2.87,0,0,1,6.4,29.13a9.84,9.84,0,0,1,8.09-9.81A9.6,9.6,0,0,1,22.79,22c.15.15.29.3.42.46a1.07,1.07,0,1,1-1.62,1.38l-.3-.33a7.48,7.48,0,0,0-6.47-2.09,7.69,7.69,0,0,0-6.28,7.7.74.74,0,0,0,.74.74H22.4a1.07,1.07,0,1,1,0,2.13Z"/><path d="M16,17.07a6.4,6.4,0,1,1,6.4-6.4A6.41,6.41,0,0,1,16,17.07ZM16,6.4a4.27,4.27,0,1,0,4.27,4.27A4.27,4.27,0,0,0,16,6.4Z"/><path d="M28.8,25.6H27.73V24.54a1.07,1.07,0,1,0-2.13,0V25.6H24.54a1.07,1.07,0,0,0,0,2.13H25.6V28.8a1.07,1.07,0,1,0,2.13,0V27.73H28.8a1.07,1.07,0,0,0,0-2.13Z"/></svg>
