<?xml version="1.0" encoding="UTF-8"?>
<svg xmlns="http://www.w3.org/2000/svg" viewBox="0 0 64 64" width="512" height="512"><g id="Ikon"><path d="M27,41H12a3.0033,3.0033,0,0,0-3,3v2a3.0033,3.0033,0,0,0,3,3H27a3.0033,3.0033,0,0,0,3-3V44A3.0033,3.0033,0,0,0,27,41Zm1,5a1.0013,1.0013,0,0,1-1,1H12a1.0013,1.0013,0,0,1-1-1V44a1.0013,1.0013,0,0,1,1-1H27a1.0013,1.0013,0,0,1,1,1ZM53,33.3623V13.8157A2.995,2.995,0,0,0,55,11V7a3.0033,3.0033,0,0,0-3-3H6A3.0033,3.0033,0,0,0,3,7v4a2.995,2.995,0,0,0,2,2.8157V53a3,3,0,0,0,3,3H37.2271A13.988,13.988,0,1,0,53,33.3623ZM52,6a1.0013,1.0013,0,0,1,1,1v4a1.0013,1.0013,0,0,1-1,1H39V6ZM37,6v6H21V6ZM23,14H35V28.9976a1.0047,1.0047,0,0,1-1.3853.9223l-4.2294-1.7656a1.0013,1.0013,0,0,0-.7706,0L24.3853,29.92A1.0046,1.0046,0,0,1,23,28.9976ZM5,7A1.0013,1.0013,0,0,1,6,6H19v6H6a1.0013,1.0013,0,0,1-1-1ZM7,53V14H21V28.9474a3.0193,3.0193,0,0,0,4.1558,2.8182L29,30.1606l3.8442,1.605A3.0251,3.0251,0,0,0,37,28.8937V14H51V32.5994A13.9717,13.9717,0,0,0,35.5368,54H8A1,1,0,0,1,7,53Zm51.3877-3.2157a12,12,0,1,1-7.6033-15.172A12.0134,12.0134,0,0,1,58.3877,49.7843ZM54,43H50V39a2.0023,2.0023,0,0,0-2-2H46a2.0023,2.0023,0,0,0-2,2v4H40a2.0023,2.0023,0,0,0-2,2v2a2.0023,2.0023,0,0,0,2,2h4v4a2.0023,2.0023,0,0,0,2,2h2a2.0023,2.0023,0,0,0,2-2V49h4a2.0023,2.0023,0,0,0,2-2V45A2.0023,2.0023,0,0,0,54,43Zm0,4H49a1,1,0,0,0-1,1v5H46V48a1,1,0,0,0-1-1H40V45h5a1,1,0,0,0,1-1V39h2v5a1,1,0,0,0,1,1h5Z"/></g></svg>
