<svg id="Layer_1" height="512" viewBox="0 0 64 64" width="512" xmlns="http://www.w3.org/2000/svg" data-name="Layer 1"><path d="m16 9h40v2h-40z"/><path d="m21 32a3 3 0 1 0 -3 3 3 3 0 0 0 3-3zm-3 1a1 1 0 1 1 1-1 1 1 0 0 1 -1 1z"/><path d="m51 42h-2v5h-5v2h5v5h2v-5h5v-2h-5z"/><path d="m56 5h-44a1 1 0 0 0 -1 1v7h-3a1 1 0 0 0 -1 1v11h-1a3 3 0 0 0 -3 3v8a3 3 0 0 0 3 3h1v11a1 1 0 0 0 1 1h31.426a10.995 10.995 0 0 0 21.574-3 11.216 11.216 0 0 0 -.076-1.25 4.979 4.979 0 0 0 .076-.75v-36a5.006 5.006 0 0 0 -5-5zm-51 31v-8a1 1 0 0 1 1-1h14a3 3 0 0 1 3 3v4a3 3 0 0 1 -3 3h-14a1 1 0 0 1 -1-1zm45 21a9 9 0 1 1 9-9 9.01 9.01 0 0 1 -9 9zm0-20a11.013 11.013 0 0 0 -11 11c0 .338.021.67.051 1h-30.051v-10h11a5.006 5.006 0 0 0 5-5v-4a5.006 5.006 0 0 0 -5-5h-11v-10h47a4.973 4.973 0 0 0 3-1v27.7a10.99 10.99 0 0 0 -9-4.7zm6-24h-43v-6h43a3 3 0 0 1 0 6z"/></svg>