<svg height="512" viewBox="0 0 32 32" width="512" xmlns="http://www.w3.org/2000/svg"><g id="Add_Product_2" data-name="Add Product 2"><path d="m11 26h12v2h-12z"/><path d="m6.7573 27.97-4-1a1 1 0 0 1 -.7573-.97v-2a1 1 0 0 1 .293-.707l3-3 1.414 1.414-2.707 2.7071v.8051l3.2427.8106z"/><path d="m25 30a3 3 0 1 1 3-3 3.0033 3.0033 0 0 1 -3 3zm0-4a1 1 0 1 0 1 1 1.0009 1.0009 0 0 0 -1-1z"/><path d="m9 30a3 3 0 1 1 3-3 3.0033 3.0033 0 0 1 -3 3zm0-4a1 1 0 1 0 1 1 1.0013 1.0013 0 0 0 -1-1z"/><path d="m7 8.0005a1 1 0 0 1 -.9487-.6841l-.8413-2.5259-2.5264-.8418a1 1 0 0 1 .6328-1.8974l3 1a1.0012 1.0012 0 0 1 .6323.6323l1 3a1.0012 1.0012 0 0 1 -.9487 1.3169z"/><path d="m6 22a1 1 0 0 1 -.9976-1.0713l1-14a1.0012 1.0012 0 0 1 1.0876-.9248l6.18.56-.18 1.9923-5.165-.4683-.8472 11.86 19.0806-.9087 1.6616-9.1437-2.9316-.27.1836-1.9912 4.02.37a1 1 0 0 1 .8916 1.1743l-2 11a1 1 0 0 1 -.9355.82l-21 1z"/><path d="m29 28h-2a1 1 0 0 1 0-2h2a1 1 0 0 1 0 2z"/><path d="m19 16a7 7 0 1 1 7-7 7.0078 7.0078 0 0 1 -7 7zm0-12a5 5 0 1 0 5 5 5.0059 5.0059 0 0 0 -5-5z"/><path d="m21 10h-4a1 1 0 0 1 0-2h4a1 1 0 0 1 0 2z"/><path d="m19 12a1 1 0 0 1 -1-1v-4a1 1 0 0 1 2 0v4a1 1 0 0 1 -1 1z"/></g></svg>