<svg fill="none" height="64" viewBox="0 0 64 64" width="64" xmlns="http://www.w3.org/2000/svg"><g fill="rgb(0,0,0)"><path clip-rule="evenodd" d="m2.75045 19.7693c.80146-6.8847 6.79272-11.7693 13.57105-11.7693h31.3366c6.7333 0 12.7062 4.8204 13.5458 11.6611.6685 5.4469.918 10.3362.7409 15.4087-.0385 1.1039-.9646 1.9675-2.0685 1.929s-1.9676-.9647-1.929-2.0686c.1266-3.6273.0255-7.1657-.3057-10.9302h-51.29762c-.56353 6.7041-.43436 12.7012.38537 19.754.54923 4.7254 4.69845 8.246 9.60545 8.246h23.6652c1.1046 0 2 .8954 2 2s-.8954 2-2 2h-23.6652c-6.78591 0-12.77796-4.8949-13.5787-11.7842-1.00542-8.6504-1.00895-15.8278-.00565-24.4465zm44.90765-7.7693c4.8217 0 8.9137 3.3958 9.5561 8h-50.46056c.65584-4.6009 4.74576-8 9.56786-8z" fill-rule="evenodd"/><path d="m21 45c1.1046 0 2-.8954 2-2s-.8954-2-2-2h-8c-1.1046 0-2 .8954-2 2s.8954 2 2 2z"/><path d="m54 38c0-1.1046-.8954-2-2-2s-2 .8954-2 2v6h-6c-1.1046 0-2 .8954-2 2s.8954 2 2 2h6v6c0 1.1046.8954 2 2 2s2-.8954 2-2v-6h6c1.1046 0 2-.8954 2-2s-.8954-2-2-2h-6z"/></g></svg>