<svg id="Capa_1" enable-background="new 0 0 512 512" height="512" viewBox="0 0 512 512" width="512" xmlns="http://www.w3.org/2000/svg"><g><g id="Layer_x0020_1_111_" clip-rule="evenodd" fill-rule="evenodd"><path d="m214.274 89.465h33.135c11.536 0 20.863 9.327 20.863 20.863v33.135c0 11.536-9.327 20.863-20.863 20.863h-33.135c-11.536 0-20.863-9.327-20.863-20.863v-33.135c0-11.536 9.327-20.863 20.863-20.863zm0 17.918h33.135c1.718 0 2.945 1.227 2.945 2.945v33.135c0 1.473-1.227 2.945-2.945 2.945h-33.135c-1.473 0-2.945-1.473-2.945-2.945v-33.135c0-1.718 1.473-2.945 2.945-2.945z" fill="rgb(0,0,0)"/><path d="m214.274 182.244h33.135c11.536 0 20.863 9.327 20.863 20.863v33.135c0 11.536-9.327 20.863-20.863 20.863h-33.135c-11.536 0-20.863-9.327-20.863-20.863v-33.135c0-11.537 9.327-20.863 20.863-20.863zm0 17.917h33.135c1.718 0 2.945 1.473 2.945 2.945v33.135c0 1.718-1.227 2.945-2.945 2.945h-33.135c-1.473 0-2.945-1.227-2.945-2.945v-33.135c0-1.472 1.473-2.945 2.945-2.945z" fill="rgb(0,0,0)"/><path d="m295.271 100.019h115.36c12.027 0 12.027 17.918 0 17.918h-115.36c-12.027 0-12.027-17.918 0-17.918z"/><path d="m295.271 135.854h39.517c12.027 0 12.027 17.918 0 17.918h-39.517c-12.027 0-12.027-17.918 0-17.918z"/><path d="m295.271 378.355h115.36c12.027 0 12.027 17.918 0 17.918h-115.36c-12.027-.001-12.027-17.918 0-17.918z"/><path d="m94.742 239.432c24.299 0 46.389 4.418 62.834 11.536v-66.27h-127.632c-16.444 0-29.944-13.5-29.944-29.944v-66.762c0-48.353 39.271-87.624 87.379-87.869h279.563c48.353 0 87.624 39.271 87.87 87.87v88.851c32.89 7.854 57.189 37.553 57.189 73.143 0 34.608-23.317 63.816-55.225 72.652-.245 52.28-1.964 98.424-1.964 151.685 0 13.99-11.536 25.281-25.526 25.281h-246.183c-2.454 0-4.909-.245-7.118-.982-16.69 8.1-40.008 13.254-66.025 13.254-51.053 0-92.288-19.39-92.288-43.198v-38.78c0-13.254 13.254-25.281 33.626-33.135v-.245-37.062c-28.962-7.365-48.598-21.601-48.598-38.046v-38.78c0-23.808 41.235-43.199 92.042-43.199zm341.906-64.797v-86.643c0-38.535-31.172-69.707-69.707-69.952-150.704 0-226.056 0-226.056 0 21.845 16.69 34.608 42.462 34.608 69.952v173.776c7.363 6.136 11.536 13.254 11.536 20.863v37.062c2.209.736 4.418 1.227 6.382 1.964v-25.527c0-11.536 9.327-21.108 20.863-21.108h33.135c11.536 0 20.863 9.572 20.863 21.108v32.89c0 11.536-9.327 20.863-20.863 20.863h-13.254c.982 2.7 1.473 5.154 1.473 7.854v10.063h11.781c11.536 0 20.863 9.572 20.863 21.108v32.89c0 11.536-9.327 21.108-20.863 21.108h-33.135c-4.418 0-8.836-1.718-12.272-4.173v29.944c0 4.663-1.473 9.082-4.173 13.009h231.455c4.173 0 7.363-3.436 7.363-7.363l2.209-148.986c-.736 0-1.473 0-2.209 0-20.617 0-39.271-8.345-52.771-21.845h-88.606c-12.027 0-12.027-17.918 0-17.918h75.106c-5.645-10.554-8.836-22.826-8.836-35.59 0-14.481 3.927-27.735 10.8-39.271h-77.07c-12.027 0-12.027-17.918 0-17.918h92.288c13.255-11.288 30.436-18.16 49.09-18.16zm0 17.917c31.908 0 57.434 25.772 57.434 57.434s-25.526 57.434-57.434 57.434c-31.663 0-57.189-25.772-57.189-57.434s25.527-57.434 57.189-57.434zm-223.11 232.192h.736 33.135c1.718 0 2.945-1.227 2.945-2.945v-32.89c0-1.718-1.227-2.945-2.945-2.945h-11.781v10.554c0 10.799-8.345 20.617-22.09 28.226zm.736-131.804h33.135c1.718 0 2.945 1.473 2.945 3.191v32.89c0 1.718-1.227 2.945-2.945 2.945h-29.944c-1.964-1.227-3.927-2.209-6.136-3.436v-32.4c0-1.718 1.473-3.19 2.945-3.19zm-32.89 43.198c-12.763 16.69-46.88 28.472-86.642 28.472-8.1 0-16.199-.491-23.808-1.473 7.118 11.291 36.817 19.881 72.652 19.881 40.989 0 74.125-11.29 74.125-25.281-.001-9.081-14.482-17.181-36.327-21.599zm.737 99.651c-11.781 2.454-24.79 3.927-38.535 3.927-39.271 0-72.652-11.536-85.906-27.49-13.745 4.418-22.09 10.8-22.09 17.672 0 13.99 33.381 25.281 74.37 25.281 35.098 0 64.552-8.345 72.161-19.39zm1.963 19.636c-16.69 10.8-43.689 17.672-74.125 17.672s-57.434-6.873-74.37-17.672v13.254c0 13.99 33.381 25.281 74.37 25.281s74.125-11.29 74.125-25.281zm33.626-71.916c-16.69 10.554-43.689 17.427-74.125 17.427s-57.434-6.872-74.125-17.427v13.009c0 13.99 33.135 25.281 74.125 25.281s74.125-11.29 74.125-25.281zm-129.84-365.469c-38.535 0-69.952 31.417-69.952 69.952v66.761c0 6.627 5.4 12.027 12.027 12.027h127.632v-78.788c-.001-38.535-31.418-69.952-69.707-69.952zm81.242 290.117c-16.936 10.8-43.935 17.672-74.37 17.672s-57.434-6.872-74.125-17.672v13.254c0 13.99 33.135 25.281 74.125 25.281s74.37-11.29 74.37-25.281zm-74.37-50.807c40.989 0 74.37 11.29 74.37 25.281 0 13.99-33.381 25.281-74.37 25.281s-74.125-11.291-74.125-25.281c0-13.991 33.136-25.281 74.125-25.281z" fill="rgb(0,0,0)"/><path d="m295.271 228.633h39.517c12.027 0 12.027 17.918 0 17.918h-39.517c-12.027-.001-12.027-17.918 0-17.918z"/><path d="m295.271 321.411h39.517c12.027 0 12.027 17.918 0 17.918h-39.517c-12.027 0-12.027-17.918 0-17.918z"/><path d="m295.271 414.435h39.517c12.027 0 12.027 17.918 0 17.918h-39.517c-12.027 0-12.027-17.918 0-17.918z"/><path d="m468.802 249.987c0 5.154-4.418 9.572-9.572 9.572h-12.763v12.763c0 5.4-4.418 9.572-9.818 9.572-5.154 0-9.572-4.173-9.572-9.572v-12.763h-12.763c-5.4 0-9.572-4.418-9.572-9.572 0-5.4 4.173-9.572 9.572-9.572h12.763v-13.009c0-5.154 4.418-9.572 9.572-9.572 5.4 0 9.818 4.418 9.818 9.572v13.009h12.763c5.153-.001 9.572 4.172 9.572 9.572z"/></g></g></svg>