<svg id="Layer_1" enable-background="new 0 0 512 512" height="512" viewBox="0 0 512 512" width="512" xmlns="http://www.w3.org/2000/svg"><path d="m483.467 0h-454.934c-15.733 0-28.533 12.8-28.533 28.533v334.762c0 15.733 12.8 28.533 28.533 28.533h203.415v102.172c0 9.925 8.074 18 17.999 18h26.055c9.925 0 17.999-8.075 17.999-18v-102.173h23.461v102.171c-.001 4.801 1.873 9.319 5.277 12.724 3.403 3.403 7.921 5.278 12.722 5.278h26.055c9.925 0 18-8.075 18-18v-102.173h23.459v102.172c0 9.925 8.074 18 17.999 18h26.055c9.925 0 17.999-8.075 17.999-18v-102.172h18.439c15.733 0 28.533-12.8 28.533-28.533v-334.761c0-15.733-12.8-28.533-28.533-28.533zm-454.934 16h454.934c6.911 0 12.533 5.622 12.533 12.533v49.558h-480v-49.558c0-6.911 5.622-12.533 12.533-12.533zm249.468 478c0 1.084-.915 2-1.999 2h-26.055c-1.084 0-1.999-.916-1.999-2v-156.716c0-1.084.915-2 1.999-2h26.055c1.084 0 1.999.916 1.999 2zm85.515 0c0 1.084-.916 2-2 2h-26.055c-.675 0-1.138-.322-1.408-.591-.27-.27-.591-.733-.591-1.409v-119.967c0-.674.321-1.138.591-1.407s.733-.591 1.408-.591h26.055c1.084 0 2 .916 2 2zm85.511-.001c0 1.084-.915 2-1.999 2h-26.055c-1.084 0-1.999-.916-1.999-2v-206.46c0-1.084.915-2 1.999-2h26.055c1.084 0 1.999.916 1.999 2zm34.44-118.172h-18.439v-88.289c0-9.925-8.074-18-17.999-18h-26.055c-9.925 0-17.999 8.075-17.999 18v88.289h-23.459v-1.793c0-9.925-8.075-18-18-18h-26.055c-4.801 0-9.318 1.875-12.722 5.278-3.404 3.404-5.278 7.922-5.277 12.722v1.793h-23.461v-38.543c0-9.925-8.074-18-17.999-18h-26.055c-9.925 0-17.999 8.075-17.999 18v38.543h-203.415c-6.911 0-12.533-5.622-12.533-12.533v-269.203h480v269.204c0 6.91-5.622 12.532-12.533 12.532zm-421.613-328.782c0-6.609 5.391-12 12-12s12 5.391 12 12-5.391 12-12 12c-6.61 0-12-5.391-12-12zm46.063 0c0-6.609 5.39-12 12-12 6.609 0 12 5.391 12 12s-5.39 12-12 12c-6.609 0-12-5.391-12-12zm46.065 0c0-6.609 5.39-12 12-12 6.609 0 12 5.391 12 12s-5.39 12-12 12-12-5.391-12-12zm36.505 360.603h-26.053c-9.925 0-18 8.075-18 18v68.351c0 9.925 8.075 18 18 18h26.053c9.925 0 18-8.075 18-18v-68.351c0-9.925-8.075-18-18-18zm2 86.351c0 1.084-.916 2-2 2h-26.053c-1.084 0-2-.916-2-2v-68.351c0-1.084.916-2 2-2h26.053c1.084 0 2 .916 2 2zm241.514-328.539c-17.57 0-31.865 14.295-31.865 31.865 0 6.139 1.75 11.875 4.77 16.744l-42.843 44.708c-4.609-2.594-9.92-4.081-15.574-4.081-9.629 0-18.268 4.299-24.115 11.072l-30.199-14.896c.436-2.097.667-4.267.667-6.491 0-17.57-14.295-31.865-31.865-31.865s-31.865 14.295-31.865 31.865c0 5.109 1.216 9.937 3.362 14.221l-39.014 33.98c-5.125-3.521-11.323-5.587-17.997-5.587-17.57 0-31.865 14.294-31.865 31.865s14.295 31.865 31.865 31.865 31.865-14.295 31.865-31.865c0-5.109-1.216-9.937-3.362-14.221l39.014-33.98c5.125 3.521 11.323 5.587 17.997 5.587 9.629 0 18.268-4.299 24.116-11.072l30.199 14.896c-.436 2.097-.667 4.267-.667 6.491 0 17.57 14.295 31.865 31.865 31.865s31.865-14.295 31.865-31.865c0-6.139-1.75-11.875-4.77-16.744l42.843-44.709c4.609 2.594 9.92 4.081 15.574 4.081 17.57 0 31.865-14.295 31.865-31.865s-14.296-31.864-31.866-31.864zm-256.54 169.267c-8.748 0-15.865-7.117-15.865-15.865s7.117-15.865 15.865-15.865 15.865 7.117 15.865 15.865-7.117 15.865-15.865 15.865zm85.514-74.48c-8.748 0-15.865-7.117-15.865-15.865s7.117-15.865 15.865-15.865 15.865 7.117 15.865 15.865-7.117 15.865-15.865 15.865zm85.513 42.18c-8.748 0-15.865-7.117-15.865-15.865s7.117-15.865 15.865-15.865 15.865 7.117 15.865 15.865-7.117 15.865-15.865 15.865zm85.513-89.237c-8.748 0-15.865-7.117-15.865-15.865s7.117-15.865 15.865-15.865 15.865 7.117 15.865 15.865-7.117 15.865-15.865 15.865zm-236.199-20.998c0-45.767-37.233-83-82.999-83-45.767 0-83.001 37.234-83.001 83s37.234 83 83.001 83c45.765 0 82.999-37.234 82.999-83zm-16.491-7.976-58.507-.016-.001-58.515c30.566 3.657 54.863 27.961 58.508 58.531zm-133.509 7.976c0-34.236 25.817-62.538 59.001-66.506l.001 66.509c0 1.426.381 2.825 1.104 4.054l33.7 57.329c-8.214 3.601-17.277 5.613-26.805 5.613-36.945.001-67.001-30.055-67.001-66.999zm107.587 53.259-26.599-45.249 52.514.014c-2.206 18.395-11.884 34.517-25.915 45.235z"/></svg>