<svg fill="none" height="512" viewBox="0 0 20 20" width="512" xmlns="http://www.w3.org/2000/svg"><path d="m19 9h-15.339l5.997-5.246c.19812-.17495.31893-.42123.336-.685.0171-.26376-.07098-.52356-.24491-.72259-.17392-.19903-.41957-.32111-.68324-.33955s-.52392.06825-.72385.24114l-8.000003 7c-.008.007-.011.018-.019.025-.070958.07045-.130656.1514-.177.24-.018.03-.045.054-.0590003.087-.056869.12604-.08627954.26273-.08627954.401 0 .1383.02941054.275.08627954.401.0140003.033.0410003.057.0590003.088.05.087.104.17.177.239.008.007.011.018.019.025l8.000003 7c.09865.0869.21353.1534.33801.1957s.2561.0595.38727.0507c.13118-.0088.2593-.0436.37699-.1022.11769-.0585.22262-.1399.30873-.2392.17451-.1997.2625-.4606.24472-.7252-.01782-.2646-.14002-.5113-.33972-.6858l-5.997-5.248h15.339c.2652 0 .5196-.1054.7071-.2929s.2929-.4419.2929-.7071c0-.26522-.1054-.51957-.2929-.70711-.1875-.18753-.4419-.29289-.7071-.29289z" fill="rgb(0,0,0)"/></svg>