<svg enable-background="new 0 0 492 492" viewBox="0 0 492 492" xmlns="http://www.w3.org/2000/svg"><g id="Master_Layer_2"/><g id="Layer_1"><g><g><path clip-rule="evenodd" d="m103.847 155.54h284.826v182.399h-284.826z" fill="#edf1ff" fill-rule="evenodd"/><g><g><g><path clip-rule="evenodd" d="m425.755 179.204c-2.665 0-4.825-2.16-4.825-4.825v-56.458h-43.986c-2.665 0-4.825-2.16-4.825-4.825s2.16-4.825 4.825-4.825l48.811-.001c2.665 0 4.825 2.161 4.825 4.825v61.283c0 2.665-2.16 4.826-4.825 4.826z" fill="#4f5d99" fill-rule="evenodd"/></g><g><path clip-rule="evenodd" d="m66.766 179.204c-2.665 0-4.825-2.16-4.825-4.825v-61.283c0-2.665 2.16-4.825 4.825-4.825h48.809c2.665 0 4.825 2.161 4.825 4.825 0 2.665-2.16 4.825-4.825 4.825h-43.984v56.458c0 2.664-2.161 4.825-4.825 4.825z" fill="#4f5d99" fill-rule="evenodd"/></g></g><g><g><path clip-rule="evenodd" d="m115.577 385.21h-48.811c-2.665 0-4.825-2.16-4.825-4.825v-61.283c0-2.665 2.16-4.825 4.825-4.825s4.825 2.16 4.825 4.825v56.458h43.986c2.665 0 4.825 2.16 4.825 4.825 0 2.664-2.16 4.825-4.825 4.825z" fill="#4f5d99" fill-rule="evenodd"/></g><g><path clip-rule="evenodd" d="m425.755 385.21h-48.809c-2.665 0-4.825-2.16-4.825-4.825s2.16-4.825 4.825-4.825h43.984v-56.458c0-2.665 2.16-4.825 4.825-4.825s4.825 2.16 4.825 4.825v61.283c0 2.664-2.16 4.825-4.825 4.825z" fill="#4f5d99" fill-rule="evenodd"/></g></g></g><g><g><path clip-rule="evenodd" d="m290.699 312.72c-2.132 0-3.86-1.728-3.86-3.86v-124.239c0-2.132 1.728-3.86 3.86-3.86s3.86 1.728 3.86 3.86v124.239c0 2.131-1.728 3.86-3.86 3.86z" fill="#808cbf" fill-rule="evenodd"/></g><g><g><path clip-rule="evenodd" d="m320.325 280.768c-2.132 0-3.86-1.728-3.86-3.86v-92.654c0-2.132 1.728-3.86 3.86-3.86s3.86 1.728 3.86 3.86v92.654c0 2.132-1.728 3.86-3.86 3.86z" fill="#808cbf" fill-rule="evenodd"/></g><g><path clip-rule="evenodd" d="m320.325 313.086c-2.132 0-3.86-1.728-3.86-3.86v-11.096c0-2.132 1.728-3.86 3.86-3.86s3.86 1.728 3.86 3.86v11.096c0 2.132-1.728 3.86-3.86 3.86z" fill="#808cbf" fill-rule="evenodd"/></g></g><g><path clip-rule="evenodd" d="m201.822 312.72c-2.132 0-3.86-1.728-3.86-3.86v-124.239c0-2.132 1.728-3.86 3.86-3.86s3.86 1.728 3.86 3.86v124.239c0 2.131-1.728 3.86-3.86 3.86z" fill="#808cbf" fill-rule="evenodd"/></g><g><g><path clip-rule="evenodd" d="m172.196 280.768c-2.132 0-3.86-1.728-3.86-3.86v-92.654c0-2.132 1.728-3.86 3.86-3.86s3.86 1.728 3.86 3.86v92.654c0 2.132-1.728 3.86-3.86 3.86z" fill="#808cbf" fill-rule="evenodd"/></g><g><path clip-rule="evenodd" d="m172.196 313.086c-2.132 0-3.86-1.728-3.86-3.86v-11.096c0-2.132 1.728-3.86 3.86-3.86s3.86 1.728 3.86 3.86v11.096c0 2.132-1.728 3.86-3.86 3.86z" fill="#808cbf" fill-rule="evenodd"/></g></g><g><path clip-rule="evenodd" d="m261.073 312.72c-2.132 0-3.86-1.728-3.86-3.86v-124.239c0-2.132 1.728-3.86 3.86-3.86s3.86 1.728 3.86 3.86v124.239c.001 2.131-1.728 3.86-3.86 3.86z" fill="#808cbf" fill-rule="evenodd"/></g><g><path clip-rule="evenodd" d="m349.951 312.72c-2.132 0-3.86-1.728-3.86-3.86v-124.239c0-2.132 1.728-3.86 3.86-3.86s3.86 1.728 3.86 3.86v124.239c0 2.131-1.728 3.86-3.86 3.86z" fill="#808cbf" fill-rule="evenodd"/></g><g><path clip-rule="evenodd" d="m142.57 312.72c-2.132 0-3.86-1.728-3.86-3.86v-124.239c0-2.132 1.728-3.86 3.86-3.86s3.86 1.728 3.86 3.86v124.239c0 2.131-1.728 3.86-3.86 3.86z" fill="#808cbf" fill-rule="evenodd"/></g><g><g><path clip-rule="evenodd" d="m231.448 280.768c-2.132 0-3.86-1.728-3.86-3.86v-92.654c0-2.132 1.728-3.86 3.86-3.86s3.86 1.728 3.86 3.86v92.654c0 2.132-1.729 3.86-3.86 3.86z" fill="#808cbf" fill-rule="evenodd"/></g><g><path clip-rule="evenodd" d="m231.448 313.086c-2.132 0-3.86-1.728-3.86-3.86v-11.096c0-2.132 1.728-3.86 3.86-3.86s3.86 1.728 3.86 3.86v11.096c0 2.132-1.729 3.86-3.86 3.86z" fill="#808cbf" fill-rule="evenodd"/></g></g></g><g><path clip-rule="evenodd" d="m425.755 234.441h-358.989c-2.132 0-3.86-1.728-3.86-3.86s1.728-3.86 3.86-3.86h358.989c2.132 0 3.86 1.728 3.86 3.86s-1.728 3.86-3.86 3.86z" fill="#ff4755" fill-rule="evenodd"/></g></g></g></g></svg>