<?xml version="1.0" encoding="UTF-8"?>
<svg xmlns="http://www.w3.org/2000/svg" width="512" height="512" viewBox="0 0 512 512"><g><path d="M458.72,8.48a8,8,0,0,0-8.87,2.4L429.33,35.5,408.8,10.88a8,8,0,0,0-12.29,0L375.99,35.5,355.46,10.88a8,8,0,0,0-12.29,0L322.65,35.5,302.13,10.88a8,8,0,0,0-12.29,0L269.32,35.5,248.8,10.88a8,8,0,0,0-12.29,0L215.99,35.5,195.48,10.88a8.006,8.006,0,0,0-12.3,0L162.66,35.5,142.15,10.88A8,8,0,0,0,128,16V256.68A48.069,48.069,0,0,0,88,304v32a48.012,48.012,0,0,0,24,41.54V392h-8a7.847,7.847,0,0,0-2.2.31l-26.99,7.71A48.207,48.207,0,0,0,40,446.17V496a8,8,0,0,0,8,8H224a8,8,0,0,0,8-8v-.32l4.54,5.44a8,8,0,0,0,12.29,0l20.52-24.62,20.52,24.62a8,8,0,0,0,12.29,0l20.52-24.62,20.52,24.62a8,8,0,0,0,12.29,0l20.52-24.62,20.51,24.62a8.006,8.006,0,0,0,12.3,0l20.52-24.62,20.51,24.62A8,8,0,0,0,464,496V16A7.988,7.988,0,0,0,458.72,8.48ZM104,304a31.994,31.994,0,0,1,63.53-5.4c-26.26,9.02-51.93,7.74-63.53,6.46Zm0,32V321.18a169.642,169.642,0,0,0,17.02.85A162.182,162.182,0,0,0,168,315.27V336a32,32,0,0,1-64,0Zm40,48v8H128v-8Zm72,104H200V456a8,8,0,0,0-16,0v32H88V456a8,8,0,0,0-16,0v32H56V446.17A32.139,32.139,0,0,1,79.21,415.4l25.91-7.4h61.76l25.91,7.4A32.139,32.139,0,0,1,216,446.17Zm232-14.1-12.52-15.02a8,8,0,0,0-12.29,0L402.67,483.5l-20.52-24.62a8,8,0,0,0-12.29,0L349.34,483.5l-20.51-24.62a8,8,0,0,0-12.29,0L296.02,483.5l-20.53-24.62a8,8,0,0,0-12.29,0L242.68,483.5,232,470.69V446.17a48.207,48.207,0,0,0-34.81-46.15l-26.99-7.71A7.847,7.847,0,0,0,168,392h-8V377.54A48.012,48.012,0,0,0,184,336V304a48.069,48.069,0,0,0-40-47.32V38.1l12.52,15.02a8,8,0,0,0,12.29,0L189.33,28.5l20.52,24.62a8,8,0,0,0,12.29,0L242.66,28.5l20.51,24.62a8,8,0,0,0,12.29,0L295.98,28.5l20.53,24.62a8,8,0,0,0,12.29,0L349.32,28.5l20.52,24.62a8,8,0,0,0,12.29,0L402.66,28.5l20.52,24.62a8,8,0,0,0,12.29,0L448,38.09Z"/><path d="M328,128a24.032,24.032,0,0,1-24,24,8,8,0,0,1-16,0H272a8,8,0,0,1,0-16h32a8.011,8.011,0,0,0,8-8c0-4.19-4.29-8-9-8H288a24,24,0,0,1,0-48,8,8,0,0,1,16,0h16a8,8,0,0,1,0,16H288a8,8,0,0,0,0,16h15C316.55,104,328,114.99,328,128Z"/><path d="M360,192a8,8,0,0,0-8-8H240a8,8,0,0,0,0,16H352A8,8,0,0,0,360,192Z"/><path d="M312,224H200a8,8,0,0,0,0,16H312a8,8,0,0,0,0-16Z"/><path d="M336,224V336a8,8,0,0,0,16,0V224a8,8,0,0,0-16,0Z"/><path d="M376,240h24a8,8,0,0,0,0-16H376a8,8,0,0,0,0,16Z"/><path d="M312,256H200a8,8,0,0,0,0,16H312a8,8,0,0,0,0-16Z"/><path d="M376,272h24a8,8,0,0,0,0-16H376a8,8,0,0,0,0,16Z"/><path d="M312,288H200a8,8,0,0,0,0,16H312a8,8,0,0,0,0-16Z"/><path d="M376,304h24a8,8,0,0,0,0-16H376a8,8,0,0,0,0,16Z"/><path d="M312,320H200a8,8,0,0,0,0,16H312a8,8,0,0,0,0-16Z"/><path d="M376,336h24a8,8,0,0,0,0-16H376a8,8,0,0,0,0,16Z"/><path d="M424,376H336a8,8,0,0,0-8,8v32a8,8,0,0,0,8,8h88a8,8,0,0,0,8-8V384A8,8,0,0,0,424,376Zm-8,32H344V392h72Z"/></g></svg>
