<svg height="512" viewBox="0 0 64 64" width="512" xmlns="http://www.w3.org/2000/svg"><g id="mobile-qr_code-Bill-Invoice-Payment-Receipt" data-name="mobile-qr code-Bill-Invoice-Payment-Receipt"><path d="m59 7v46h-39v-46a3.995 3.995 0 0 0 -4-4h39a4 4 0 0 1 4 4z" fill="#eb9a43"/><path d="m12 26v8a4 4 0 0 1 -8 0v-8z" fill="#eb9a43"/><path d="m20 7v31h-12a3.995 3.995 0 0 0 4-4v-27a4 4 0 1 1 8 0z" fill="#e8702e"/><path d="m34 25h26v26h-26z" fill="#57a4ff"/><path d="m60 51v8a2.006 2.006 0 0 1 -2 2h-22a2.006 2.006 0 0 1 -2-2v-8z" fill="#e9e9ea"/><circle cx="47" cy="56" fill="#46f8ff" r="2"/><path d="m40 41h4v4h-4z" fill="#57565c"/><path d="m50 31h4v4h-4z" fill="#57565c"/><path d="m40 31h4v4h-4z" fill="#57565c"/><g fill="#2d2d30"><path d="m53 44h-3v2h4a1 1 0 0 0 1-1v-4h-2z"/><path d="m44 30h-4a1 1 0 0 0 -1 1v4a1 1 0 0 0 1 1h4a1 1 0 0 0 1-1v-4a1 1 0 0 0 -1-1zm-1 4h-2v-2h2z"/><path d="m54 30h-4a1 1 0 0 0 -1 1v4a1 1 0 0 0 1 1h4a1 1 0 0 0 1-1v-4a1 1 0 0 0 -1-1zm-1 4h-2v-2h2z"/><path d="m44 40h-4a1 1 0 0 0 -1 1v4a1 1 0 0 0 1 1h4a1 1 0 0 0 1-1v-4a1 1 0 0 0 -1-1zm-1 4h-2v-2h2z"/><path d="m46 37h2v2h-2z"/><path d="m51 37h2v2h-2z"/><path d="m41 37h3v2h-3z"/><path d="m46 41h2v5h-2z"/><path d="m50 41h2v2h-2z"/><path d="m46 32h2v2h-2z"/></g><path d="m60 25h-26v-2a2 2 0 0 1 2-2h22a2 2 0 0 1 2 2z" fill="#e9e9ea"/><path d="m35 8h21v2h-21z" fill="#1a6fb0"/><path d="m35 12h21v2h-21z" fill="#1a6fb0"/><path d="m35 16h21v2h-21z" fill="#1a6fb0"/><path d="m24 18h1v1h2v-1h1a1 1 0 0 0 1-1v-4a1 1 0 0 0 -1-1h-3v-2h2v1h2v-2a1 1 0 0 0 -1-1h-1v-1h-2v1h-1a1 1 0 0 0 -1 1v4a1 1 0 0 0 1 1h3v2h-2v-1h-2v2a1 1 0 0 0 1 1z" fill="#f8d251"/><path d="m31 8h2v2h-2z" fill="#1a6fb0"/><path d="m31 12h2v2h-2z" fill="#1a6fb0"/><path d="m31 16h2v2h-2z" fill="#1a6fb0"/></g></svg>