<svg id="Layer_1" enable-background="new 0 0 512.001 512.001" height="512" viewBox="0 0 512.001 512.001" width="512" xmlns="http://www.w3.org/2000/svg"><path d="m200.391 118.689c-2.173-10.83 4.844-21.371 15.674-23.544 13.702-2.75 27.139-4.145 39.935-4.145 83.347 0 168.244 58.928 218.969 94.136 23.188 16.095 37.031 42.587 37.031 70.864s-13.844 54.769-37.031 70.864c-8.411 5.838-18.274 12.658-28.895 19.72-3.405 2.264-7.252 3.348-11.056 3.348-6.472 0-12.821-3.135-16.673-8.928-6.116-9.198-3.617-21.612 5.58-27.728 10.313-6.858 19.982-13.543 28.234-19.271 12.61-8.752 19.841-22.604 19.841-38.005s-7.231-29.252-19.84-38.004c-46.876-32.537-125.334-86.996-196.16-86.996-10.16 0-20.947 1.131-32.064 3.362-10.828 2.175-21.371-4.842-23.545-15.673zm305.752 387.454c-3.905 3.905-9.024 5.857-14.143 5.857s-10.237-1.953-14.143-5.858l-112.842-112.842c-39.945 18.628-75.681 27.7-109.015 27.7-83.347 0-168.244-58.928-218.969-94.136-23.187-16.094-37.031-42.586-37.031-70.864s13.844-54.769 37.031-70.864c22.725-15.773 46.817-32.165 72.78-47.04l-103.953-103.953c-7.811-7.811-7.811-20.474 0-28.284s20.475-7.811 28.285 0l472 472c7.811 7.81 7.811 20.473 0 28.284zm-171.447-143.162-195.494-195.494c-28.216 15.404-54.603 33.324-79.362 50.51-12.608 8.751-19.84 22.603-19.84 38.003s7.231 29.252 19.84 38.004c46.877 32.538 125.335 86.996 196.16 86.996 23.78 0 49.68-5.915 78.696-18.019zm-1.238-95.979c-10.02 0-18.665-7.513-19.843-17.707-1.513-13.095-7.254-24.958-16.603-34.307-8.582-8.582-19.415-14.177-31.327-16.18-10.894-1.831-18.239-12.146-16.408-23.039 1.832-10.894 12.156-18.239 23.039-16.407 20.162 3.39 38.482 12.844 52.98 27.341 15.569 15.569 25.532 36.167 28.055 58.002 1.268 10.973-6.601 20.896-17.573 22.163-.778.09-1.555.134-2.32.134zm-70.734 69.229c1.831-10.893-5.515-21.208-16.408-23.039-11.912-2.003-22.745-7.598-31.327-16.18-9.349-9.349-15.09-21.212-16.603-34.307-1.268-10.973-11.196-18.848-22.163-17.573-10.973 1.267-18.841 11.19-17.573 22.163 2.522 21.834 12.485 42.433 28.055 58.002 14.498 14.497 32.818 23.952 52.98 27.341 1.122.189 2.237.28 3.34.28 9.587 0 18.057-6.917 19.699-16.687z"/></svg>