<svg enable-background="new 0 0 64 64" viewBox="0 0 64 64" xmlns="http://www.w3.org/2000/svg"><g id="Layer_1"/><g id="Layer_2"/><g id="Layer_3"/><g id="Layer_4"/><g id="Layer_5"/><g id="Layer_6"/><g id="Layer_7"/><g id="Layer_8"/><g id="Layer_9"/><g id="Layer_10"/><g id="Layer_11"/><g id="Layer_12"/><g id="Layer_13"/><g id="Layer_14"/><g id="Layer_15"/><g id="Layer_16"/><g id="Layer_17"/><g id="Layer_18"><g><path d="m32 6.9555664c-10.6181641 0-19.2568359 8.6381836-19.2568359 19.2558594s8.6386718 19.2563476 19.2568359 19.2563476 19.2558594-8.6386719 19.2558594-19.2563477-8.6376953-19.2558593-19.2558594-19.2558593zm0 37.512207c-10.0664062 0-18.2568359-8.1894531-18.2568359-18.2563477 0-10.0664062 8.1904297-18.2558594 18.2568359-18.2558594s18.2558594 8.1894531 18.2558594 18.2558594c0 10.0668946-8.1894532 18.2563477-18.2558594 18.2563477z"/><path d="m45.4775391 23.1376953c-.0654297-.2026367-.2529297-.3413086-.4658203-.3457031l-9.4394531-.1914062-3.0996094-8.918457c-.0703125-.201172-.2597657-.3359376-.4726563-.3359376s-.4023438.1347656-.4726562.3359375l-3.1005859 8.918457-9.4394531.1914062c-.2128906.0043945-.4003906.1430664-.4658203.3457031-.0654297.2021484.0039062.4243164.1738281.5527344l7.5244141 5.7045898-2.734375 9.0375977c-.0615234.203125.0126953.4238281.1845703.5488281.1728516.125.4042969.1279297.5791016.0058594l7.7509764-5.392578 7.7509766 5.3925781c.0859375.0595703.1855469.0898438.2851562.0898438.1035156 0 .2060547-.0322266.2939453-.0957031.171875-.125.2460938-.3457031.1845703-.5488281l-2.734375-9.0380859 7.5234375-5.7041016c.1699219-.1284181.2392579-.350586.1738282-.5527345zm-8.578125 5.6704102c-.1669922.1264648-.2373047.3432617-.1767578.543457l2.4179688 7.9931641-6.8554688-4.7700195c-.084961-.0595704-.1855469-.0893555-.2851563-.0893555s-.2001953.0297852-.2851562.0893555l-6.8554688 4.7700195 2.4179688-7.9931641c.0605469-.2001953-.0097656-.4169922-.1767578-.543457l-6.6552734-5.0454102 8.3496094-.1694336c.2099609-.0043945.3935547-.1381836.4628906-.3359375l2.7421874-7.8881836 2.7412109 7.8881836c.0693359.1977539.2529297.331543.4628906.3359375l8.3496094.1694336z"/><path d="m57.0400391 57.8300781-7.9602661-13.786377c4.6973877-4.5008545 7.6311646-10.8284302 7.6311646-17.8322754-.0000001-13.6259765-11.084961-24.7114257-24.7109376-24.7114257s-24.7119141 11.0854492-24.7119141 24.7114258c0 7.0040283 2.9341431 13.3317261 7.631958 17.8325806l-7.960083 13.7860718c-.1044922.1806641-.0859375.4082031.0478516.5693359.1337891.1601562.3554688.2236328.5498047.1523438l5.3623047-1.875.7666016 5.3935547c.0302734.2109375.1904297.3798828.4003906.4208984.03125.0058593.0634765.008789.0947265.008789.1767578 0 .3427734-.09375.4326172-.25l7.6873169-13.3132324c2.9794312 1.2762451 6.2573853 1.9851074 9.6984253 1.9851074s6.7189941-.7089233 9.6983643-1.9851685l7.6864013 13.3132935c.0898438.15625.2558594.25.4326172.25.03125 0 .0634766-.0029297.0947266-.0087891.2099609-.0410156.3701172-.2099609.4003906-.4208984l.7666016-5.3935547 5.3632812 1.875c.1943359.0703125.4160156.0068359.5498047-.1523438.1337891-.1611328.1523437-.3886718.0478516-.5693359zm-42.5673829 2.6660157-.6484375-4.5625c-.0214844-.1484375-.1074219-.2792969-.2353516-.3564453-.1279297-.078125-.2841797-.0966797-.4248047-.0449219l-4.6650391 1.6308594 7.1743164-12.4252319c1.7120361 1.510376 3.6312256 2.7903442 5.7134399 3.784729zm-6.1845703-34.284668c0-13.074707 10.6367188-23.7114258 23.7119141-23.7114258 13.0742188 0 23.7109375 10.6367188 23.7109375 23.7114258 0 13.0737304-10.6367187 23.7104492-23.7109375 23.7104492-13.0751953 0-23.7119141-10.6367188-23.7119141-23.7104492zm42.546875 29.3208008c-.1416016-.0517578-.2978516-.0332031-.4248047.0449219-.1279297.0771484-.2138672.2080078-.2353516.3564453l-.6484375 4.5625-6.913208-11.9735718c2.0822144-.9944458 4.0014038-2.2744751 5.7133789-3.7849121l7.1744385 12.4254761z"/></g></g><g id="Layer_19"/><g id="Layer_20"/><g id="Layer_21"/><g id="Layer_22"/><g id="Layer_23"/><g id="Layer_24"/><g id="Layer_25"/><g id="Layer_26"/><g id="Layer_27"/><g id="Layer_28"/><g id="Layer_29"/><g id="Layer_30"/></svg>