<svg id="Layer_1" height="512" viewBox="0 0 512 512" width="512" xmlns="http://www.w3.org/2000/svg" data-name="Layer 1"><path d="m171.2 273.862h-66a12 12 0 0 0 0 24h66a12 12 0 0 0 0-24z"/><path d="m289 273.862h-66a12 12 0 0 0 0 24h66a12 12 0 0 0 0-24z"/><path d="m406.8 273.862h-66a12 12 0 0 0 0 24h66a12 12 0 0 0 0-24z"/><path d="m171.2 374.862h-66a12 12 0 0 0 0 24h66a12 12 0 1 0 0-24z"/><path d="m289 374.862h-66a12 12 0 0 0 0 24h66a12 12 0 0 0 0-24z"/><path d="m406.8 374.862h-66a12 12 0 0 0 0 24h66a12 12 0 0 0 0-24z"/><path d="m445.461 66.735h-23.71v-26.8a25.236 25.236 0 0 0 -25.207-25.207h-29.588a25.236 25.236 0 0 0 -25.207 25.207v26.8h-171.5v-26.8a25.236 25.236 0 0 0 -25.207-25.207h-29.586a25.236 25.236 0 0 0 -25.207 25.21v26.8h-23.71a66.615 66.615 0 0 0 -66.539 66.536v297.456a66.615 66.615 0 0 0 66.539 66.539h378.922a66.615 66.615 0 0 0 66.539-66.539v-297.456a66.615 66.615 0 0 0 -66.539-66.539zm-79.712-26.8a1.255 1.255 0 0 1 1.207-1.207h29.588a1.255 1.255 0 0 1 1.207 1.207v77.594a1.254 1.254 0 0 1 -1.207 1.207h-29.588a1.254 1.254 0 0 1 -1.207-1.207zm-251.5 0a1.255 1.255 0 0 1 1.207-1.207h29.588a1.255 1.255 0 0 1 1.207 1.207v77.594a1.254 1.254 0 0 1 -1.207 1.207h-29.588a1.254 1.254 0 0 1 -1.207-1.207zm-47.71 50.8h23.71v26.8a25.236 25.236 0 0 0 25.207 25.207h29.588a25.236 25.236 0 0 0 25.207-25.207v-26.8h171.5v26.8a25.236 25.236 0 0 0 25.207 25.207h29.588a25.236 25.236 0 0 0 25.207-25.207v-26.8h23.71a42.587 42.587 0 0 1 42.537 42.539v66.061h-464v-66.061a42.587 42.587 0 0 1 42.539-42.539zm378.922 382.534h-378.922a42.587 42.587 0 0 1 -42.539-42.539v-207.395h464v207.4a42.587 42.587 0 0 1 -42.539 42.534z"/></svg>