<?xml version="1.0" encoding="UTF-8"?>
<svg xmlns="http://www.w3.org/2000/svg" width="512" height="512" viewBox="0 0 24 24"><path d="M1.477,10.5H7.523A1.479,1.479,0,0,0,9,9.023V2.977A1.479,1.479,0,0,0,7.523,1.5H1.477A1.479,1.479,0,0,0,0,2.977V9.023A1.479,1.479,0,0,0,1.477,10.5ZM1,2.977A.478.478,0,0,1,1.477,2.5H7.523A.478.478,0,0,1,8,2.977V9.023a.478.478,0,0,1-.477.477H1.477A.478.478,0,0,1,1,9.023ZM24,4a.5.5,0,0,1-.5.5H12a.5.5,0,0,1,0-1H23.5A.5.5,0,0,1,24,4ZM11.5,8a.5.5,0,0,1,.5-.5h7.531a.5.5,0,0,1,0,1H12A.5.5,0,0,1,11.5,8Zm-7,14.5A4.5,4.5,0,1,0,0,18,4.505,4.505,0,0,0,4.5,22.5Zm0-8A3.5,3.5,0,1,1,1,18,3.5,3.5,0,0,1,4.5,14.5ZM24,16a.5.5,0,0,1-.5.5H12a.5.5,0,0,1,0-1H23.5A.5.5,0,0,1,24,16ZM12,20.5a.5.5,0,0,1,0-1h7.531a.5.5,0,0,1,0,1Z"/></svg>
