<svg id="Layer_1" viewBox="0 0 512 512" xmlns="http://www.w3.org/2000/svg" data-name="Layer 1"><path d="m481.133 483h-18.255v-303.034c0-2.209-1.791-4-4-4h-97.879v-81.937c0-2.209-1.791-4-4-4h-27.625v-42.211c0-2.209-1.791-4-4-4h-61.36v-22.817c0-4.418-3.582-8-8-8s-8 3.582-8 8v22.817h-61.39c-2.209 0-4 1.791-4 4v42.211h-27.624c-2.209 0-4 1.791-4 4v81.937h-97.878c-2.209 0-4 1.791-4 4v303.034h-18.255c-4.418 0-8 3.582-8 8s3.582 8 8 8h450.267c4.418 0 8-3.582 8-8s-3.582-8-8-8z" fill="#8ac9fe"/><path d="m306.82 396.003c-3.656-.681-7.434-1.045-11.302-1.045h-79.008c-3.868 0-7.646.363-11.302 1.045-26.373 4.913-46.309 26.668-46.309 52.689v47.18c0 1.727 1.4 3.128 3.128 3.128h187.975c1.727 0 3.128-1.4 3.128-3.128v-47.18c0-26.022-19.936-47.776-46.309-52.689z" fill="#eceff1"/><g fill="#60b7ff"><path d="m85.387 448.067c0-21.153 18.399-38.363 41.016-38.363h28.547c-26.75 0-36.719-30.112-36.719-49.093 0-19.541 14.374-35.674 32.77-37.717v-146.929h-97.879c-2.209 0-4 1.791-4 4v303.034h36.266v-34.933z"/><path d="m458.878 175.966h-97.879v146.936c18.372 2.066 32.719 18.187 32.719 37.71 0 23.799-12.869 49.093-36.718 49.093h28.597c22.615 0 41.015 17.209 41.015 38.363v34.933h36.267v-303.035c0-2.209-1.791-4-4-4z"/></g><path d="m298.459 330.399c-.486-.154-.978-.265-1.471-.335 5.252-25.02.659-32.543-10.131-37.296-8.229-8.86-19.976-14.339-30.821-14.339-12.48 0-25.8 7.09-33.935 18.062-7.129 9.614-9.606 21.39-7.16 33.59-.444.07-.89.174-1.333.313-4.363 1.358-6.471 6.081-5.782 12.958.867 8.657 5.874 18.357 12.759 20.625 6.939 19.159 20.406 30.981 35.451 30.981s28.49-11.822 35.429-30.981c6.885-2.269 11.892-11.969 12.76-20.626.689-6.876-1.419-11.599-5.766-12.952z" fill="#f6dccd"/><path d="m286.857 292.769c-8.229-8.86-19.976-14.339-30.821-14.339-12.48 0-25.8 7.09-33.935 18.062-7.129 9.614-9.606 21.39-7.16 33.59 0 0 41.085-4.322 57.187-19.915 0 0 6.68 19.551 24.861 19.898 5.252-25.02.659-32.543-10.131-37.296z" fill="#837683"/><g fill="#d1d1d6"><path d="m211.495 499v-41.088c0-3.455-2.801-6.255-6.255-6.255s-6.255 2.801-6.255 6.255v41.088h12.511z"/><path d="m313.068 499v-41.088c0-3.455-2.801-6.255-6.255-6.255s-6.255 2.801-6.255 6.255v41.088h12.511z"/></g><path d="m273.695 479.771-9.036-63.655c1.429-1.219 2.617-2.802 3.438-4.605 1.343-2.961 1.252-9.583-.685-12.56-1.675-2.574-4.236-3.993-7.212-3.993h-8.353c-2.987 0-5.554 1.418-7.229 3.992-1.951 2.997-2.024 9.63-.677 12.54.805 1.806 1.997 3.398 3.446 4.628l-9.053 63.652c-.159 1.117.178 2.255.88 2.972l15.23 15.554c.46.47 1.019.704 1.579.704s1.12-.235 1.58-.705l15.212-15.554c.702-.717 1.038-1.854.88-2.97z" fill="#fe646f"/><path d="m295.518 394.959h-14.075c31.767 0 57.611 24.105 57.611 53.734v47.18c0 1.727-1.4 3.128-3.128 3.128h14.075c1.727 0 3.128-1.4 3.128-3.128v-47.18c0-29.629-25.844-53.734-57.611-53.734z" fill="#d1d1d6"/><path d="m260.2 394.959h-8.353c-2.987 0-5.554 1.418-7.229 3.992-1.951 2.997-2.024 9.63-.677 12.54.805 1.806 1.997 3.398 3.446 4.628h17.273v-.003c1.428-1.219 2.617-2.802 3.437-4.605 1.343-2.961 1.252-9.583-.685-12.56-1.675-2.574-4.236-3.993-7.212-3.993z" fill="#fd4755"/><path d="m286.857 292.769c-8.229-8.86-19.976-14.339-30.821-14.339-1.938 0-3.897.19-5.853.52 9.055 1.554 18.186 6.543 24.945 13.819 10.341 4.555 14.984 11.665 10.729 34.274 3.099 1.75 6.782 2.938 11.131 3.021 5.252-25.02.659-32.543-10.131-37.296z" fill="#685e68"/><path d="m298.459 330.399c-.486-.154-.978-.265-1.471-.335-4.348-.083-8.032-1.271-11.131-3.021-.185.981-.38 1.981-.598 3.021.164 10.873-1.214 58.951-34.568 64.386 1.753.334 3.537.509 5.345.509 15.032 0 28.49-11.822 35.429-30.981 6.885-2.269 11.892-11.969 12.76-20.626.689-6.876-1.419-11.599-5.766-12.952z" fill="#f1cbbc"/><g fill="#f6dccd"><path d="m357 322.672c-20.247 0-36.72 17.019-36.72 37.939 0 18.981 9.969 49.093 36.72 49.093 23.849 0 36.718-25.294 36.718-49.093 0-20.92-16.472-37.939-36.718-37.939z"/><path d="m154.95 322.672c-20.246 0-36.719 17.019-36.719 37.939 0 18.981 9.969 49.093 36.719 49.093 23.85 0 36.719-25.294 36.719-49.093 0-20.92-16.472-37.939-36.719-37.939z"/></g><g fill="#f1cbbc"><path d="m154.95 322.672c-2.219 0-4.389.216-6.5.607 17.155 3.181 30.219 18.705 30.219 37.332 0 21.548-10.551 44.321-30.249 48.435 2.058.42 4.228.658 6.53.658 23.85 0 36.719-25.294 36.719-49.093 0-20.92-16.472-37.939-36.719-37.939z"/><path d="m357 322.672c-2.219 0-4.389.216-6.5.607 17.154 3.181 30.218 18.705 30.218 37.332 0 21.548-10.551 44.321-30.249 48.435 2.059.42 4.229.658 6.531.658 23.849 0 36.718-25.294 36.718-49.093 0-20.92-16.472-37.939-36.718-37.939z"/></g><path d="m319.667 270.04h-127.334c-4.418 0-8-3.582-8-8v-41.599c0-4.418 3.582-8 8-8h127.334c4.418 0 8 3.582 8 8v41.599c0 4.418-3.582 8-8 8zm-119.334-16h111.334v-25.599h-111.334z" fill="#60b7ff"/><path d="m91.291 251.733c-4.418 0-8-3.582-8-8v-25.542c0-4.418 3.582-8 8-8h25.541c4.418 0 8 3.582 8 8s-3.582 8-8 8h-17.541v17.542c0 4.418-3.582 8-8 8z" fill="#8ac9fe"/><path d="m319.667 187.591h-127.334c-4.418 0-8-3.582-8-8v-41.599c0-4.418 3.582-8 8-8h127.334c4.418 0 8 3.582 8 8v41.599c0 4.418-3.582 8-8 8zm-119.334-16h111.334v-25.599h-111.334z" fill="#60b7ff"/><g fill="#8ac9fe"><path d="m91.291 315.934c-4.418 0-8-3.582-8-8v-25.513c0-4.418 3.582-8 8-8h25.541c4.418 0 8 3.582 8 8s-3.582 8-8 8h-17.541v17.513c0 4.418-3.582 8-8 8z"/><path d="m420.709 251.733c-4.418 0-8-3.582-8-8v-17.542h-17.542c-4.418 0-8-3.582-8-8s3.582-8 8-8h25.542c4.418 0 8 3.582 8 8v25.542c0 4.418-3.582 8-8 8z"/><path d="m420.709 315.934c-4.418 0-8-3.582-8-8v-17.513h-17.542c-4.418 0-8-3.582-8-8s3.582-8 8-8h25.542c4.418 0 8 3.582 8 8v25.513c0 4.418-3.582 8-8 8z"/></g><path d="m264.014 43.817v-22.817c0-4.418-3.582-8-8-8s-8 3.582-8 8v22.817z" fill="#a79ba7"/><path d="m329.375 90.029v-42.211c0-2.209-1.791-4-4-4h-138.75c-2.209 0-4 1.791-4 4v42.211z" fill="#60b7ff"/><path d="m200.333 145.992h111.334v25.599h-111.334z" fill="#d8ecfe"/><path d="m200.333 228.44h111.334v27.56h-111.334z" fill="#d8ecfe"/><path d="m311.667 171.591h-111.334l111.334-25.599z" fill="#c4e2ff"/><path d="m311.667 256h-111.334l111.334-27.56z" fill="#c4e2ff"/><g fill="#8ac9fe"><path d="m91.291 380.163c4.418 0 8-3.582 8-8v-17.542h17.541c.657 0 1.293-.088 1.904-.238.73-4.549 2.244-8.826 4.397-12.679-1.464-1.874-3.739-3.083-6.302-3.083h-25.541c-4.418 0-8 3.582-8 8v25.542c0 4.418 3.582 8 8 8z"/><path d="m420.709 338.621h-25.542c-2.579 0-4.867 1.226-6.33 3.121 2.14 3.839 3.645 8.099 4.374 12.628.627.158 1.28.251 1.956.251h17.542v17.542c0 4.418 3.582 8 8 8s8-3.582 8-8v-25.542c0-4.418-3.582-8-8-8z"/></g><g fill="#a79ba7"><path d="m85.387 495v-12h-54.52c-4.418 0-8 3.582-8 8s3.582 8 8 8h58.521c-2.209 0-4-1.791-4-4z"/><path d="m481.133 483h-54.521v12c0 2.209-1.791 4-4 4h58.521c4.418 0 8-3.582 8-8s-3.582-8-8-8z"/></g><path d="m158.899 495.872v-47.18c0-15.338 6.931-29.19 18.02-38.988h-50.516c-22.616 0-41.016 17.209-41.016 38.363v46.933c0 2.209 1.791 4 4 4h72.64c-1.728 0-3.128-1.4-3.128-3.128z" fill="#6cf5c2"/><path d="m385.597 409.705h-50.487c11.089 9.798 18.02 23.65 18.02 38.988v47.18c0 1.727-1.4 3.128-3.128 3.128h72.61c2.209 0 4-1.791 4-4v-46.933c0-21.153-18.399-38.363-41.015-38.363z" fill="#6cf5c2"/><path d="m158.899 495.872v-47.18c0-15.338 6.931-29.19 18.02-38.988h-15c-11.089 9.798-18.02 23.65-18.02 38.988v47.18c0 1.727 1.4 3.128 3.128 3.128h14.999c-1.727 0-3.127-1.401-3.127-3.128z" fill="#00e499"/><path d="m385.597 409.705h-15c22.615 0 41.015 17.209 41.015 38.363v46.933c0 2.209-1.791 4-4 4h15c2.209 0 4-1.791 4-4v-46.933c0-21.153-18.399-38.363-41.015-38.363z" fill="#00e499"/></svg>