<svg id="Capa_1" enable-background="new 0 0 512 512" height="512" viewBox="0 0 512 512" width="512" xmlns="http://www.w3.org/2000/svg"><path d="m203.5 390.5h-52c-6.341 0-11.5 5.159-11.5 11.5v52c0 6.341 5.159 11.5 11.5 11.5h52c6.341 0 11.5-5.159 11.5-11.5v-52c0-6.341-5.159-11.5-11.5-11.5zm-3.5 60h-45v-45h45z"/><path d="m364.5 402.5h-120c-4.143 0-7.5 3.358-7.5 7.5s3.357 7.5 7.5 7.5h120c4.143 0 7.5-3.358 7.5-7.5s-3.357-7.5-7.5-7.5z"/><path d="m364.5 434.5h-120c-4.143 0-7.5 3.358-7.5 7.5s3.357 7.5 7.5 7.5h120c4.143 0 7.5-3.358 7.5-7.5s-3.357-7.5-7.5-7.5z"/><path d="m215 302c0-6.341-5.159-11.5-11.5-11.5h-52c-6.341 0-11.5 5.159-11.5 11.5v52c0 6.341 5.159 11.5 11.5 11.5h52c6.341 0 11.5-5.159 11.5-11.5zm-15 48.5h-45v-45h45z"/><path d="m364.5 302.5h-120c-4.143 0-7.5 3.358-7.5 7.5s3.357 7.5 7.5 7.5h120c4.143 0 7.5-3.358 7.5-7.5s-3.357-7.5-7.5-7.5z"/><path d="m364.5 334.5h-120c-4.143 0-7.5 3.358-7.5 7.5s3.357 7.5 7.5 7.5h120c4.143 0 7.5-3.358 7.5-7.5s-3.357-7.5-7.5-7.5z"/><path d="m432 440.461c-4.143 0-7.5 3.358-7.5 7.5v26.539c0 12.407-10.094 22.5-22.5 22.5h-292c-12.406 0-22.5-10.093-22.5-22.5v-206.5h296.459c4.143 0 7.5-3.358 7.5-7.5s-3.357-7.5-7.5-7.5h-296.459v-157.503c0-4.142-3.357-7.5-7.5-7.5s-7.5 3.358-7.5 7.5v379.003c0 20.678 16.822 37.5 37.5 37.5h292c20.678 0 37.5-16.822 37.5-37.5v-26.539c0-4.142-3.357-7.5-7.5-7.5z"/><path d="m402 0h-292c-20.678 0-37.5 16.822-37.5 37.5v26.183c0 4.142 3.357 7.5 7.5 7.5s7.5-3.358 7.5-7.5v-26.183c0-12.407 10.094-22.5 22.5-22.5h292c12.406 0 22.5 10.093 22.5 22.5v215.5h-8.728c-4.143 0-7.5 3.358-7.5 7.5s3.357 7.5 7.5 7.5h8.728v147.869c0 4.142 3.357 7.5 7.5 7.5s7.5-3.358 7.5-7.5v-378.369c0-20.678-16.822-37.5-37.5-37.5z"/><path d="m224.5 70.5c-15.715 0-28.5 12.785-28.5 28.5s12.785 28.5 28.5 28.5 28.5-12.785 28.5-28.5-12.785-28.5-28.5-28.5zm0 42c-7.444 0-13.5-6.056-13.5-13.5s6.056-13.5 13.5-13.5 13.5 6.056 13.5 13.5-6.056 13.5-13.5 13.5z"/><path d="m259 165c0 15.715 12.785 28.5 28.5 28.5s28.5-12.785 28.5-28.5-12.785-28.5-28.5-28.5-28.5 12.785-28.5 28.5zm42 0c0 7.444-6.056 13.5-13.5 13.5s-13.5-6.056-13.5-13.5 6.056-13.5 13.5-13.5 13.5 6.056 13.5 13.5z"/><path d="m296.208 81.243-90 90c-2.929 2.929-2.929 7.678 0 10.606 2.93 2.929 7.678 2.929 10.607 0l90-90c2.929-2.929 2.929-7.678 0-10.606-2.929-2.929-7.677-2.929-10.607 0z"/></svg>