<svg id="Layer_1" enable-background="new 0 0 512 512" height="512" viewBox="0 0 512 512" width="512" xmlns="http://www.w3.org/2000/svg" xmlns:xlink="http://www.w3.org/1999/xlink"><linearGradient id="Icon_1_" gradientTransform="matrix(1 0 0 -1 0 514)" gradientUnits="userSpaceOnUse" x1="162.532" x2="343.804" y1="345.613" y2="164.341"><stop offset="0" stop-color="#00f2ff"/><stop offset="1" stop-color="#00b0ff"/></linearGradient><g id="Layer_2_1_"><g><g id="Layer_1-2_6_"><g id="_08.Eastern_Caribbean_dollar_6_"><path id="Icon_6_" d="m301.7 242.4c18.1 6.1 31.4 14 39.2 23.2s11.9 23.5 11.9 43v7.8c0 39.2-28 57.6-81.1 61.7v22.5c0 3.8-1.7 5.5-5.1 5.5h-21.1c-3.4 0-5.1-1.7-5.1-5.5v-21.8c-22.8-.7-47.7-3.4-75-7.8-4.1-.7-6.1-3.1-6.1-7.2v-33.4c0-4.1 2.4-6.1 6.8-6.1h103.3c14.7 0 19.8-3.4 19.8-12.6v-3.1c0-9.5-6.1-13.3-23.9-19.8l-59-19.1c-31-9.9-44.7-28-44.7-67.8v-6.9c0-39.6 25.2-58.3 78.8-61.4v-22.2c0-3.8 1.7-5.4 5.1-5.4h21.1c3.4 0 5.1 1.7 5.1 5.4v21.5c17.4.3 38.2 3.1 62.4 7.5 4.1 1 6.1 2.7 6.1 5.8v35.8c0 3.8-2 5.8-6.5 5.8h-88.3c-15 0-20.1 3.8-20.1 14.3v2c0 8.2 5.8 14.3 17.4 18.4z" fill="url(#Icon_1_)"/></g></g></g></g></svg>