<svg id="Layer_1" enable-background="new 0 0 512 512" height="512" viewBox="0 0 512 512" width="512" xmlns="http://www.w3.org/2000/svg"><path d="m512.004 238.001v193.669c0 44.294-36.036 80.33-80.33 80.33h-351.34c-44.294 0-80.33-36.036-80.33-80.33v-351.34c0-44.294 36.036-80.33 80.33-80.33h193.669c8.837 0 16 7.163 16 16s-7.163 16-16 16h-193.669c-26.649 0-48.33 21.681-48.33 48.33v351.34c0 26.649 21.681 48.33 48.33 48.33h351.34c26.649 0 48.33-21.681 48.33-48.33v-193.669c0-8.837 7.163-16 16-16s16 7.163 16 16zm-262.936-73.1 151.071-151.072c8.918-8.918 20.807-13.829 33.478-13.829s24.56 4.911 33.478 13.829l31.081 31.081c18.46 18.46 18.46 48.495 0 66.955l-151.073 151.072c-1.839 1.839-4.019 3.122-6.333 3.878l.004.011-112.194 36.785c-1.634.536-3.315.797-4.982.797-4.178.001-8.267-1.638-11.315-4.687-4.266-4.265-5.77-10.566-3.89-16.298l36.785-112.193.011.004c.757-2.314 2.04-4.494 3.879-6.333zm-.42 98.455 57.421-18.827-38.595-38.595zm34.36-87.141 52.781 52.781 139.759-139.758c2.874-2.874 4.456-6.728 4.456-10.851s-1.582-7.977-4.456-10.851l-31.081-31.081c-5.982-5.982-15.719-5.982-21.701 0z"/></svg>