<svg clip-rule="evenodd" fill-rule="evenodd" height="512" stroke-linejoin="round" stroke-miterlimit="2" viewBox="0 0 64 64" width="512" xmlns="http://www.w3.org/2000/svg"><g id="spreadsheet"><path d="m11 47.171v-41.171c0-1.657 1.343-3 3-3h36c1.657 0 3 1.343 3 3v49.172c.418.147.802.387 1.121.707.563.562.879 1.325.879 2.121 0 1.657-1.343 3-3 3h-40c-1.657 0-3-1.343-3-3 0-2.22 0-5.78 0-8 0-1.306.835-2.418 2-2.829zm41 11.829c.552 0 1-.448 1-1 0-.265-.105-.52-.293-.707-.187-.188-.442-.293-.707-.293-4.464 0-15.131 0-18.764 0-1.136 0-2.175-.642-2.683-1.658-.763-1.527-2.132-4.263-2.895-5.789-.169-.339-.515-.553-.894-.553-3.062 0-11.021 0-14.764 0-.552 0-1 .448-1 1v8c0 .552.448 1 1 1zm-1-4v-49c0-.552-.448-1-1-1-6.828 0-29.172 0-36 0-.552 0-1 .448-1 1v41h13.764c1.136 0 2.175.642 2.683 1.658.763 1.527 2.132 4.263 2.895 5.789.169.339.515.553.894.553z"/><path d="m20 11h24c.552 0 1 .448 1 1v28c0 .552-.448 1-1 1h-24c-.552 0-1-.448-1-1v-28c0-.552.448-1 1-1zm3 28v-6h-2v6zm2-6v6h10v-6zm18 0h-6v6h6zm-22-8v6h2v-6zm4 0v6h10v-6zm12 0v6h6v-6zm-16-8v6h2v-6zm4 0v6h10v-6zm12 0v6h6v-6zm-16-4v2h2v-2zm4 0v2h10v-2zm12 0v2h6v-2z"/></g></svg>