<?xml version="1.0"?>
<svg xmlns="http://www.w3.org/2000/svg" id="Layer_1" data-name="Layer 1" viewBox="0 0 64 64" width="512" height="512"><path d="M22,18.272H12a1,1,0,0,0,0,2H22a1,1,0,0,0,0-2Z"/><path d="M32,18.272H27.34a1,1,0,1,0,0,2H32a1,1,0,0,0,0-2Z"/><circle cx="47.403" cy="41.583" r="2.808"/><path d="M7,61H30a1,1,0,0,0,0-2H7a2,2,0,0,1-2-2V26.167a2,2,0,0,1,2-2H52.333a2,2,0,0,1,2,2v7.342H43.383a4,4,0,0,0-4,4v8.149a4,4,0,0,0,4,4h10.95V57a2,2,0,0,1-2,2H34a1,1,0,0,0,0,2H52.333a4,4,0,0,0,4-4V49.658H57a4,4,0,0,0,4-4V37.509a4,4,0,0,0-4-4h-.667V26.167A4,4,0,0,0,53,22.234V4a1,1,0,0,0-1-1H34a1,1,0,0,0,0,2H51V8.2H9V5H30a1,1,0,0,0,0-2H8A1,1,0,0,0,7,4V22.167a4,4,0,0,0-4,4V57A4,4,0,0,0,7,61ZM57,35.509a2,2,0,0,1,2,2v8.149a2,2,0,0,1-2,2H43.383a2,2,0,0,1-2-2V37.509a2,2,0,0,1,2-2ZM9,10.2H51v3.947H9Zm0,5.947H51v6.021H9Z"/></svg>
