<svg id="Layer_1" enable-background="new 0 0 64 64" viewBox="0 0 64 64" xmlns="http://www.w3.org/2000/svg"><path d="m28.4276123 16.4077759c.001709.0006714.0027466.0021973.0045166.0028687.0014038.0005493.0029297.0006714.0043335.0012207.0027466.0010376.005127.0026245.0078735.0036621.0046387.001709.0094604.0009155.0140991.0025635.3500977.1322021.7223511.2015381 1.1084595.2015381.3491211 0 .671875.1425781.9042969.3959961.4511719.4995117.4125977 1.2749023-.0820312 1.7270508l.0060425.0082397c-.0031128.0022583-.0068359.0029907-.0098877.005249l-.0049438-.0066528c-.0066528.0049438-.0093994.0126343-.0159302.0177612-.0066528.005188-.0150757.0061035-.0216675.0115356-.5053711.4140625-1.2441406.3608398-1.6811523-.1196289-.1704102-.1884766-.2783203-.4311523-.3046875-.6831055-.0571289-.5488281-.5419922-.9443359-1.0981445-.8911133-.5493164.0571289-.9482422.5488281-.8911133 1.0981445.0698242.6708984.3579102 1.3164062.8120117 1.8188477.3892822.4284668.8724976.7124634 1.387207.8806763v1.1652222c0 .5522461.4477539 1 1 1s1-.4477539 1-1v-1.1539917c.3493652-.1143188.6831055-.2904053.9874878-.5297852.0067139-.0047607.0146484-.0061035.0213013-.0110474.0098877-.0074463.0145264-.0126953.024231-.0201416.0042725-.003479.0090942-.0056763.0133667-.0091553.0020752-.001709.0028076-.0043335.0048828-.0060425.0441895-.034729.0917358-.0714111.1137695-.0945435 1.3105469-1.1933594 1.4106445-3.2338867.2182617-4.5537109-.6206055-.6772461-1.4672852-1.0498047-2.3833008-1.0498047-.1494141 0-.2836914-.0239258-.4111328-.0732422-.0020142-.0007935-.0040283-.0003052-.0060425-.0010376-.0023804-.0009155-.0037842-.0029907-.0061646-.0038452-.4755859-.1772461-.7949219-.6381836-.7949219-1.1464844 0-.4321289.2329102-.8330078.6083984-1.0454102.0043945-.0025024.0067139-.007019.0110474-.0095825.0040894-.0023804.0087891-.0021362.0128784-.0045776.1743164-.1049805.371582-.1582031.5859375-.1582031.675293 0 1.2246094.5463867 1.2246094 1.2177734 0 .5522461.4477539 1 1 1s1-.4477539 1-1c0-1.4238892-.9378662-2.6206055-2.2246094-3.043335v-.8677977c0-.5522461-.4477539-1-1-1s-1 .4477539-1 1v.8615723c-.203186.0678101-.4002075.1520996-.585022.2605591-.0032349.0018311-.006958.0015259-.0101929.0033569-.0045166.0025635-.0084229.0059814-.0129395.0085449-.00354.0021362-.0074463.003479-.0109863.0056152-.0025024.0015259-.0036621.0041504-.0061646.0056763-.9824829.5707397-1.5929565 1.6265869-1.5929565 2.7658081.0000001 1.3331299.8351442 2.5403443 2.0789796 3.0127564z"/><path d="m29.2280273 25.1005859c5.1425781 0 9.3261719-4.1835938 9.3261719-9.3261719 0-5.1420898-4.1835938-9.3256836-9.3261719-9.3256836-5.1420898 0-9.3256836 4.1835938-9.3256836 9.3256836.0000001 5.1425782 4.1835938 9.3261719 9.3256836 9.3261719zm0-16.6518554c4.0395508 0 7.3261719 3.2861328 7.3261719 7.3256836s-3.2866211 7.3261719-7.3261719 7.3261719-7.3256836-3.2866211-7.3256836-7.3261719 3.2861329-7.3256836 7.3256836-7.3256836z"/><path d="m58.7788086 2h-42.262207c-.5522461 0-1 .4477539-1 1v35.5512695h-10.2954102c-.5522461 0-1 .4477539-1 1v13.8022461c0 4.7675782 3.8789063 8.6464844 8.6464844 8.6464844h3.6489258 35.2504883c4.4174805 0 8.0117188-3.5942383 8.0117188-8.012207v-50.987793c-.0000001-.5522461-.447754-1-1.0000001-1zm-52.5576172 51.3535156v-12.8022461h9.2954102v19.4487305h-2.6489258c-3.6650391 0-6.6464844-2.9814453-6.6464844-6.6464844zm51.5576172.6342774c0 3.3149414-2.6967773 6.012207-6.0117188 6.012207h-34.2504882v-4.6450195h29.2900391c.5522461 0 1-.4477539 1-1s-.4477539-1-1-1h-29.2900391v-49.3549805h40.262207z"/><path d="m27.3486328 30.8212891h-3.7890625c-1.5878906 0-2.8793945 1.2915039-2.8793945 2.8793945v13.1293945c0 1.5878906 1.2915039 2.8793945 2.8793945 2.8793945h3.7890625c1.5878906 0 2.8798828-1.2915039 2.8798828-2.8793945v-13.1293945c0-1.5878906-1.2919922-2.8793945-2.8798828-2.8793945zm.8798828 16.008789c0 .4848633-.3945312.8793945-.8798828.8793945h-3.7890625c-.4848633 0-.8793945-.3945312-.8793945-.8793945v-13.1293945c0-.4848633.3945312-.8793945.8793945-.8793945h3.7890625c.4853516 0 .8798828.3945312.8798828.8793945z"/><path d="m32.8735352 28.7324219v17.8256836c0 1.737793 1.4140625 3.1513672 3.1518555 3.1513672h3.2446289c1.737793 0 3.1518555-1.4135742 3.1518555-3.1513672v-17.8256836c0-1.737793-1.4140625-3.1518555-3.1518555-3.1518555h-3.2446289c-1.737793 0-3.1518555 1.4140625-3.1518555 3.1518555zm7.5483398 0v17.8256836c0 .6347656-.5166016 1.1513672-1.1518555 1.1513672h-3.2446289c-.6352539 0-1.1518555-.5166016-1.1518555-1.1513672v-17.8256836c0-.6352539.5166016-1.1518555 1.1518555-1.1518555h3.2446289c.6352539 0 1.1518555.5166016 1.1518555 1.1518555z"/><path d="m47.434082 49.7094727h4.8144531c1.3051758 0 2.3666992-1.0615234 2.3666992-2.3666992v-6.1982422c0-1.3051758-1.0615234-2.3671875-2.3666992-2.3671875h-4.8144531c-1.3051758 0-2.3671875 1.0620117-2.3671875 2.3671875v6.1982422c0 1.3051757 1.0620117 2.3666992 2.3671875 2.3666992zm-.3671875-8.5649415c0-.2026367.1645508-.3671875.3671875-.3671875h4.8144531c.2021484 0 .3666992.1645508.3666992.3671875v6.1982422c0 .2021484-.1645508.3666992-.3666992.3666992h-4.8144531c-.2026367 0-.3671875-.1645508-.3671875-.3666992z"/><path d="m48.612793 8.1972656h4.9033203v8.4516602c0 .5522461.4477539 1 1 1s1-.4477539 1-1v-9.4516602c0-.5522461-.4477539-1-1-1h-5.9033203c-.5522461 0-1 .4477539-1 1s.4477539 1 1 1z"/><path d="m53.6152344 53.3549805h-2.421875c-.5522461 0-1 .4477539-1 1s.4477539 1 1 1h2.421875c.5522461 0 1-.4477539 1-1s-.4477539-1-1-1z"/></svg>