<svg id="Layer_1" height="512" viewBox="0 0 66 66" width="512" xmlns="http://www.w3.org/2000/svg"><g><path d="m56.4 55.4h-9.9c-.6 0-1 .4-1 1s.4 1 1 1h9.9c.6 0 1-.4 1-1s-.4-1-1-1z"/><path d="m21.4 45.6v.8c-1.6.5-2.7 1.9-2.7 3.7 0 2.1 1.7 3.9 3.7 3.9 1 0 1.7.8 1.7 1.9 0 1-.8 1.9-1.7 1.9-1 0-1.7-.8-1.7-1.9 0-.6-.4-1-1-1s-1 .4-1 1c0 1.8 1.2 3.3 2.7 3.7v.8c0 .6.4 1 1 1s1-.4 1-1v-.8c1.6-.5 2.7-1.9 2.7-3.7 0-2.1-1.7-3.9-3.7-3.9-1 0-1.7-.8-1.7-1.9s.8-1.9 1.7-1.9c1 0 1.7.8 1.7 1.9 0 .6.4 1 1 1s1-.4 1-1c0-1.8-1.2-3.3-2.7-3.7v-.8c0-.6-.4-1-1-1s-1 .4-1 1z"/><path d="m32 54h2.4c.6 0 1-.4 1-1s-.4-1-1-1h-2.4c-.6 0-1 .4-1 1 0 .5.4 1 1 1z"/><path d="m12.8 52h-2.4c-.6 0-1 .4-1 1s.4 1 1 1h2.4c.6 0 1-.4 1-1s-.5-1-1-1z"/><path d="m61.8 1h-37.4c-1.8 0-3.2 1.4-3.2 3.2v36.7h-8.8v-16.9l2.2-.1c.4 0 .7-.2.9-.6s.1-.8-.2-1.1l-5.3-6c-.4-.4-1.1-.4-1.5 0l-5.6 6.4c-.3.3-.3.7-.2 1.1.2.4.5.6.9.6l2.1-.1v16.7h-2.7c-1.1 0-2 .9-2 2.1v19.9c0 1.2.9 2.1 2 2.1h58.7c1.8 0 3.2-1.4 3.2-3.2v-57.6c.1-1.8-1.3-3.2-3.1-3.2zm-26.2 62c.8-3.1 3.2-5.5 6.1-6.2v6.2zm6.1-13.9c-2.9-.7-5.3-3.1-6.1-6.2h6.1v.1zm-8.1-6.2c.9 4.2 4.1 7.5 8.2 8.2v3.6c-4 .8-7.3 4-8.2 8.2l-22.4-.1c-.9-4-4.2-7.3-8.2-8v-3.6c4-.8 7.3-4 8.2-8.2 7.9-.1 14.1-.1 22.4-.1zm-26.1-20.4c-.2-.2-.5-.3-.7-.3h-.9l3.3-3.8 3.2 3.6h-1c-.5 0-1 .5-1 1v17.9h-2.6v-17.7c0-.3-.1-.5-.3-.7zm1.6 20.4c-.8 3.1-3.1 5.5-6.1 6.2v-6.2zm-6.1 20v-6.1c2.9.7 5.3 3.1 6.1 6.1zm60-1.1c0 .7-.6 1.2-1.2 1.2h-18v-.1-19.9c0-1.2-.9-2.1-2-2.1h-18.6v-36.7c0-.7.6-1.2 1.2-1.2h37.3c.8 0 1.3.6 1.3 1.2z"/><path d="m56.4 8.6h-26.6c-.6 0-1 .4-1 1s.4 1 1 1h26.6c.6 0 1-.4 1-1s-.4-1-1-1z"/><path d="m56.4 18h-26.6c-.6 0-1 .4-1 1s.4 1 1 1h26.6c.6 0 1-.4 1-1s-.4-1-1-1z"/><path d="m56.4 27.3h-26.6c-.6 0-1 .4-1 1s.4 1 1 1h26.6c.6 0 1-.4 1-1 0-.5-.4-1-1-1z"/><path d="m56.4 36.7h-26.6c-.6 0-1 .4-1 1s.4 1 1 1h26.6c.6 0 1-.4 1-1s-.4-1-1-1z"/><path d="m56.4 46h-9.9c-.6 0-1 .4-1 1s.4 1 1 1h9.9c.6 0 1-.4 1-1s-.4-1-1-1z"/></g></svg>