<?xml version="1.0" encoding="UTF-8"?>
<svg xmlns="http://www.w3.org/2000/svg" id="Outline" viewBox="0 0 128 128" width="512" height="512"><g id="Outline-2" data-name="Outline"><path d="M96,32A32,32,0,1,0,64,64,32.036,32.036,0,0,0,96,32ZM35,32A29,29,0,1,1,64,61,29.032,29.032,0,0,1,35,32Z"/><path d="M87.5,32A23.5,23.5,0,1,0,64,55.5,23.527,23.527,0,0,0,87.5,32Zm-44,0A20.5,20.5,0,1,1,64,52.5,20.523,20.523,0,0,1,43.5,32Z"/><path d="M65.5,43.772V41.867A5.7,5.7,0,0,0,64.841,30.5H63.159a2.7,2.7,0,0,1,0-5.409h2.523a1.866,1.866,0,0,1,1.863,1.864,1.5,1.5,0,0,0,3,0,4.869,4.869,0,0,0-4.863-4.864H65.5V20.228a1.5,1.5,0,0,0-3,0v1.9A5.7,5.7,0,0,0,63.159,33.5h1.682a2.7,2.7,0,0,1,0,5.409H62.318a1.866,1.866,0,0,1-1.863-1.864,1.5,1.5,0,0,0-3,0,4.869,4.869,0,0,0,4.863,4.864H62.5v1.863a1.5,1.5,0,0,0,3,0Z"/><path d="M115,102a13,13,0,1,0,13,13A13.015,13.015,0,0,0,115,102Zm0,23a10,10,0,1,1,10-10A10.011,10.011,0,0,1,115,125Z"/><path d="M67.637,104.124a4.176,4.176,0,0,0-7.274,0L50.4,121.768A4.178,4.178,0,0,0,54.034,128H73.966a4.178,4.178,0,0,0,3.638-6.232Zm7.346,20.292a1.155,1.155,0,0,1-1.017.584H54.034a1.177,1.177,0,0,1-1.025-1.756L62.975,105.6a1.177,1.177,0,0,1,2.05,0l9.966,17.645A1.155,1.155,0,0,1,74.983,124.416Z"/><path d="M4.443,128H21.557A4.448,4.448,0,0,0,26,123.557V106.443A4.448,4.448,0,0,0,21.557,102H4.443A4.448,4.448,0,0,0,0,106.443v17.114A4.448,4.448,0,0,0,4.443,128ZM3,106.443A1.444,1.444,0,0,1,4.443,105H21.557A1.444,1.444,0,0,1,23,106.443v17.114A1.444,1.444,0,0,1,21.557,125H4.443A1.444,1.444,0,0,1,3,123.557Z"/><path d="M8,81.5v12a3,3,0,0,0,3,3h4a3,3,0,0,0,3-3V87H59v6.5a3,3,0,0,0,3,3h4a3,3,0,0,0,3-3V87h41v6.5a3,3,0,0,0,3,3h4a3,3,0,0,0,3-3v-12a4.505,4.505,0,0,0-4.5-4.5H69V70.5a3,3,0,0,0-3-3H62a3,3,0,0,0-3,3V77H12.5A4.505,4.505,0,0,0,8,81.5ZM60.5,80A1.5,1.5,0,0,0,62,78.5v-8h4v8A1.5,1.5,0,0,0,67.5,80h48a1.5,1.5,0,0,1,1.5,1.5v12h-4v-8a1.5,1.5,0,0,0-1.5-1.5h-44A1.5,1.5,0,0,0,66,85.5v8H62v-8A1.5,1.5,0,0,0,60.5,84h-44A1.5,1.5,0,0,0,15,85.5v8H11v-12A1.5,1.5,0,0,1,12.5,80Z"/></g></svg>
