<svg id="Layer_1" enable-background="new 0 0 512 512" viewBox="0 0 512 512" xmlns="http://www.w3.org/2000/svg"><path d="m263.84 95.01c0-3.31 2.69-6 6-6h84.71c3.31 0 6 2.69 6 6s-2.69 6-6 6h-84.71c-3.31 0-6-2.69-6-6zm51.21-26.36h41.4c3.31 0 6-2.69 6-6s-2.69-6-6-6h-41.4c-3.31 0-6 2.69-6 6s2.69 6 6 6zm-146.02 158.42c.99 2.09 3.1 3.42 5.42 3.42s4.43-1.33 5.42-3.42l17.64-37.13c1.42-2.99.15-6.57-2.84-7.99s-6.57-.15-7.99 2.84l-12.22 25.72-12.22-25.72c-1.42-2.99-5-4.27-7.99-2.84-2.99 1.42-4.27 5-2.84 7.99zm-66.83 3.43c3.31 0 6-2.69 6-6v-22.1l24.93 26.24c1.16 1.22 2.74 1.87 4.35 1.87.75 0 1.5-.14 2.22-.43 2.28-.91 3.77-3.12 3.77-5.57v-37.13c0-3.31-2.69-6-6-6s-6 2.69-6 6v22.1l-24.93-26.24c-1.69-1.78-4.3-2.35-6.57-1.44-2.28.91-3.77 3.12-3.77 5.57v37.13c0 3.31 2.68 6 6 6zm-13.33-43.13c0-3.31-2.69-6-6-6s-6 2.69-6 6v37.13c0 3.31 2.69 6 6 6s6-2.69 6-6zm116.55 19.64v-2.14c0-12.95 10.54-23.49 23.49-23.49h.3c12.95 0 23.49 10.54 23.49 23.49v2.14c0 12.95-10.54 23.49-23.49 23.49h-.3c-12.95 0-23.49-10.54-23.49-23.49zm12 0c0 6.34 5.15 11.49 11.49 11.49h.3c6.34 0 11.49-5.16 11.49-11.49v-2.14c0-6.34-5.15-11.49-11.49-11.49h-.3c-6.34 0-11.49 5.16-11.49 11.49zm48.61 23.49c3.31 0 6-2.69 6-6v-37.13c0-3.31-2.69-6-6-6s-6 2.69-6 6v37.13c0 3.31 2.69 6 6 6zm43.67-14.07c-1.93 1.35-4.2 2.07-6.56 2.07h-.3c-6.34 0-11.49-5.16-11.49-11.49v-2.14c0-6.34 5.16-11.49 11.49-11.49h.3c2.35 0 4.62.71 6.56 2.07 2.72 1.9 6.46 1.24 8.36-1.48 1.9-2.71 1.24-6.46-1.48-8.36-3.96-2.77-8.6-4.23-13.43-4.23h-.3c-12.95 0-23.49 10.54-23.49 23.49v2.14c0 12.95 10.54 23.49 23.49 23.49h.3c4.83 0 9.47-1.46 13.43-4.23 2.72-1.9 3.38-5.64 1.48-8.36s-5.64-3.38-8.36-1.48zm46.27-23.28c3.31 0 6-2.69 6-6s-2.69-6-6-6h-23.2c-3.31 0-6 2.69-6 6v37.13c0 3.31 2.69 6 6 6h23.2c3.31 0 6-2.69 6-6s-2.69-6-6-6h-17.2v-6.56h17.2c3.31 0 6-2.69 6-6s-2.69-6-6-6h-17.2v-6.56h17.2zm117.73 223.61c0 44.24-36 80.24-80.24 80.24-20.69 0-39.57-7.87-53.81-20.77h-265.83c-19.59 0-35.52-15.93-35.52-35.52v-305.5h.01c0-1.47.54-2.93 1.57-4.05l104.68-114.21c1.16-1.26 2.77-1.93 4.42-1.93v-.02h216.03c19.59 0 35.52 15.93 35.52 35.52v286.33c40.95 3.6 73.17 38.05 73.17 79.91zm-415.76-287.55h52.5c17.95 0 32.55-14.6 32.55-32.55v-60.24zm270.88 335.02c-6.58-8.93-11.34-19.27-13.77-30.47h-220.78c-3.31 0-6-2.69-6-6v-151.33c0-3.31 2.69-6 6-6h250.29c3.31 0 6 2.69 6 6v72.57c11.12-7.06 24.07-11.47 37.98-12.32v-286.16c0-12.97-10.55-23.52-23.52-23.52h-210.03v69.66c0 24.56-19.98 44.55-44.55 44.55h-60.14v299.5c0 12.97 10.55 23.52 23.52 23.52zm-15.59-47.47c0-11.93 2.64-23.25 7.33-33.44h-28.98v38.44h21.82c-.11-1.65-.17-3.32-.17-5zm14.15-45.44c3.26-4.72 7.01-9.08 11.18-12.99v-25.45h-46.99v38.44zm11.18-50.44v-38.44h-46.99v38.44zm-58.99 50.44v-38.44h-179.3v38.44zm-179.3 12v38.44h179.3v-38.44zm179.3-62.44v-38.44h-179.3v38.44zm182.13 95.88c0-37.63-30.61-68.24-68.24-68.24s-68.24 30.61-68.24 68.24 30.62 68.24 68.24 68.24c37.63 0 68.24-30.61 68.24-68.24zm-21.74-32.38c-2.34-2.34-6.14-2.34-8.49 0l-52.03 52.03-24-24c-2.34-2.34-6.14-2.34-8.49 0-2.34 2.34-2.34 6.14 0 8.48l28.24 28.24c1.13 1.13 2.65 1.76 4.24 1.76s3.12-.63 4.24-1.76l56.28-56.28c2.36-2.33 2.36-6.13.01-8.47z"/></svg>