<svg viewBox="0 0 64 64" xmlns="http://www.w3.org/2000/svg"><g id="Layer_17" data-name="Layer 17"><path d="m57 12h2v2h-2z"/><path d="m62 1h-60a1 1 0 0 0 -1 1v40a1 1 0 0 0 1 1h15a17.07 17.07 0 0 0 11 8.53v5.47h-1a1 1 0 0 0 -1 1v5h2v-4h8v4h2v-5a1 1 0 0 0 -1-1h-1v-5.49a17.07 17.07 0 0 0 11-8.51h15a1 1 0 0 0 1-1v-40a1 1 0 0 0 -1-1zm-28 56h-4v-5.13a15.45 15.45 0 0 0 4 0zm-2-7a15 15 0 1 1 15-15 15 15 0 0 1 -15 15zm29-9h-13.11a16.91 16.91 0 0 0 -6.89-20.4v-11.6h-2v10.53a17.26 17.26 0 0 0 -2-.78v-9.75h-2v9.28a17.43 17.43 0 0 0 -3-.28c-.34 0-.67 0-1 .05v-9.05h-2v9.28a16.62 16.62 0 0 0 -2 .47v-9.75h-2v10.53a16.68 16.68 0 0 0 -2 1.07v-11.6h-2v13h.07a16.9 16.9 0 0 0 -5 19h-13.07v-38h58z"/><path d="m7 7h3v-2h-4a1 1 0 0 0 -1 1v4h2z"/><path d="m57 10h2v-4a1 1 0 0 0 -1-1h-4v2h3z"/><path d="m6 39h4v-2h-3v-3h-2v4a1 1 0 0 0 1 1z"/><path d="m59 38v-4h-2v3h-3v2h4a1 1 0 0 0 1-1z"/><path d="m11 9h2v26h-2z"/><path d="m15 9h2v13h-2z"/><path d="m45 9h2v13h-2z"/><path d="m51 9h2v26h-2z"/><path d="m32 22.57a12.43 12.43 0 1 0 12.43 12.43 12.45 12.45 0 0 0 -12.43-12.43zm0 22.86a10.41 10.41 0 0 1 -7-18.14v7.71h2v-9.15a10.67 10.67 0 0 1 2-.85v10h2v-10.38c.33 0 .66-.05 1-.05a10.28 10.28 0 0 1 3 .43v10h2v-9.15a10.59 10.59 0 0 1 2 1.44v7.71h2v-5.24a10.41 10.41 0 0 1 -9 15.67z"/></g></svg>