<svg id="Layer_2_00000067225118557849378210000017920185095284926363_" enable-background="new 0 0 512 512" height="512" viewBox="0 0 512 512" width="512" xmlns="http://www.w3.org/2000/svg" xmlns:xlink="http://www.w3.org/1999/xlink"><linearGradient id="lg1"><stop offset="0" stop-color="#64b5f6"/><stop offset="1" stop-color="#1976d2"/></linearGradient><linearGradient id="SVGID_1_" gradientTransform="matrix(1 0 0 -1 0 514.47)" gradientUnits="userSpaceOnUse" x1="-12.737" x2="336.843" xlink:href="#lg1" y1="371.938" y2="22.358"/><linearGradient id="SVGID_00000008867326076089921420000010052599621326461614_" gradientTransform="matrix(1 0 0 -1 0 514.47)" gradientUnits="userSpaceOnUse" x1="70.333" x2="419.913" xlink:href="#lg1" y1="455.012" y2="105.433"/><linearGradient id="SVGID_00000086666037564429300550000004846776585684912260_" gradientTransform="matrix(1 0 0 -1 0 514.47)" gradientUnits="userSpaceOnUse" x1="136.825" x2="486.405" xlink:href="#lg1" y1="521.5" y2="171.92"/><linearGradient id="SVGID_00000163775122645735910710000003178727161695839119_" gradientTransform="matrix(1 0 0 -1 0 514.47)" gradientUnits="userSpaceOnUse" x1="209.595" x2="559.175" xlink:href="#lg1" y1="594.27" y2="244.69"/><linearGradient id="SVGID_00000171685424753563720730000014395953389535962045_" gradientTransform="matrix(1 0 0 -1 0 514.47)" gradientUnits="userSpaceOnUse" x1="-16.817" x2="332.763" xlink:href="#lg1" y1="367.858" y2="18.278"/><linearGradient id="SVGID_00000085958256320525872640000010117576570144042679_" gradientTransform="matrix(1 0 0 -1 0 514.47)" gradientUnits="userSpaceOnUse" x1="64.9" x2="414.48" xlink:href="#lg1" y1="449.575" y2="99.995"/><g id="Social_Icon"><g id="Users-2"><path d="m157.22 255.995c0 25.19 9.43 48.18 24.95 65.63h-155.64c-14.62 0-26.48-11.84-26.5-26.46l-.03-14.14c-.05-34.32 14.71-65.2 38.26-86.59 8.78-7.98 21.9-9.08 31.87-2.66 12.95 8.34 29.1 13.29 46.61 13.29s33.66-4.95 46.61-13.29c6.25-4.03 13.73-5.09 20.6-3.36-16.58 17.67-26.73 41.44-26.73 67.58z" fill="url(#SVGID_1_)"/><circle cx="116.74" cy="105.865" fill="url(#SVGID_00000008867326076089921420000010052599621326461614_)" r="65.63"/><path d="m512 281.025-.03 14.14c-.02 14.62-11.88 26.46-26.5 26.46h-155.63c15.52-17.45 24.95-40.44 24.95-65.63s-10.16-49.92-26.74-67.59c6.87-1.72 14.35-.66 20.6 3.37 12.95 8.34 29.1 13.29 46.61 13.29s33.66-4.95 46.61-13.29c9.97-6.42 23.09-5.32 31.87 2.66 23.55 21.39 38.31 52.27 38.26 86.59z" fill="url(#SVGID_00000086666037564429300550000004846776585684912260_)"/><circle cx="395.26" cy="105.865" fill="url(#SVGID_00000163775122645735910710000003178727161695839119_)" r="65.63"/><path d="m256 355.205c17.51 0 33.66-4.95 46.61-13.29 9.97-6.42 23.09-5.32 31.87 2.66 23.54 21.39 38.31 52.27 38.26 86.59l-.02 14.14c-.03 14.62-11.88 26.46-26.5 26.46h-180.43c-14.62 0-26.48-11.84-26.5-26.46l-.02-14.14c-.05-34.32 14.71-65.2 38.26-86.59 8.78-7.98 21.9-9.08 31.87-2.66 12.95 8.34 29.1 13.29 46.61 13.29z" fill="url(#SVGID_00000171685424753563720730000014395953389535962045_)"/><circle cx="256" cy="255.995" fill="url(#SVGID_00000085958256320525872640000010117576570144042679_)" r="65.63"/></g></g></svg>