<svg id="Layer_1" enable-background="new 0 0 512.002 512.002" height="512" viewBox="0 0 512.002 512.002" width="512" xmlns="http://www.w3.org/2000/svg"><g><path d="m189.404 400.031c2.874-4.567 5.704-9.161 8.504-13.775-84.787-67.234-191.805-280.324-48.233-337.14-9.659-2.942-19.967-4.59-30.675-4.59-54.676 0-99 46.062-99 102.883 0 98.86 65.442 179.125 140.694 237.51 8.805 6.83 18.54 11.852 28.71 15.112z" fill="#cee1f2"/><path d="m193.011 421.137c-1.767 0-3.562-.235-5.347-.73-14.283-3.954-27.474-10.571-39.204-19.667-.012-.009-.021-.017-.032-.024-.006-.004-.012-.009-.018-.014-84.216-65.245-148.292-150.813-148.41-253.293.198-107.465 123.516-161.194 202.196-91.49 5.806 5.095 10.979 10.59 15.466 16.373 4.672-6.15 10.115-11.947 16.265-17.256 79.043-68.369 202.236-14.872 202.069 92.762-.248 12.729-1.462 25.547-3.609 38.1-1.862 10.887-12.197 18.2-23.086 16.342-10.888-1.863-18.204-12.199-16.342-23.086 1.8-10.522 2.823-21.265 3.041-31.934-.1-45.614-35.5-82.694-79-82.694-45.215 0-79 33.261-79 63 0 11.046-8.954 20-20 20s-20-8.954-20-20c0-28.535-35.239-63-79-63-43.561 0-79 37.181-79 82.883 0 97.979 72.293 174.642 132.95 221.705 7.599 5.896 16.14 10.184 25.386 12.743 10.646 2.947 16.886 13.965 13.939 24.611-2.453 8.86-10.498 14.668-19.264 14.669z" fill="#0023c4"/><path d="m369 487.436c-16.773.001-33.542-5.216-47.538-15.651-61.285-45.69-94.294-100.129-95.458-157.433-.835-71.877 88.112-108.755 138.918-58.794 1.418 1.377 2.778 2.798 4.078 4.259 1.3-1.461 2.66-2.882 4.078-4.259 50.837-49.972 139.749-13.065 138.918 58.794-1.164 57.303-34.173 111.743-95.458 157.433-13.993 10.433-30.768 15.65-47.538 15.651zm-103-173.682c1.247 56.122 43.836 99.471 79.37 125.963 13.912 10.373 33.346 10.373 47.26 0 35.534-26.492 78.123-69.841 79.37-125.963-1.736-54.039-81.164-54.85-83-1.027 0 11.045-8.954 19.999-20 19.999s-20-8.954-20-20c-1.826-53.842-81.299-52.978-83 1.028z" fill="#ff5cf4"/></g></svg>