<svg id="Layer_1" viewBox="0 0 512 512" xmlns="http://www.w3.org/2000/svg" data-name="Layer 1"><path d="m451.974 389.632c33.116-32.413 52.026-77.217 52.026-123.605 0-95.281-77.53-172.797-172.827-172.797-6.078 0-12.131.332-18.062.953-31.728-37.716-79.25-61.731-132.284-61.731-95.297 0-172.827 77.517-172.827 172.797 0 46.4 18.919 91.204 52.055 123.607l-21.735 81.102c-.733 2.735.253 5.642 2.5 7.365 1.25.959 2.752 1.447 4.262 1.447 1.204 0 2.412-.31 3.499-.938l81.83-47.247c16.285 4.972 33.229 7.49 50.416 7.49 6.082 0 12.09-.32 18.011-.936 32.959 39.266 80.962 61.713 132.335 61.713 17.179 0 34.133-2.519 50.444-7.491l81.831 47.248c1.088.628 2.295.938 3.499.938 1.51 0 3.013-.488 4.262-1.447 2.247-1.724 3.233-4.63 2.5-7.365l-21.736-81.104z" fill="#2de6a8"/><path d="m219.479 36.812c64.879 24.909 111.057 87.848 111.057 161.378 0 95.297-77.53 172.827-172.827 172.827-17.187 0-34.131-2.519-50.416-7.49l-66.878 38.614-2.095 7.817c-.733 2.735.253 5.642 2.5 7.365 1.25.959 2.752 1.447 4.262 1.447 1.204 0 2.412-.31 3.499-.938l81.83-47.247c16.285 4.972 33.229 7.49 50.416 7.49 95.297 0 172.827-77.53 172.827-172.827 0-81.999-57.423-150.838-134.174-168.437z" fill="#26d395"/><path d="m451.974 389.632c33.116-32.413 52.026-77.217 52.026-123.605 0-95.281-77.53-172.797-172.827-172.797-6.078 0-12.131.332-18.062.953 25.285 30.056 40.542 68.811 40.542 111.067 0 89.215-67.951 162.854-154.815 171.891 32.959 39.266 80.962 61.713 132.335 61.713 17.179 0 34.133-2.519 50.444-7.491l81.831 47.248c1.088.628 2.295.938 3.499.938 1.51 0 3.013-.488 4.262-1.447 2.247-1.724 3.233-4.63 2.5-7.365l-21.736-81.104z" fill="#f3d332"/><path d="m451.974 389.632c33.116-32.413 52.026-77.217 52.026-123.605 0-89.411-68.272-163.176-155.432-171.926 77.197 17.269 135.067 86.316 135.067 168.632 0 46.388-18.91 91.192-52.026 123.605l21.736 81.104c.461 1.718.241 3.504-.542 5.022l10.646 6.147c1.088.628 2.295.938 3.499.938 1.51 0 3.013-.488 4.262-1.447 2.247-1.724 3.233-4.63 2.5-7.365l-21.736-81.104z" fill="#e8c531"/><g fill="#fff"><circle cx="183.881" cy="274.253" r="14.997"/><path d="m179.838 121.245c-20.478 0-38.908 12.936-45.862 32.188-2.813 7.792 1.221 16.389 9.013 19.204 7.79 2.814 16.389-1.221 19.204-9.012 2.674-7.404 9.766-12.379 17.646-12.379 10.354 0 18.777 8.41 18.777 18.748 0 6.116-3.002 11.871-8 15.371-14.419 10.046-21.73 22.453-21.73 36.878 0 8.284 6.716 15 15 15s15-6.716 15-15c0-2.829 1.009-6.78 8.909-12.284 13.038-9.131 20.821-24.071 20.821-39.965 0-26.88-21.882-48.748-48.777-48.748z"/></g></svg>