<svg id="Layer_1" viewBox="0 0 100 100" xmlns="http://www.w3.org/2000/svg" data-name="Layer 1"><path d="m80.18 90.24c0 4.29-13.52 7.76-30.18 7.76s-30.18-3.47-30.18-7.76 13.5-7.77 30.18-7.77 30.18 3.53 30.18 7.77z" fill="#c2dfff"/><path d="m50 99.5c-15.74 0-31.68-3.18-31.68-9.26s15.94-9.24 31.68-9.24 31.68 3.19 31.68 9.27-15.94 9.23-31.68 9.23zm0-15.5c-18.56 0-28.68 4.15-28.68 6.27s10.12 6.23 28.68 6.23 28.68-4.13 28.68-6.26-10.12-6.24-28.68-6.24z" fill="#1541cc"/><path d="m50 91.48s-32.25-26.03-32.25-57.48a32.25 32.25 0 0 1 64.5 0c0 30.37-32.25 57.48-32.25 57.48z" fill="#fff"/><path d="m50 93a1.48 1.48 0 0 1 -1-.34c-1.29-1.1-32.75-26.85-32.75-58.66a33.75 33.75 0 0 1 67.5 0c0 30.71-31.45 57.5-32.75 58.63a1.51 1.51 0 0 1 -1 .37zm0-89.5a30.66 30.66 0 0 0 -30.75 30.5c0 27.35 25.42 50.88 30.73 55.5 5.27-4.76 30.77-29.09 30.77-55.5a30.66 30.66 0 0 0 -30.75-30.5z" fill="#1541cc"/><path d="m70 34a20 20 0 1 1 -20-19.83 19.92 19.92 0 0 1 20 19.83z" fill="#fff"/><path d="m50 55.35a21.34 21.34 0 1 1 21.49-21.35 21.44 21.44 0 0 1 -21.49 21.35zm0-39.68a18.34 18.34 0 1 0 18.49 18.33 18.43 18.43 0 0 0 -18.49-18.33z" fill="#1541cc"/><g fill="#36ffd8"><path d="m59 45.06h-.17l-5.91-.66a1.5 1.5 0 0 1 -.92-.4l-11.76-11.83a5.22 5.22 0 0 1 3.69-8.9 5.14 5.14 0 0 1 3.68 1.53l11.8 11.79a1.5 1.5 0 0 1 .43.89l.66 5.92a1.5 1.5 0 0 1 -1.5 1.66zm-5.22-3.59 3.52.39-.39-3.52-11.42-11.42a2.26 2.26 0 0 0 -3.13 0 2.2 2.2 0 0 0 -.64 1.56 2.24 2.24 0 0 0 .64 1.57z"/><path d="m43.62 34.92a1.5 1.5 0 0 1 -1.06-.44l-2.32-2.31a5.21 5.21 0 1 1 7.38-7.37l2.31 2.31a1.5 1.5 0 0 1 0 2.12l-5.25 5.25a1.5 1.5 0 0 1 -1.06.44zm.31-8.65a2.2 2.2 0 0 0 -2.21 2.21 2.24 2.24 0 0 0 .64 1.57l1.26 1.25 3.13-3.13-1.26-1.25a2.17 2.17 0 0 0 -1.56-.65z"/><path d="m56.36 32a1.49 1.49 0 0 1 -1.07-.44l-3.83-3.86-1.53 1.53a1.5 1.5 0 0 1 -2.12-2.12l1.81-1.81a2.6 2.6 0 0 1 3.68 0l4.12 4.11a1.51 1.51 0 0 1 0 2.12 1.48 1.48 0 0 1 -1.06.47z"/></g></svg>