<?xml version="1.0"?>
<svg xmlns="http://www.w3.org/2000/svg" id="Layer_1" data-name="Layer 1" viewBox="0 0 512 512"><path d="M118.134,170.152v56.094a25.234,25.234,0,0,0,25.205,25.2H368.661a25.234,25.234,0,0,0,25.2-25.2V170.152a24.793,24.793,0,0,0-13.642-22.4l-62.241-32.135a75.52,75.52,0,1,0-123.966,0l-62.242,32.135A24.794,24.794,0,0,0,118.134,170.152ZM256,9.035a63.519,63.519,0,1,1-63.52,63.519A63.591,63.591,0,0,1,256,9.035ZM137.28,158.419l64.548-33.325a75.342,75.342,0,0,0,108.343,0l64.548,33.325a12.826,12.826,0,0,1,7.147,11.733v56.094a13.22,13.22,0,0,1-13.2,13.2H143.339a13.22,13.22,0,0,1-13.205-13.2V170.152A12.829,12.829,0,0,1,137.28,158.419ZM428.665,340.013V301.435H262v38.578a6,6,0,0,1-12,0V301.435H83.334v38.578a6,6,0,0,1-12,0V295.435a6,6,0,0,1,6-6H250V261.45a6,6,0,0,1,12,0v27.985H434.665a6,6,0,0,1,6,6v44.578a6,6,0,0,1-12,0Zm-245.2,79.9a6,6,0,0,0-4.967,5.91v23.288a6,6,0,0,0,4.967,5.911l12.65,2.21a62.593,62.593,0,0,0,3.561,8.607l-7.38,10.5a6,6,0,0,0,.667,7.692L209.433,500.5a6,6,0,0,0,7.692.667l10.5-7.379a62.761,62.761,0,0,0,8.608,3.561L238.445,510a6,6,0,0,0,5.91,4.967h23.289a6,6,0,0,0,5.91-4.967l2.21-12.65a62.829,62.829,0,0,0,8.608-3.56l10.5,7.379a6,6,0,0,0,7.692-.667l16.467-16.467a6,6,0,0,0,.667-7.692l-7.379-10.5a62.709,62.709,0,0,0,3.561-8.608l12.649-2.209a6,6,0,0,0,4.968-5.911V425.822a6,6,0,0,0-4.968-5.91l-12.65-2.211a62.661,62.661,0,0,0-3.56-8.607l7.379-10.5a6,6,0,0,0-.667-7.692l-16.467-16.467a6,6,0,0,0-7.692-.667l-10.5,7.38a62.657,62.657,0,0,0-8.608-3.561l-2.209-12.65a6,6,0,0,0-5.911-4.968H244.356a6,6,0,0,0-5.91,4.968l-2.211,12.648a62.736,62.736,0,0,0-8.608,3.562l-10.5-7.379a6,6,0,0,0-7.692.667L192.965,390.9a6,6,0,0,0-.667,7.692l7.379,10.5a62.813,62.813,0,0,0-3.561,8.608Zm18.379,8.97a6,6,0,0,0,4.772-4.392,50.816,50.816,0,0,1,5.285-12.774,6,6,0,0,0-.269-6.478l-6.618-9.419,9.336-9.336,9.419,6.617a6,6,0,0,0,6.479.269,50.759,50.759,0,0,1,12.774-5.285,6,6,0,0,0,4.392-4.771l1.982-11.347h13.2l1.981,11.348a6,6,0,0,0,4.392,4.771,50.749,50.749,0,0,1,12.774,5.286,6,6,0,0,0,6.479-.27l9.419-6.618,9.336,9.336-6.618,9.42a6,6,0,0,0-.269,6.479,50.737,50.737,0,0,1,5.285,12.773,6,6,0,0,0,4.771,4.391l11.348,1.983v13.2l-11.347,1.982a6,6,0,0,0-4.772,4.391,50.762,50.762,0,0,1-5.285,12.776,6,6,0,0,0,.27,6.478l6.617,9.419-9.336,9.336-9.419-6.618a6,6,0,0,0-6.478-.269,50.774,50.774,0,0,1-12.774,5.284,6,6,0,0,0-4.393,4.772L262.6,502.965H249.4l-1.982-11.346a6,6,0,0,0-4.393-4.772,50.772,50.772,0,0,1-12.773-5.285,6,6,0,0,0-6.479.269l-9.419,6.618-9.336-9.336,6.618-9.42a6,6,0,0,0,.269-6.479,50.71,50.71,0,0,1-5.283-12.773,6,6,0,0,0-4.772-4.392L190.5,444.067v-13.2ZM256,475.48a38.015,38.015,0,1,0-26.894-11.121A37.915,37.915,0,0,0,256,475.48Zm-18.409-56.423a26.034,26.034,0,1,1,0,36.817A25.951,25.951,0,0,1,237.591,419.057Zm269.607.855L494.547,417.7a62.661,62.661,0,0,0-3.56-8.607l7.379-10.5a6,6,0,0,0-.667-7.692l-16.467-16.467a6,6,0,0,0-7.692-.667l-10.5,7.38a62.657,62.657,0,0,0-8.608-3.561l-2.209-12.65a6,6,0,0,0-5.911-4.968H423.021a6,6,0,0,0-5.911,4.968L414.9,377.581a62.7,62.7,0,0,0-8.609,3.562l-10.5-7.379a6,6,0,0,0-7.692.667L371.63,390.9a6,6,0,0,0-.667,7.692l7.379,10.5a62.813,62.813,0,0,0-3.561,8.608l-12.649,2.21a6,6,0,0,0-4.967,5.91v23.288a6,6,0,0,0,4.967,5.911l12.65,2.21a62.718,62.718,0,0,0,3.561,8.607l-7.379,10.5a6,6,0,0,0,.666,7.692L388.1,500.5a6,6,0,0,0,7.692.667l10.5-7.379a62.813,62.813,0,0,0,8.608,3.561L417.11,510a6,6,0,0,0,5.911,4.967h23.288a6,6,0,0,0,5.91-4.967l2.21-12.65a62.829,62.829,0,0,0,8.608-3.56l10.5,7.379a6,6,0,0,0,7.692-.667L497.7,484.033a6,6,0,0,0,.667-7.692l-7.379-10.5a62.714,62.714,0,0,0,3.562-8.608L507.2,455.02a6,6,0,0,0,4.967-5.911V425.822A6,6,0,0,0,507.2,419.912Zm-7.033,24.155-11.347,1.982a6,6,0,0,0-4.772,4.392,50.743,50.743,0,0,1-5.285,12.775,6,6,0,0,0,.27,6.478l6.617,9.419-9.335,9.336-9.42-6.618a6,6,0,0,0-6.478-.269,50.774,50.774,0,0,1-12.774,5.284,6,6,0,0,0-4.392,4.772l-1.983,11.347h-13.2l-1.982-11.346a6,6,0,0,0-4.392-4.772,50.789,50.789,0,0,1-12.775-5.286,6,6,0,0,0-6.477.27l-9.42,6.618-9.336-9.336,6.618-9.42a6,6,0,0,0,.27-6.479,50.676,50.676,0,0,1-5.284-12.773,6,6,0,0,0-4.772-4.392l-11.348-1.982v-13.2l11.347-1.983a6,6,0,0,0,4.772-4.392,50.7,50.7,0,0,1,5.285-12.774,6,6,0,0,0-.27-6.478l-6.618-9.419,9.336-9.336,9.419,6.617a6,6,0,0,0,6.479.269,50.75,50.75,0,0,1,12.775-5.285,6,6,0,0,0,4.392-4.771l1.981-11.347h13.2l1.982,11.348a6,6,0,0,0,4.391,4.771,50.749,50.749,0,0,1,12.774,5.286,6,6,0,0,0,6.479-.27l9.42-6.618,9.335,9.336-6.618,9.42a6,6,0,0,0-.269,6.478,50.7,50.7,0,0,1,5.284,12.774,6,6,0,0,0,4.772,4.391l11.348,1.983Zm-65.5-44.635a38.034,38.034,0,1,0,26.893,11.14A37.785,37.785,0,0,0,434.665,399.432Zm18.408,56.442a26.034,26.034,0,1,1,7.625-18.409A25.862,25.862,0,0,1,453.073,455.874ZM4.8,455.02l12.651,2.21a62.64,62.64,0,0,0,3.56,8.607l-7.379,10.5a6,6,0,0,0,.667,7.692L30.768,500.5a6,6,0,0,0,7.691.667l10.5-7.379a62.761,62.761,0,0,0,8.608,3.561L59.78,510a6,6,0,0,0,5.911,4.967H88.979A6,6,0,0,0,94.89,510l2.21-12.65a62.765,62.765,0,0,0,8.607-3.56l10.5,7.379a6,6,0,0,0,7.692-.667l16.468-16.467a6,6,0,0,0,.667-7.692l-7.38-10.5a62.727,62.727,0,0,0,3.562-8.609l12.649-2.209a6,6,0,0,0,4.967-5.911V425.822a6,6,0,0,0-4.967-5.91l-12.65-2.211a62.667,62.667,0,0,0-3.561-8.607l7.379-10.5a6,6,0,0,0-.666-7.692L123.9,374.431a6,6,0,0,0-7.692-.667l-10.5,7.38a62.645,62.645,0,0,0-8.607-3.561l-2.21-12.65a6,6,0,0,0-5.911-4.968H65.691a6,6,0,0,0-5.911,4.968l-2.209,12.649a62.618,62.618,0,0,0-8.609,3.561l-10.5-7.379a6,6,0,0,0-7.692.667L14.3,390.9a6,6,0,0,0-.667,7.692l7.379,10.5a62.818,62.818,0,0,0-3.562,8.608L4.8,419.911a6,6,0,0,0-4.967,5.91v23.288A6,6,0,0,0,4.8,455.02Zm7.033-24.156,11.347-1.983a6,6,0,0,0,4.772-4.392,50.742,50.742,0,0,1,5.285-12.774,6,6,0,0,0-.27-6.478l-6.617-9.419,9.336-9.336,9.418,6.617a6,6,0,0,0,6.479.269,50.75,50.75,0,0,1,12.775-5.285,6,6,0,0,0,4.391-4.771l1.982-11.347h13.2l1.982,11.348a6,6,0,0,0,4.392,4.771,50.727,50.727,0,0,1,12.773,5.286,6,6,0,0,0,6.479-.27l9.42-6.618,9.336,9.336-6.618,9.42a6,6,0,0,0-.27,6.479,50.684,50.684,0,0,1,5.284,12.772,6,6,0,0,0,4.772,4.392l11.348,1.983v13.2l-11.346,1.982a6,6,0,0,0-4.772,4.391,50.765,50.765,0,0,1-5.286,12.776,6,6,0,0,0,.27,6.478l6.617,9.419-9.336,9.336-9.419-6.618a6,6,0,0,0-6.478-.269,50.774,50.774,0,0,1-12.774,5.284,6,6,0,0,0-4.392,4.772l-1.982,11.347h-13.2l-1.982-11.346a6,6,0,0,0-4.392-4.772,50.764,50.764,0,0,1-12.774-5.285,6,6,0,0,0-6.478.269l-9.419,6.618-9.336-9.336,6.618-9.42a6,6,0,0,0,.269-6.479,50.656,50.656,0,0,1-5.284-12.772,6,6,0,0,0-4.772-4.393l-11.348-1.982Zm65.5,44.616a38.015,38.015,0,1,0-26.894-11.121A37.917,37.917,0,0,0,77.335,475.48ZM58.927,419.057a26.033,26.033,0,1,1,0,36.817A25.947,25.947,0,0,1,58.927,419.057Z"/></svg>
