<svg id="Flat_Gradient" height="512" viewBox="0 0 64 64" width="512" xmlns="http://www.w3.org/2000/svg" xmlns:xlink="http://www.w3.org/1999/xlink" data-name="Flat Gradient"><linearGradient id="linear-gradient" gradientUnits="userSpaceOnUse" x1="-372.511" x2="60.501" y1="266.97" y2="266.97"><stop offset="0" stop-color="#9d3adf"/><stop offset=".20605" stop-color="#8542d8"/><stop offset=".63851" stop-color="#4857c6"/><stop offset="1" stop-color="#106ab6"/></linearGradient><path d="m-338.12964-257.54c4.63385-.01343 4.63794 6.94483.00006 6.94-4.67737.00857-4.58728-6.96732-.00006-6.94zm-25.71-9.39v-4.29a7.28006 7.28006 0 0 1 7.28-7.28h30.86a7.29 7.29 0 0 1 7.29 7.29v42.42a7.29 7.29 0 0 1 -7.29 7.29h-30.85c-4.65021-.02209-7.755-4.07727-7.29-8.57h3.43a8.37013 8.37013 0 0 0 8.1546-6.55835 1.49832 1.49832 0 0 0 -1.47366-1.80165 1.46712 1.46712 0 0 0 -1.44946 1.12634 5.35843 5.35843 0 0 1 -5.23151 4.23364l-3.85992.00006c-7.346-.36059-6.975-10.75506.42993-10.72v-9.42h3.43a8.37013 8.37013 0 0 0 8.1546-6.55835 1.49837 1.49837 0 0 0 -1.47436-1.80164 1.46742 1.46742 0 0 0 -1.44928 1.1258 5.36569 5.36569 0 0 1 -5.231 4.23419h-3.62225a5.3685 5.3685 0 1 1 .19229-10.72004zm0 26.14a2.39024 2.39024 0 1 0 0 4.72zm17.09-.10016c.51068-8.835 16.6405-8.84747 17.25006-.06994a1.50013 1.50013 0 0 0 3 .00006c-.17444-4.56653-3.16462-7.44074-6.79-8.72a6.54619 6.54619 0 0 0 1.67-4.34992c-.21948-8.67639-12.82153-8.591-13.02-.00012a6.59642 6.59642 0 0 0 1.67 4.35c-3.51 1.25-6.41 3.96-6.75 8.31994a1.50969 1.50969 0 1 0 2.96989.47zm-17.09-18.31988v-4.72a2.39024 2.39024 0 1 0 -.00002 4.72004zm-8.66036 309.5107v-30.85c.02-4.65 4.08-7.75 8.57-7.29v3.43a8.36085 8.36085 0 0 0 6.56 8.15 1.49364 1.49364 0 0 0 1.8-1.47 1.47045 1.47045 0 0 0 -1.13-1.45 5.3509 5.3509 0 0 1 -4.23-5.23v-3.86c.36-7.35 10.76-6.97 10.72.43h9.42v3.43a8.36086 8.36086 0 0 0 6.56 8.15 1.48967 1.48967 0 0 0 1.8-1.47 1.47045 1.47045 0 0 0 -1.13-1.45 5.36949 5.36949 0 0 1 -4.23-5.23v-3.62a5.36858 5.36858 0 1 1 10.72.19h4.29a7.28084 7.28084 0 0 1 7.28 7.28v30.86a7.28509 7.28509 0 0 1 -7.29 7.29h-42.42a7.28509 7.28509 0 0 1 -7.29-7.29zm46.5-18.8a1.50015 1.50015 0 0 0 .00006-3 1.50015 1.50015 0 0 0 -.00006 3.00001zm0 9a1.50015 1.50015 0 0 0 .00006-3 1.50015 1.50015 0 0 0 -.00006 3.00001zm0 9a1.50015 1.50015 0 0 0 .00006-3 1.50015 1.50015 0 0 0 -.00006 3.00001zm-4.07-37.34a2.39 2.39 0 1 0 -4.72 0zm-7.93 19.34a1.50015 1.50015 0 0 0 .00006-3 1.50015 1.50015 0 0 0 -.00006 3.00001zm0 9a1.50015 1.50015 0 0 0 .00006-3 1.50015 1.50015 0 0 0 -.00006 3.00001zm0 9a1.50015 1.50015 0 0 0 .00006-3 1.50015 1.50015 0 0 0 -.00006 3.00001zm-12-18a1.50015 1.50015 0 0 0 .00006-3 1.50015 1.50015 0 0 0 -.00006 3.00001zm0 9a1.50015 1.50015 0 0 0 .00006-3 1.50015 1.50015 0 0 0 -.00006 3.00001zm0 9a1.50015 1.50015 0 0 0 .00006-3 1.50015 1.50015 0 0 0 -.00006 3.00001zm-3.21-37.34a2.39 2.39 0 1 0 -4.72 0zm-8.79 19.34a1.50015 1.50015 0 0 0 .00006-3 1.50015 1.50015 0 0 0 -.00006 3.00001zm0 9a1.50015 1.50015 0 0 0 .00006-3 1.50015 1.50015 0 0 0 -.00006 3.00001zm0 9a1.50015 1.50015 0 0 0 .00006-3 1.50015 1.50015 0 0 0 -.00006 3.00001zm140.5-301.43066v23.14a5.36034 5.36034 0 0 1 -5.36 5.36h-46.28a5.36034 5.36034 0 0 1 -5.36-5.36v-23.14a5.36387 5.36387 0 0 1 3.86-5.14014c.70727-.432 10.04821-.14062 11-.21985a5.35046 5.35046 0 0 1 4.46 2.39l1.57 2.35a2.34614 2.34614 0 0 0 1.96 1.05h11.3a2.34614 2.34614 0 0 0 1.96-1.05l1.57-2.35a5.3509 5.3509 0 0 1 4.46009-2.39008c.95672.08417 10.34063-.218 10.99993.22009a5.36362 5.36362 0 0 1 3.85998 5.13998zm-21.75 12.97h-13.49994a1.50016 1.50016 0 0 0 -.00006 3h13.5a1.50016 1.50016 0 0 0 0-3zm-20.39-21.33a8.319 8.319 0 0 1 6.96 3.73l1.38 2.06h10.6l1.39-2.07a8.30344 8.30344 0 0 1 6.95-3.72c.94092.05243 10.28565-.13757 11 .13989v-1.41989a5.3743 5.3743 0 0 0 -5.35-5.36h-38.58a5.37445 5.37445 0 0 0 -5.35 5.36v1.42c.69182-.27255 10.03709-.091 11-.14zm32.93-9.64a8.28583 8.28583 0 0 1 1.5.14v-1.42a5.36673 5.36673 0 0 0 -5.36-5.36h-30.86a5.36673 5.36673 0 0 0 -5.36 5.36v1.42a8.11966 8.11966 0 0 1 1.5-.14zm49.79 17.57h1.17l.00006 8.29993a5.98892 5.98892 0 0 0 5.58 5.94006 4.79032 4.79032 0 0 0 4.72 3.56h11.95v4.13h-8.39a5.45845 5.45845 0 0 0 -5.46 5.45v1.98001a1.50439 1.50439 0 0 0 1.5 1.5 1.498 1.498 0 0 0 1.5-1.5v-1.98a2.46252 2.46252 0 0 1 2.46-2.45h8.39v4.42993a1.50016 1.50016 0 0 0 3 .00006v-4.43h8.39a2.46252 2.46252 0 0 1 2.46 2.45v1.97992a1.50015 1.50015 0 0 0 3 .00006v-1.98a5.45845 5.45845 0 0 0 -5.46-5.45h-8.39v-4.13h11.94a4.87888 4.87888 0 0 0 3.59-1.53 5.09238 5.09238 0 0 0 1.17993-2.03 5.98885 5.98885 0 0 0 5.54-5.95v-8.29h1.17a1.498 1.498 0 0 0 1.5-1.5 1.498 1.498 0 0 0 -1.5-1.5h-5.3399a1.50015 1.50015 0 0 0 -.00006 3h1.17v8.29a2.81639 2.81639 0 0 1 -.94 2.16 3.304 3.304 0 0 1 -1.61.75995 4.98091 4.98091 0 0 0 -4.75-3.53h-9.28v-4.12h4.87a5.8383 5.8383 0 0 0 5.84-5.83v-12.36992a11.51447 11.51447 0 0 0 -11.5-11.5h-6.71a11.51447 11.51447 0 0 0 -11.5 11.5v12.37a5.83617 5.83617 0 0 0 5.82997 5.83h4.83v4.12h-9.31a4.79415 4.79415 0 0 0 -4.69006 3.55 2.90711 2.90711 0 0 1 -2.58-2.94007v-8.29h1.16992a1.50013 1.50013 0 0 0 .00006-3h-5.3399a1.50018 1.50018 0 0 0 -.00002 3.00007zm123.21-17.46a4.29016 4.29016 0 0 0 -8.58.00012v8.1399h8.58zm-32.79 37.61v-28.93a6.327 6.327 0 0 1 6.32-6.32h14.89v5.78h-1.39a1.498 1.498 0 0 0 -1.5 1.5 1.498 1.498 0 0 0 1.5 1.5h17.36a1.498 1.498 0 0 0 1.5-1.5 1.498 1.498 0 0 0 -1.5-1.5h-1.39v-5.78h14.89a6.327 6.327 0 0 1 6.32 6.32v28.93a6.33342 6.33342 0 0 1 -6.32 6.32h-44.36a6.33342 6.33342 0 0 1 -6.32-6.32zm32.36-12.93h15.43a1.50018 1.50018 0 0 0 0-3h-15.42995a1.50016 1.50016 0 0 0 -.00005 3zm0 7.64h11.71a1.50015 1.50015 0 0 0 0-3h-11.71a1.50015 1.50015 0 0 0 0 3zm-26.57 3.32a1.51487 1.51487 0 0 0 1.5 1.58 1.49534 1.49534 0 0 0 1.49-1.43c.20209-4.375 4.44452-6.34393 8.27-6.34 3.84 0 8.06 1.98 8.26 6.34a1.49268 1.49268 0 0 0 1.57 1.42 1.49956 1.49956 0 0 0 1.43-1.57c-.22821-4.32654-2.8963-7.0351-6.50019-8.36 2.24683-2.273 1.9646-6.97351-.49981-8.91009a6.34681 6.34681 0 0 0 -10.59 4.75009 6.37918 6.37918 0 0 0 1.57 4.16c-3.46 1.25-6.29 3.98-6.5 8.36zm11.26013-9.28c4.39075.02148 4.389-6.60254-.00012-6.58-4.34341-.03642-4.45394 6.59359.0001 6.58zm-299.05013 195.92v-28.92a6.33558 6.33558 0 0 1 6.32-6.33h44.36a6.33558 6.33558 0 0 1 6.32 6.33v28.92a6.33554 6.33554 0 0 1 -6.32 6.33h-44.36a6.33554 6.33554 0 0 1 -6.32-6.33zm33.32-16.78h15.43a1.50015 1.50015 0 0 0 0-3h-15.42993a1.50015 1.50015 0 0 0 -.00007 3zm0 7.64h11.72a1.50015 1.50015 0 0 0 0-3h-11.71991a1.50015 1.50015 0 0 0 -.00009 3zm-26.57 3.33a1.50893 1.50893 0 0 0 1.5 1.57 1.50431 1.50431 0 0 0 1.5-1.43c.21-4.36 4.43-6.34 8.26-6.34 3.81763.00086 8.06641 1.97882 8.27 6.34a1.50557 1.50557 0 0 0 1.57 1.43 1.51251 1.51251 0 0 0 1.43-1.57c-.21-4.38995-3.05-7.11-6.51013-8.36993a6.33025 6.33025 0 0 0 -4.75987-10.50016 6.24359 6.24359 0 0 0 -6.33 6.34009 6.37863 6.37863 0 0 0 1.57 4.16c-3.45 1.26-6.29 3.98-6.5 8.37zm14.6-12.58a3.33509 3.33509 0 0 0 -6.67.05 3.33552 3.33552 0 0 0 6.67-.05zm24.15-67.57h-34a4.50681 4.50681 0 0 1 -4.5-4.5v-20.6a6.33542 6.33542 0 0 0 1.16.1h40.68a6.33542 6.33542 0 0 0 1.16-.1v20.6a4.50681 4.50681 0 0 1 -4.5 4.5zm-9-10h-15.99994a1.50015 1.50015 0 0 0 -.00006 3h16a1.50015 1.50015 0 0 0 0-3zm0-8h-15.99994a1.50015 1.50015 0 0 0 -.00006 3h16a1.50015 1.50015 0 0 0 0-3zm16.75-15.38-2.8-14a4.50632 4.50632 0 0 0 -4.41-3.62h-6.18c.19677 1.97223 1.02911 10.32532 1.24 12.46a1.49764 1.49764 0 0 1 -2.98.3c-.21949-2.18488-1.07874-10.7395-1.28-12.76h-6.84v12.61a1.498 1.498 0 0 1 -1.5 1.5 1.498 1.498 0 0 1 -1.5-1.5v-12.61h-6.84c-.19415 1.968-1.0664 10.62048-1.28 12.76a1.49766 1.49766 0 0 1 -2.98-.30011l.94-9.4599.3-3h-6.18a4.50632 4.50632 0 0 0 -4.41 3.62l-2.8 14a4.44949 4.44949 0 0 0 .93 3.73 4.51547 4.51547 0 0 0 3.48 1.65h40.68a4.52811 4.52811 0 0 0 4.41-5.37999zm-40.75 36.38a1.50016 1.50016 0 0 0 .00006 3h7.99994a1.50016 1.50016 0 0 0 0-3zm24 0a1.50016 1.50016 0 0 0 .00006 3h7.99994a1.50016 1.50016 0 0 0 0-3zm106.74-51h-35.25a4.73294 4.73294 0 0 0 -4.73 4.73 4.73294 4.73294 0 0 0 4.73 4.73h35.25a1.498 1.498 0 0 1 1.5 1.5v35.31a7.74176 7.74176 0 0 1 -7.73 7.73h-29.02a7.74176 7.74176 0 0 1 -7.73-7.73v-41.54a7.74171 7.74171 0 0 1 7.73-7.73h35.24994a1.50018 1.50018 0 0 1 .00006 3zm-13.47 27h-14.54a1.50015 1.50015 0 0 0 -.00006 3h14.54a1.50015 1.50015 0 0 0 .00006-3zm-20.19-6.73a1.498 1.498 0 0 0 1.5 1.5h22.84a1.50016 1.50016 0 0 0 0-3h-22.84a1.498 1.498 0 0 0 -1.5 1.5zm-.55268-17.039a1.50016 1.50016 0 0 0 .00006 3h31.15424a1.49977 1.49977 0 0 0 1.5-1.5 1.49976 1.49976 0 0 0 -1.5-1.5zm128.47268 7.269h-42a7.50272 7.50272 0 0 0 -7.5 7.5v3.43a.66.66 0 0 0 .01.14 7.44635 7.44635 0 0 0 2.99 5.85 7.40962 7.40962 0 0 0 4.5 1.51h6v-9.22a1.50016 1.50016 0 0 1 3 .00006v9.22h24v-9.22a1.50019 1.50019 0 0 1 3 .00006v9.22h6a7.49987 7.49987 0 0 0 7.49-7.36.66.66 0 0 0 .01-.14v-3.43a7.50272 7.50272 0 0 0 -7.5-7.50012zm-42.21 41.57h6.21v-20.14h-6a10.34873 10.34873 0 0 1 -6.32-2.12 10.62042 10.62042 0 0 1 -1.18-1.03v16.01a7.29581 7.29581 0 0 0 7.29 7.28zm9.21 0h24v-20.14h-24zm27-20.14v20.14h6.21a7.29581 7.29581 0 0 0 7.29-7.28v-16.02a10.42577 10.42577 0 0 1 -7.5 3.16zm-10.66-33h-8.68a8.74476 8.74476 0 0 0 -8.73 8.57h3.01a5.72116 5.72116 0 0 1 5.72-5.57h8.68a5.72116 5.72116 0 0 1 5.72 5.57h3.01a8.74476 8.74476 0 0 0 -8.73-8.57zm96.16 40.07h-13v15h13zm22 13.5v-42a3.50386 3.50386 0 0 0 -3.5-3.5h-4.5v45.5a4.37931 4.37931 0 0 1 -.26 1.5h6.76a1.498 1.498 0 0 0 1.5-1.5zm-55.5 1.5h6.76a4.37931 4.37931 0 0 1 -.26-1.5v-45.5h-4.5a3.50386 3.50386 0 0 0 -3.5 3.5v42a1.498 1.498 0 0 0 1.5 1.5zm44.5-53.5v52a1.498 1.498 0 0 1 -1.5 1.5h-6.5v-16.5a1.498 1.498 0 0 0 -1.5-1.5h-16a1.498 1.498 0 0 0 -1.5 1.5v16.5h-6.5a1.498 1.498 0 0 1 -1.5-1.5v-52a3.50386 3.50386 0 0 1 3.5-3.5h28a3.50386 3.50386 0 0 1 3.5 3.5zm-19 16a1.498 1.498 0 0 0 -1.5-1.5 1.498 1.498 0 0 0 -1.5 1.5v3a1.498 1.498 0 0 1 -1.5 1.5h-3a1.498 1.498 0 0 0 -1.5 1.5 1.498 1.498 0 0 0 1.5 1.5h3a4.50681 4.50681 0 0 0 4.5-4.5zm0-12a1.498 1.498 0 0 0 -1.5-1.5 1.498 1.498 0 0 0 -1.5 1.5v3a1.498 1.498 0 0 1 -1.5 1.5h-3a1.498 1.498 0 0 0 -1.5 1.5 1.498 1.498 0 0 0 1.5 1.5h3a4.50681 4.50681 0 0 0 4.5-4.5zm12 12a1.498 1.498 0 0 0 -1.5-1.5 1.498 1.498 0 0 0 -1.5 1.5v3a1.498 1.498 0 0 1 -1.5 1.5h-3a1.498 1.498 0 0 0 -1.5 1.5 1.498 1.498 0 0 0 1.5 1.5h3a4.50681 4.50681 0 0 0 4.5-4.5zm0-12a1.498 1.498 0 0 0 -1.5-1.5 1.498 1.498 0 0 0 -1.5 1.5v3a1.498 1.498 0 0 1 -1.5 1.5h-3a1.498 1.498 0 0 0 -1.5 1.5 1.498 1.498 0 0 0 1.5 1.5h3a4.50681 4.50681 0 0 0 4.5-4.5zm62.78937 38.5a5.50972 5.50972 0 0 0 -5.5 5.5v2a3.50386 3.50386 0 0 0 3.5 3.5h20a3.50386 3.50386 0 0 0 3.5-3.5v-2a5.50968 5.50968 0 0 0 -5.5-5.5zm33.77-34.7a8.09954 8.09954 0 0 1 3.08-.25 15.362 15.362 0 0 0 -3.89-6.51c-9.57642-9.73651-26.55206-2.70465-26.4599 10.96026l-.0001 27.49974h3v-27.5c.24084-13.99536 19.38385-17.2887 24.27002-4.2zm-6.18994 21.7 16.84.00006a2.51675 2.51675 0 0 0 2.26-3.57l-2.29-4.85a4.4985 4.4985 0 0 0 -2.89-2.42c-.44055-.301-9.10834-.11163-9.83-.16a4.49593 4.49593 0 0 0 -4.06 2.58l-2.29 4.85a2.50724 2.50724 0 0 0 2.26002 3.56988zm6.85992-18.77a5.49261 5.49261 0 0 0 -3.92 4.86c.4104-.18781 9.11578-.04938 9.8-.09a7.371 7.371 0 0 1 1.16.09 5.508 5.508 0 0 0 -4.03-4.89 5.40906 5.40906 0 0 0 -3.00998.03zm-279.10935 130.16a5.08359 5.08359 0 0 1 -1.18.13h-30.88a5.52084 5.52084 0 0 1 -5.5-5.5v-39.52a5.50972 5.50972 0 0 1 5.5-5.5h30.88a5.50972 5.50972 0 0 1 5.5 5.5v39.52a5.5115 5.5115 0 0 1 -4.32 5.37zm-2.16-18.89a4.50677 4.50677 0 0 0 -4.5-4.5h-19.92a4.50677 4.50677 0 0 0 -4.5 4.5v6.96a4.50677 4.50677 0 0 0 4.5 4.5h19.92a4.50677 4.50677 0 0 0 4.5-4.5zm0-19.44a4.50677 4.50677 0 0 0 -4.5-4.5h-19.92a4.50677 4.50677 0 0 0 -4.5 4.5v6.96a4.50677 4.50677 0 0 0 4.5 4.5h19.92a4.50677 4.50677 0 0 0 4.5-4.5zm-3 19.44v6.96a1.498 1.498 0 0 1 -1.5 1.5h-19.92a1.498 1.498 0 0 1 -1.5-1.5v-6.96a1.498 1.498 0 0 1 1.5-1.5h19.92a1.498 1.498 0 0 1 1.5 1.5zm-11.46 1.98a1.50015 1.50015 0 0 0 -.00006 3 1.50015 1.50015 0 0 0 .00012-3zm11.46-21.42v6.96a1.498 1.498 0 0 1 -1.5 1.5h-19.92a1.498 1.498 0 0 1 -1.5-1.5v-6.96a1.498 1.498 0 0 1 1.5-1.5h19.92a1.498 1.498 0 0 1 1.5 1.5zm-11.46 1.98a1.50015 1.50015 0 0 0 -.00006 3 1.50015 1.50015 0 0 0 .00012-3zm-15.44 39.48a8.83711 8.83711 0 0 1 -1.17-.08 3.65253 3.65253 0 0 0 3.65 3.56h25.92a3.65253 3.65253 0 0 0 3.65-3.56 8.72046 8.72046 0 0 1 -1.17.08zm90.69-45.81h10.5v-6.21a1.498 1.498 0 0 1 1.5-1.5 1.498 1.498 0 0 1 1.5 1.5v6.24a5.36022 5.36022 0 0 1 4.82 5.33l-.00006 3.85992a13.09946 13.09946 0 0 1 -13.06994 13.07008 13.09942 13.09942 0 0 1 -13.07-13.07v-3.86a5.36022 5.36022 0 0 1 4.82-5.33v-6.24a1.498 1.498 0 0 1 1.5-1.5 1.498 1.498 0 0 1 1.5 1.5zm3.75 13.08a1.50438 1.50438 0 0 0 1.5 1.5 1.50438 1.50438 0 0 0 1.5-1.5v-3.85993a1.50015 1.50015 0 0 0 -3-.00006zm41.57 7.71v-9.64a11.15812 11.15812 0 0 0 -11.14-11.15 11.15812 11.15812 0 0 0 -11.14 11.15v27a8.15573 8.15573 0 0 1 -8.15 8.14 8.14721 8.14721 0 0 1 -8.14-8.14v-12.94a14.31018 14.31018 0 0 1 -3 0v12.94a11.156 11.156 0 0 0 11.14 11.14 11.1581 11.1581 0 0 0 11.15-11.14v-27c.40533-10.78772 15.86853-10.80207 16.28.00012v9.63988a1.50016 1.50016 0 0 0 3-.00006zm86.53 12.05005v-2.84a3.50382 3.50382 0 0 0 -3.5-3.5h-30.2a3.50382 3.50382 0 0 0 -3.5 3.5v2.84a3.50382 3.50382 0 0 0 3.5 3.5h30.2a3.50382 3.50382 0 0 0 3.5-3.5zm-27.59 16.45h17.98a4.08756 4.08756 0 0 0 3.99-3.27l1.33-6.68h-28.62l1.33 6.68a4.08756 4.08756 0 0 0 3.99 3.27001zm22.49-50.5v3.5h-3.45a10.07811 10.07811 0 0 0 -10.05-10 10.06343 10.06343 0 0 0 -10.05 10.05v21.16h20.1v-9.21l-2.04994-.00005a7.58567 7.58567 0 0 1 -7.27814-5.66455 1.494 1.494 0 0 1 1.47394-1.83539 1.639 1.639 0 0 1 1.5741 1.52 4.51867 4.51867 0 0 0 4.23 2.98h6a8.5 8.5 0 0 0 8.5-8.5v-4c-.18941-5.95093-8.81557-5.93872-8.99996 0zm-37 10v4a8.53554 8.53554 0 0 0 9 8.5 1.45 1.45 0 0 0 1.45-1.45v-6.1a1.45 1.45 0 0 0 -1.45-1.45v-3.29724a4.63853 4.63853 0 0 0 -4.04791-4.68048 4.5063 4.5063 0 0 0 -4.95209 4.47773zm145.5-9.00005v42a7.50272 7.50272 0 0 1 -7.5 7.5h-42a7.50272 7.50272 0 0 1 -7.5-7.5v-42a7.50272 7.50272 0 0 1 7.5-7.5h42a7.50272 7.50272 0 0 1 7.5 7.5zm-44.49994 35.5a1.50015 1.50015 0 0 0 -.00006 3 1.50015 1.50015 0 0 0 .00006-3zm0-8a1.50015 1.50015 0 0 0 -.00006 3 1.50015 1.50015 0 0 0 .00006-3zm0-8a1.50015 1.50015 0 0 0 -.00006 3 1.50015 1.50015 0 0 0 .00006-3zm8 16a1.50015 1.50015 0 0 0 -.00006 3 1.50015 1.50015 0 0 0 .00006-3zm0-8a1.50015 1.50015 0 0 0 -.00006 3 1.50015 1.50015 0 0 0 .00006-3zm0-8a1.50015 1.50015 0 0 0 -.00006 3 1.50015 1.50015 0 0 0 .00006-3zm8 16a1.50015 1.50015 0 0 0 -.00006 3 1.50015 1.50015 0 0 0 .00006-3zm0-8a1.50015 1.50015 0 0 0 -.00006 3 1.50015 1.50015 0 0 0 .00006-3zm0-8a1.50015 1.50015 0 0 0 -.00006 3 1.50015 1.50015 0 0 0 .00006-3zm19.49994 4.5a4.50677 4.50677 0 0 0 -4.5-4.5h-4a4.50677 4.50677 0 0 0 -4.5 4.5v9.88a4.5068 4.5068 0 0 0 4.5 4.5h4a4.5068 4.5068 0 0 0 4.5-4.5zm0-18a4.50677 4.50677 0 0 0 -4.5-4.5h-30a4.50677 4.50677 0 0 0 -4.5 4.5v4a4.50681 4.50681 0 0 0 4.5 4.5h30a4.50681 4.50681 0 0 0 4.5-4.5zm-4.5-1.5h-30a1.498 1.498 0 0 0 -1.5 1.5v4a1.498 1.498 0 0 0 1.5 1.5h30a1.498 1.498 0 0 0 1.5-1.5v-4a1.498 1.498 0 0 0 -1.5-1.5zm0 18h-4a1.498 1.498 0 0 0 -1.5 1.5v9.88a1.50438 1.50438 0 0 0 1.5 1.5h4a1.50438 1.50438 0 0 0 1.5-1.5v-9.88a1.498 1.498 0 0 0 -1.5-1.5zm-268.5 81.64v21.72a5.50968 5.50968 0 0 1 -5.5 5.5h-46a5.50968 5.50968 0 0 1 -5.5-5.5v-21.72a5.50968 5.50968 0 0 1 5.5-5.5h46a5.50968 5.50968 0 0 1 5.5 5.5zm-41.41 18.95a1.498 1.498 0 0 0 -1.5-1.5.57841.57841 0 0 1 -.58-.57v-1.38a2.13173 2.13173 0 0 0 -2.13-2.13 1.77547 1.77547 0 0 1 -1.77-1.78v-1.46a1.77542 1.77542 0 0 1 1.77-1.78 2.13177 2.13177 0 0 0 2.13-2.13v-1.38a.57839.57839 0 0 1 .58-.57 1.50014 1.50014 0 0 0 .00012-3 3.6614 3.6614 0 0 0 -3.58012 4.16 4.7789 4.7789 0 0 0 -3.9 4.7v1.46a4.779 4.779 0 0 0 3.9 4.7v.59a3.57425 3.57425 0 0 0 3.58 3.57 1.498 1.498 0 0 0 1.5-1.5zm22.91-8.08994c-.55969-13.2641-19.43829-13.268-20-.00006a10.01648 10.01648 0 0 0 10 10 10.01647 10.01647 0 0 0 10-9.99994zm11.89-.7301a4.7789 4.7789 0 0 0 -3.9-4.7v-.59a3.57427 3.57427 0 0 0 -3.58-3.57 1.50016 1.50016 0 0 0 -.00006 3 .57841.57841 0 0 1 .58.57v1.38a2.13177 2.13177 0 0 0 2.13 2.13 1.77542 1.77542 0 0 1 1.77 1.78v1.46a1.77547 1.77547 0 0 1 -1.77 1.78 2.13173 2.13173 0 0 0 -2.13 2.13v1.38a.57839.57839 0 0 1 -.58.57 1.50014 1.50014 0 0 0 -.00006 3 3.57425 3.57425 0 0 0 3.58-3.57v-.59a4.779 4.779 0 0 0 3.9-4.7zm-21.88988-6.26996c-9.26233.327-9.26471 13.67151-.00012 14a7.0077 7.0077 0 0 0 7-7 7.00768 7.00768 0 0 0 -6.99988-7zm117.49988 30a5.50972 5.50972 0 0 1 -5.5 5.5h-36a5.50972 5.50972 0 0 1 -5.5-5.5v-46a5.50968 5.50968 0 0 1 5.5-5.5h36a5.50968 5.50968 0 0 1 5.5 5.5zm-7.85-27.72-8.26-3.94-6.3-6.64a1.54513 1.54513 0 0 0 -2.18006 0l-6.3 6.64-8.26 3.94a1.51524 1.51524 0 0 0 -.67 2.07l4.37 8.04 1.19 9.06989a1.50969 1.50969 0 0 0 1.76006 1.28011l9-1.67 9 1.67a1.44954 1.44954 0 0 0 1.15-.26 1.49884 1.49884 0 0 0 .61-1.02l1.19-9.07 4.37-8.04a1.51516 1.51516 0 0 0 -.67-2.07zm-9.81-1.35 7.09 3.38-3.75 6.89a1.58924 1.58924 0 0 0 -.17.52l-1.02 7.78-7.72-1.43a2.44984 2.44984 0 0 0 -.27-.02 2.44984 2.44984 0 0 0 -.27.02l-7.72 1.43-1.02-7.78a1.58924 1.58924 0 0 0 -.17-.52l-3.75-6.89 7.09-3.38a1.70933 1.70933 0 0 0 .44-.32l5.4-5.7 5.4 5.7a1.70933 1.70933 0 0 0 .44.32zm-5.83991 1.57c-7.26617.23364-7.26788 10.7652-.00012 11 7.26608-.2337 7.26779-10.76526.00015-11zm-2.50009 5.49994a2.50015 2.50015 0 0 0 5 .00006 2.50015 2.50015 0 0 0 -5-.00006zm83.37823 26.23669a15.279 15.279 0 0 0 10.87769-4.49847l27.51056-27.51056a11.07466 11.07466 0 0 0 0-15.64355 11.11144 11.11144 0 0 0 -15.64264.00012l-27.51337 27.51324c-6.08746 6.48261 3.03089 15.62982 9.53046 9.5293l27.51227-27.51325a2.41838 2.41838 0 0 0 0-3.41619 2.4717 2.4717 0 0 0 -3.41614 0l-27.51245 27.51336a1.90772 1.90772 0 0 1 -2.69794-2.69714l27.51333-27.51331c5.99408-5.6286 14.45263 2.79517 8.81024 8.8114l-27.51046 27.51042a10.56724 10.56724 0 0 1 -14.9245-.001 10.56609 10.56609 0 0 1 0-14.92358l27.51807-27.51803a2.41588 2.41588 0 0 0 -3.41626-3.41607l-27.518 27.518c-9.64435 9.51941-2.68372 26.37842 10.87914 26.25531zm91.83177-48.02663h30.58a5.50972 5.50972 0 0 1 5.5 5.5v38.29a5.50972 5.50972 0 0 1 -5.5 5.5h-30.58a5.50972 5.50972 0 0 1 -5.5-5.5v-38.29a5.50972 5.50972 0 0 1 5.5-5.5zm3.18 24.65a12.11 12.11 0 0 0 24.22.00006c-.65913-16.0616-23.55843-16.0663-24.22-.00006zm17.82-32.36h-11.42a3.50386 3.50386 0 0 0 -3.5 3.5v1.21h18.42v-1.21a3.50386 3.50386 0 0 0 -3.5-3.5zm-14.82 32.36a9.11 9.11 0 0 1 18.22-.00013c-.48988 12.06524-17.72829 12.06866-18.22.00013zm4.51 1.06 2.36 2.35a1.46676 1.46676 0 0 0 1.06.44 1.45061 1.45061 0 0 0 1.06-.44l4.72-4.71a1.49924 1.49924 0 0 0 -2.12-2.12l-3.66 3.65-1.29992-1.29a1.49924 1.49924 0 0 0 -2.12008 2.12zm-399.9 89.08a28.53862 28.53862 0 0 1 28.5-28.5 28.53866 28.53866 0 0 1 28.50006 28.49976c-1.56706 37.79705-55.42737 37.8081-57.00006.00024zm12.5 1.5h10.71a5.52209 5.52209 0 0 0 5.29 4 5.50565 5.50565 0 0 0 1.5-10.79v-14.7099a1.50016 1.50016 0 0 0 -3-.00006v14.71a5.51622 5.51622 0 0 0 -3.79 3.79h-10.71a1.50015 1.50015 0 0 0 0 2.99996zm18.5-1.5a2.49007 2.49007 0 0 0 -4.98-.00012 2.49006 2.49006 0 0 0 4.98.00012zm104.1-6.29v2.94h5.15a3.7258 3.7258 0 0 1 3.72 3.72v6.66a5.9471 5.9471 0 0 1 -5.93994 5.94h-2.93006v.37a8.51206 8.51206 0 0 1 -8.5 8.5h-12.63a8.5057 8.5057 0 0 1 -8.5-8.5v-19.63a1.498 1.498 0 0 1 1.5-1.5h26.63a1.50443 1.50443 0 0 1 1.5 1.5zm0 5.94v10.32h2.93a2.94473 2.94473 0 0 0 2.93994-2.94v-6.66a.717.717 0 0 0 -.72-.72zm-5.1991-24.82086h-19.60645a1.83078 1.83078 0 0 1 -1.82863-1.82914 1.50008 1.50008 0 0 0 -1.5-1.5 1.50008 1.50008 0 0 0 -1.5 1.5 4.83407 4.83407 0 0 0 4.82861 4.8291h19.60645a2.19843 2.19843 0 0 1 -.00006 4.39649h-6.29145a4.83407 4.83407 0 0 0 -4.82861 4.8291 1.50016 1.50016 0 0 0 3-.00006 1.83077 1.83077 0 0 1 1.82861-1.829h6.29151a5.20218 5.20218 0 0 0 5.19482-5.20215 5.20052 5.20052 0 0 0 -5.19482-5.19438zm-27.3735 53.67086h35.50678a1.50017 1.50017 0 0 0 0-3h-35.50684a1.50017 1.50017 0 0 0 .00006 3zm136.4726-39.5v-5a3.50386 3.50386 0 0 0 -3.5-3.5h-38a3.50386 3.50386 0 0 0 -3.5 3.5v5a3.50386 3.50386 0 0 0 3.5 3.5h38a3.50386 3.50386 0 0 0 3.5-3.5zm-12.11-17.5h-20.78a4.51123 4.51123 0 0 0 -3.75 2l-2.66 4h33.6l-2.66-4a4.51123 4.51123 0 0 0 -3.75-2zm7.63 24-4.04 28.28a5.536 5.536 0 0 1 -5.45 4.72h-17.06a5.536 5.536 0 0 1 -5.45-4.72l-4.04-28.28zm-11.52 11.5a6.51263 6.51263 0 0 0 -6.5-6.5 6.5126 6.5126 0 0 0 -6.5 6.49988c.30963 8.59955 12.689 8.60174 13 .00012zm-6.50012-3.5a3.50022 3.50022 0 0 0 .00012 7 3.50022 3.50022 0 0 0 -.00012-7zm65.50012-3.5a28.53862 28.53862 0 0 1 28.5-28.5 28.53866 28.53866 0 0 1 28.50006 28.49976c-1.56706 37.79705-55.42737 37.8081-57.00006.00024zm16.31 14.13 18.36-7.1a1.4608 1.4608 0 0 0 .86-.86l7.1-18.36a1.51289 1.51289 0 0 0 -1.94-1.94l-18.36 7.1a1.46112 1.46112 0 0 0 -.86005.86l-7.09991 18.36a1.51277 1.51277 0 0 0 1.93996 1.94zm16.66-9.66-14.58 5.64 5.64-14.58 14.58-5.64zm-4.46991-5.97a1.50015 1.50015 0 0 0 -.00009 3 1.50015 1.50015 0 0 0 .00006-3zm118.54991-21.44891a189.44006 189.44006 0 0 1 -49.09992.00006 3.51042 3.51042 0 0 0 -3.95008 3.46991v30.12994a3.5349 3.5349 0 0 0 3.97 3.47009 188.21118 188.21118 0 0 1 23.03-1.58v6.65a81.8696 81.8696 0 0 0 -10.28.81 1.49977 1.49977 0 1 0 .42 2.97 80.068 80.068 0 0 1 22.72 0 1.49977 1.49977 0 1 0 .42-2.97 81.8696 81.8696 0 0 0 -10.28-.81v-6.65a199.90692 199.90692 0 0 1 23.51 1.60992 3.51769 3.51769 0 0 0 3.49-3.5v-30.13a3.50826 3.50826 0 0 0 -3.95-3.46992zm-385.42 143.94891v-5.3h-30.26v5.29993a1.50015 1.50015 0 0 1 -3 .00006v-5.3h-2.82a5.50975 5.50975 0 0 1 -5.5-5.5v-39.19999a5.50972 5.50972 0 0 1 5.5-5.5h41.9a5.50972 5.50972 0 0 1 5.5 5.5v39.2a5.50975 5.50975 0 0 1 -5.5 5.5h-2.82v5.29993a1.50018 1.50018 0 0 1 -3 .00007zm-34.82-33.77a1.498 1.498 0 0 0 1.5 1.5h36.38a1.498 1.498 0 0 0 1.5-1.5v-13.47a1.498 1.498 0 0 0 -1.5-1.5h-36.38a1.498 1.498 0 0 0 -1.5 1.5zm37.88 21.71a1.498 1.498 0 0 0 1.5-1.5v-13.47a1.498 1.498 0 0 0 -1.5-1.5h-36.38a1.498 1.498 0 0 0 -1.5 1.5v13.47a1.498 1.498 0 0 0 1.5 1.5zm-34.88-13.47h33.38v10.47h-33.38zm16.69 6.74a1.50016 1.50016 0 0 0 .00006-3 1.50015 1.50015 0 0 0 -.00006 3zm16.69-16.48h-33.38v-10.47h33.38zm-16.68994-6.74a1.50015 1.50015 0 0 0 -.00006 3 1.50016 1.50016 0 0 0 .00006-3zm114.94214-8.90124 4.69 4.7a9.77756 9.77756 0 0 1 0 13.83l-19.37005 19.37995a9.82552 9.82552 0 0 1 -13.84.00006l-4.69-4.7a9.78136 9.78136 0 0 1 -2.87-6.92 9.747 9.747 0 0 1 2.87-6.91l19.37-19.38a9.80786 9.80786 0 0 1 13.84005-.00002zm-17.83 20.42-6.12 6.10992a1.49924 1.49924 0 0 0 2.12 2.12006l6.12-6.11a1.49931 1.49931 0 0 0 -2.12002-2.11995zm11.15-11.16-5.85 5.85-2.4-2.4a1.509 1.509 0 0 0 -2.12 0 1.50893 1.50893 0 0 0 0 2.12l3.46 3.46 3.45 3.44989a1.49917 1.49917 0 0 0 2.12006-2.11993l-2.38995-2.38995 5.85-5.85a1.49922 1.49922 0 0 0 -2.1201-2.12002zm-41.85 36.12 12.09 5.18a1.49964 1.49964 0 0 0 1.65-.32l7.71-7.71a12.53838 12.53838 0 0 1 -3.56-2.5c-1.95282-2.07873-6.11744-5.56958-7.19-8.24993l-11.17 11.15991a1.51159 1.51159 0 0 0 .46997 2.44001zm124.9578-49.96876h-6.7a11.51447 11.51447 0 0 0 -11.5 11.5v3.5h29.7v-3.5a11.51443 11.51443 0 0 0 -11.5-11.5zm-30.37 21h1.5v34.5a1.50013 1.50013 0 0 0 3-.00006v-10.49994h21v3.07h-8.39a5.45844 5.45844 0 0 0 -5.46 5.45v1.98a1.50015 1.50015 0 0 0 3-.00006v-1.98a2.46251 2.46251 0 0 1 2.46-2.45h8.39v4.43006a1.50015 1.50015 0 0 0 3-.00006v-4.42994h8.39a2.46251 2.46251 0 0 1 2.46 2.45v1.98a1.498 1.498 0 0 0 1.5 1.5 1.50443 1.50443 0 0 0 1.5-1.5v-1.98a5.45844 5.45844 0 0 0 -5.46-5.45h-8.39v-3.07h21v10.5a1.50018 1.50018 0 0 0 3-.00006v-34.49994h1.5a1.5002 1.5002 0 0 0 0-3h-54a1.498 1.498 0 0 0 -1.5 1.5 1.498 1.498 0 0 0 1.5 1.5zm138.7 9.9v-4.8a4.50681 4.50681 0 0 0 -4.5-4.5h-11.7v-4.8h-3v4.8h-14.7a1.50117 1.50117 0 0 0 -.83.25l-5.61 3.74a3.49879 3.49879 0 0 0 -1.55 2.91 3.49868 3.49868 0 0 0 1.55 2.91l5.61 3.74a1.50069 1.50069 0 0 0 .83.25h29.4a4.50677 4.50677 0 0 0 4.5-4.5zm4.94-26.91-5.61-3.74a1.50077 1.50077 0 0 0 -.83-.25h-29.4a4.50677 4.50677 0 0 0 -4.5 4.5v4.8a4.50681 4.50681 0 0 0 4.5 4.5h29.4a1.50125 1.50125 0 0 0 .83-.25l5.61-3.74a3.53052 3.53052 0 0 0 0-5.82zm-24.14 34.41v15.6h-9.3a1.498 1.498 0 0 0 -1.5 1.5 1.498 1.498 0 0 0 1.5 1.5h21.6a1.50015 1.50015 0 0 0 0-3h-9.3v-15.6zm112.43-32.9v38.29a5.50968 5.50968 0 0 1 -5.5 5.5h-30.57a5.50972 5.50972 0 0 1 -5.5-5.5v-38.29a5.50972 5.50972 0 0 1 5.5-5.5h30.57a5.50968 5.50968 0 0 1 5.5 5.5zm-13.07 29.21h-15.42995a1.50016 1.50016 0 0 0 -.00006 3h15.43001a1.50016 1.50016 0 0 0 0-3zm3.85-11.57h-23.13993a1.50016 1.50016 0 0 0 -.00006 3h23.13999a1.50016 1.50016 0 0 0 0-3zm0-11.57h-23.13993a1.50016 1.50016 0 0 0 -.00006 3h23.13999a1.50016 1.50016 0 0 0 0-3zm-24.59 40.72a5.34526 5.34526 0 0 0 5.31 4.71h30.86a5.35822 5.35822 0 0 0 5.35-5.36v-38.57a5.35266 5.35266 0 0 0 -4.71-5.31v36.03a8.50566 8.50566 0 0 1 -8.5 8.5zm-385.22 41.65h52.2a1.5002 1.5002 0 0 1 0 3h-2.02v28.42h-48.16v-28.42h-2.02a1.50443 1.50443 0 0 1 -1.5-1.5 1.5044 1.5044 0 0 1 1.5-1.5zm20.08 10.53a3.50386 3.50386 0 0 0 3.5 3.5h5.04a3.50386 3.50386 0 0 0 3.5-3.5v-2.01a1.50015 1.50015 0 0 0 -3-.00006v2.01a.50146.50146 0 0 1 -.5.5h-5.04a.50146.50146 0 0 1 -.5-.5v-2.01a1.50015 1.50015 0 0 0 -3-.00006zm28.6 46.47h-21.08v-22.58h22.58v21.08a1.498 1.498 0 0 1 -1.5 1.5zm-16.37-14.29a1.50015 1.50015 0 0 0 -.00006 3 1.50015 1.50015 0 0 0 .00006-3zm-30.29 12.79v-21.08h22.58v22.58h-21.08a1.498 1.498 0 0 1 -1.5-1.5zm17.86994-9.79a1.50015 1.50015 0 0 0 .00006-3 1.50015 1.50015 0 0 0 -.00008 3zm128.71006-31.21v28a7.50276 7.50276 0 0 1 -7.5 7.5h-42a7.50276 7.50276 0 0 1 -7.5-7.5v-28a7.50272 7.50272 0 0 1 7.5-7.5h42a7.50272 7.50272 0 0 1 7.5 7.5zm-9.17.66-12.42 6.21a15.7101 15.7101 0 0 1 -13.81994 0l-12.42006-6.21a1.49829 1.49829 0 0 0 -2.01.67 1.49829 1.49829 0 0 0 .67005 2.01l12.42 6.21a18.46805 18.46805 0 0 0 8.25 1.95 18.46805 18.46805 0 0 0 8.25-1.95l12.42-6.21a1.49832 1.49832 0 0 0 -1.34005-2.68zm86.34.57v-4.06a11.683 11.683 0 0 0 -11.67-11.67 11.683 11.683 0 0 0 -11.67 11.67v4.06c.63832 15.47813 22.70027 15.48057 23.34 0zm16.27 31.94a20.20352 20.20352 0 0 0 -15.88-19.66 5.34257 5.34257 0 0 0 -6.12 3.26 6.37079 6.37079 0 0 1 -5.94 4.13 6.37079 6.37079 0 0 1 -5.94-4.13 5.34239 5.34239 0 0 0 -6.11988-3.25989 20.21349 20.21349 0 0 0 -15.88012 19.70989 9.33817 9.33817 0 0 0 9.34 9.28l37.19989-.00012a9.37632 9.37632 0 0 0 9.34011-9.32988zm75.72119-46.89624a3.56913 3.56913 0 0 0 -4.95 0l-25.01 25.01a3.47172 3.47172 0 0 0 -1.02 2.47 3.5225 3.5225 0 0 0 1.16 2.62l2.12 2.12006c1.51709 1.53717 14.66907 14.65454 15.79 15.79a3.51272 3.51272 0 0 0 4.95-.00007l25.01-25.01a3.49461 3.49461 0 0 0 0-4.95zm-25.66 55.13a4.49594 4.49594 0 0 0 6.36 0c1.07757-1.07886 4.02185-4.01636 5.14-5.13l-2.12-2.12c-1.551-1.58594-14.46113-14.44476-15.66-15.66l-5.14 5.13a4.51273 4.51273 0 0 0 .00006 6.36005zm32-1.69h-19.7l-3.01 3h22.71a1.50015 1.50015 0 0 0 .00003-3.00001zm49.49881 1.28624v-27a28.53862 28.53862 0 0 1 28.5-28.5c37.80359 1.56873 37.80206 55.43744 0 57h-27a1.498 1.498 0 0 1 -1.5-1.5zm28.50006-11.62a1.50015 1.50015 0 0 0 -.00006 3 1.50015 1.50015 0 0 0 .00006-3zm-11.50006-23.75a1.5 1.5 0 0 0 3 0 8.43738 8.43738 0 0 1 2.60992-6.12982c5.10437-5.10914 14.1532-1.34894 14.38007 5.78979a8.493 8.493 0 0 1 -6.07 8.48 5.61941 5.61941 0 0 0 -3.92 5.4v6.46a1.50018 1.50018 0 0 0 3 .00006v-6.46a2.59652 2.59652 0 0 1 1.78-2.52 11.49561 11.49561 0 0 0 8.2099-11.46979c-.31519-9.79541-12.47119-14.72644-19.4599-7.84021a11.38634 11.38634 0 0 0 -3.52999 8.28997zm-387.5 125.51h7.43a5.171 5.171 0 0 0 1.31-.17 8.26531 8.26531 0 0 1 -1.81-5.18v-27a8.29336 8.29336 0 0 1 1.81-5.19c-.72662-.32416-7.81927-.11487-8.74-.17005a5.50978 5.50978 0 0 0 -5.5 5.50007v26.71a5.50324 5.50324 0 0 0 5.5 5.49998zm24.93-46.28a2.3558 2.3558 0 0 0 -2.36 2.35v12h16.29v-12a2.3558 2.3558 0 0 0 -2.36-2.35zm-15 40.93v-27a5.36416 5.36416 0 0 1 5.36-5.36h4.28v5.78h-1.86994a1.50017 1.50017 0 0 0 -.00006 3h26.03a1.498 1.498 0 0 0 1.5-1.5 1.50439 1.50439 0 0 0 -1.5-1.5h-1.87v-5.78h4.28a5.3603 5.3603 0 0 1 5.36 5.36v27a5.35818 5.35818 0 0 1 -5.36 5.35h-30.85a5.36509 5.36509 0 0 1 -5.36-5.35zm32.78-17.79a1.50015 1.50015 0 0 0 .00006-3 1.50017 1.50017 0 0 0 -.00006 3zm.00006 4.71a1.50018 1.50018 0 0 0 -.00006 3 1.50016 1.50016 0 0 0 .00008-3zm-.00006 10.72a1.50015 1.50015 0 0 0 .00006-3 1.50017 1.50017 0 0 0 -.00006 3zm-8-15.43a1.50015 1.50015 0 0 0 .00006-3 1.50017 1.50017 0 0 0 -.00006 3zm.00006 4.71a1.50018 1.50018 0 0 0 -.00006 3 1.50016 1.50016 0 0 0 .00008-3zm-.00006 10.72a1.50015 1.50015 0 0 0 .00006-3 1.50017 1.50017 0 0 0 -.00006 3zm-8-15.43a1.50015 1.50015 0 0 0 .00006-3 1.50017 1.50017 0 0 0 -.00006 3zm.00006 4.71a1.50018 1.50018 0 0 0 -.00006 3 1.50016 1.50016 0 0 0 .00008-3zm-.00006 10.72a1.50015 1.50015 0 0 0 .00006-3 1.50017 1.50017 0 0 0 -.00006 3zm-8-15.43a1.50015 1.50015 0 0 0 .00006-3 1.50017 1.50017 0 0 0 -.00006 3zm.00006 4.71a1.50018 1.50018 0 0 0 -.00006 3 1.50016 1.50016 0 0 0 .00008-3zm-.00006 10.72a1.50015 1.50015 0 0 0 .00006-3 1.50017 1.50017 0 0 0 -.00006 3zm118.43-2.93a4.50619 4.50619 0 0 0 1.49988-8.74 4.52085 4.52085 0 0 0 -5.99981 4.24 3.43013 3.43013 0 0 0 .03993.56l-8.42 4.21a4.45053 4.45053 0 0 0 -3.12-1.27 4.50019 4.50019 0 0 0 .00013 9 4.45051 4.45051 0 0 0 3.11987-1.27l8.42 4.21a4.51723 4.51723 0 0 0 4.46 5.05994 4.50015 4.50015 0 0 0 -.00012-8.99994 4.45035 4.45035 0 0 0 -3.11987 1.27l-8.42-4.21a3.82665 3.82665 0 0 0 0-1.12l8.42-4.21a4.45047 4.45047 0 0 0 3.11999 1.27zm4.5-10.49a7.16545 7.16545 0 0 0 -1.98-1.06994 7.54089 7.54089 0 0 0 -9.9 5.72992l-5.26 2.63a7.45654 7.45654 0 0 0 -3.35986-.8c-9.9245.3454-9.92932 14.65155-.00013 15a7.32915 7.32915 0 0 0 3.36-.8l5.26 2.63a7.74811 7.74811 0 0 0 .31 1.17 7.16786 7.16786 0 0 0 1.08 2h-33.29a5.50975 5.50975 0 0 1 -5.5-5.5v-46a5.50972 5.50972 0 0 1 5.5-5.5h38.28a5.50972 5.50972 0 0 1 5.5 5.5zm-14.64-13.51h-19.99994a1.50015 1.50015 0 0 0 -.00006 3h20a1.50015 1.50015 0 0 0 0-3zm4-8h-27.99994a1.50016 1.50016 0 0 0 -.00006 3h28a1.50016 1.50016 0 0 0 0-3zm108.5 14v22.57a9.50861 9.50861 0 0 1 -9.5 9.5h-38a9.50861 9.50861 0 0 1 -9.5-9.5v-22.57a9.50861 9.50861 0 0 1 9.5-9.5h38a9.50861 9.50861 0 0 1 9.5 9.5zm-21.5 9.79h-5.5v-5.5a1.498 1.498 0 0 0 -1.5-1.5 1.498 1.498 0 0 0 -1.5 1.5v5.5h-5.5a1.498 1.498 0 0 0 -1.5 1.5 1.50438 1.50438 0 0 0 1.5 1.5h5.5v5.49994a1.50018 1.50018 0 0 0 3 .00006v-5.5h5.5a1.50016 1.50016 0 0 0 0-3zm-14.3-30.86a9.49329 9.49329 0 0 0 -9.45 8.57h3.02a6.49891 6.49891 0 0 1 6.43-5.57h14.6a6.49891 6.49891 0 0 1 6.43 5.57h3.02a9.49329 9.49329 0 0 0 -9.45-8.57zm115.85126-.91132a3.4946 3.4946 0 0 0 -4.95 0l-29.51 29.5a3.49457 3.49457 0 0 0 -.2 4.72c1.31366 1.38562 9.70269 9.714 11.23 11.26007l1.91 1.90991c.06995.07.15.14.22.21a3.52672 3.52672 0 0 0 4.73-.21l29.5-29.51a3.49452 3.49452 0 0 0 0-4.95zm-31.37 55.55005a1.49126 1.49126 0 0 0 1.06.44 1.52607 1.52607 0 0 0 1.06-.44l5.83-5.82c-.11-.1-.17-.17-.24-.23l-5.39-5.4-1.32 1.32a1.49944 1.49944 0 0 1 -2.12 0 1.49078 1.49078 0 0 1 0-2.12l1.32-1.32-5.41-5.41c-.06994-.07-.13995-.14-.21-.22l-5.83 5.83a1.50711 1.50711 0 0 0 0 2.12zm139.31874-43.85962v38.3a6.00476 6.00476 0 0 1 -6 6h-45a6.00476 6.00476 0 0 1 -6-6v-45a6.00475 6.00475 0 0 1 6-6h3v8.5a3.50386 3.50386 0 0 0 3.5 3.5h23a3.50386 3.50386 0 0 0 3.5-3.5l-.00006-8.49994c2.18384.0299 5.30878-.34656 7.07007 1.26l8.61 6.71a5.93 5.93 0 0 1 2.31999 4.72994zm-20.5 20.30005c-.68774-16.57758-24.30975-16.5824-25-.00006a12.5 12.5 0 0 0 25 .00006zm-24.5-24.50006a.49515.49515 0 0 0 .5.5h23a.49515.49515 0 0 0 .5-.5v-8.5h-24zm12.00006 14.9999c-12.59985.51751-12.60351 18.48065-.00006 19.00006a9.5 9.5 0 0 0 .00006-19.00006zm-393.68006 125.561h44.36a6.327 6.327 0 0 0 6.32-6.32v-40.5a6.327 6.327 0 0 0 -6.32-6.32h-18.32a1.498 1.498 0 0 0 -1.5 1.5 1.498 1.498 0 0 0 1.5 1.5h18.32a3.32459 3.32459 0 0 1 3.32 3.32v6.2a6.27587 6.27587 0 0 0 -3.32-.95h-18.7a3.32461 3.32461 0 0 1 -3.16-2.27l-1.66-4.98a6.31251 6.31251 0 0 0 -5.99-4.32h-14.85a6.327 6.327 0 0 0 -6.32 6.32v40.5a6.327 6.327 0 0 0 6.32 6.32zm136.95-43.76h-41.54a1.498 1.498 0 0 1 -1.5-1.5 1.498 1.498 0 0 1 1.5-1.5h4.73v-1.62a6.69614 6.69614 0 0 1 6.69-6.69h18.7a6.69614 6.69614 0 0 1 6.69 6.69v1.62h4.73a1.50016 1.50016 0 0 1 0 3zm-7.73-4.62a3.70018 3.70018 0 0 0 -3.69-3.69h-18.7a3.70018 3.70018 0 0 0 -3.69 3.69v1.62h26.08zm-2.04 50.31a5.6445 5.6445 0 0 0 5.65-5.42l1.46-35.48a1.5015 1.5015 0 0 0 -1.49-1.56h-33.24a1.54007 1.54007 0 0 0 -1.08.46 1.48266 1.48266 0 0 0 -.41 1.1l1.46 35.48a5.6445 5.6445 0 0 0 5.65 5.42h3.91c-.00634-1.381-.32275-19.29687-.3399-21.2301a1.49837 1.49837 0 0 1 1.51-1.5199 1.49813 1.49813 0 0 1 1.49 1.48c.02783 2.00385.316 19.8064.34 21.27008l8.1799-.00008c.014-1.3761.31732-19.33923.34-21.27008a1.50028 1.50028 0 0 1 3 .0401c-.025 2.00635-.31817 19.76129-.34 21.23zm110-30h-1.50012c.37909-3.492-1.85394-6.6311-5.49988-6.67h-12a5.517 5.517 0 0 0 -5.47 4.95 6.15148 6.15148 0 0 0 -5.06006 0 5.50975 5.50975 0 0 0 -5.47-4.95h-11.99994c-3.65643.04144-5.87329 3.17785-5.50006 6.67h-1.49994a1.50017 1.50017 0 0 0 -.00006 3l1.50012-.00006c-.379 3.49213 1.85388 6.631 5.49988 6.67005h12a5.50968 5.50968 0 0 0 5.5-5.5v-2.17a3.09754 3.09754 0 0 1 2.5-1.27 3.12535 3.12535 0 0 1 2.5 1.27v2.17a5.50968 5.50968 0 0 0 5.5 5.5h12a5.50968 5.50968 0 0 0 5.5-5.5v-1.17h1.5a1.498 1.498 0 0 0 1.5-1.5 1.498 1.498 0 0 0 -1.49994-1.49999zm53.29-16.25a27.97009 27.97009 0 0 1 5.31-9.48 28.54257 28.54257 0 0 0 -10.57 5.98 28.93916 28.93916 0 0 0 5.26 3.5zm27.42-.01a31.21451 31.21451 0 0 0 5.26-3.48 28.42573 28.42573 0 0 0 -10.57-5.99 27.98729 27.98729 0 0 1 5.31 9.47zm-24.64 1.28022c8.9624 3.1867 14.72247 2.56689 21.86-.00025-5.42438-15.94797-16.43372-15.95197-21.86.00024zm22.73 2.87978a32.08471 32.08471 0 0 1 -11.8 2.24 33.495 33.495 0 0 1 -11.8-2.25 52.82311 52.82311 0 0 0 -1.68 12.11h26.96a52.65587 52.65587 0 0 0 -1.68-12.1zm9.31-5.53a33.15016 33.15016 0 0 1 -6.5 4.27 55.4257 55.4257 0 0 1 1.87 13.36h11.98a28.3836 28.3836 0 0 0 -7.35-17.63zm7.35 20.63h-11.98a55.42563 55.42563 0 0 1 -1.87 13.36 33.6093 33.6093 0 0 1 6.5 4.27 28.38377 28.38377 0 0 0 7.35-17.63zm-14.75 16.26a27.98678 27.98678 0 0 1 -5.31 9.47 28.42477 28.42477 0 0 0 10.57-5.99 30.80687 30.80687 0 0 0 -5.26-3.48zm-2.78-1.28c-7.12652-2.56793-12.9082-3.18725-21.86-.00018 5.42432 15.94818 16.43385 15.95218 21.86.00018zm-24.64 1.27a28.93655 28.93655 0 0 0 -5.26 3.5 28.5416 28.5416 0 0 0 10.57 5.98 27.969 27.969 0 0 1 -5.31-9.48zm1.91-4.14032c9.68964-3.37115 15.861-2.738 23.6-.0097a52.65543 52.65543 0 0 0 1.68-12.1h-26.96a52.81748 52.81748 0 0 0 1.68 12.1097zm-9.31 5.52032a32.2352 32.2352 0 0 1 6.5-4.29 55.18437 55.18437 0 0 1 -1.87-13.34h-11.98a28.39253 28.39253 0 0 0 7.35 17.63zm6.5-33.97a32.23523 32.23523 0 0 1 -6.5-4.29 28.39222 28.39222 0 0 0 -7.35 17.63h11.98a55.18444 55.18444 0 0 1 1.87-13.34zm90.32 16.76v21.08a5.50972 5.50972 0 0 0 5.5 5.5h25.58a5.50972 5.50972 0 0 0 5.5-5.5v-21.08a5.49435 5.49435 0 0 0 -5.37-5.49c-.28131-.0315-25.55523-.01062-25.8399-.00013a5.49456 5.49456 0 0 0 -5.3701 5.49013zm20.61-30.42h-4.64a3.5833 3.5833 0 0 0 -3.55 3.13l-1.31 10.49h14.36l-1.31-10.49a3.5833 3.5833 0 0 0 -3.55-3.13zm-15.24 21.12v.81a.61421.61421 0 0 1 .13-.01h25.58a.61421.61421 0 0 1 .13.01 4.6305 4.6305 0 0 0 -4.50012-5.31h-16.83988a4.50034 4.50034 0 0 0 -4.5 4.5zm-342.58 117.51a3.50386 3.50386 0 0 0 3.5-3.5v-32a3.50385 3.50385 0 0 0 -3.5-3.5h-5a3.50385 3.50385 0 0 0 -3.5 3.5v32a3.50386 3.50386 0 0 0 3.5 3.5zm-36 0a3.50386 3.50386 0 0 0 3.5-3.5v-14a3.50385 3.50385 0 0 0 -3.5-3.5h-5a3.50385 3.50385 0 0 0 -3.5 3.5v14a3.50386 3.50386 0 0 0 3.5 3.5zm18 0a3.50386 3.50386 0 0 0 3.5-3.5v-23a3.50385 3.50385 0 0 0 -3.5-3.5h-5a3.50385 3.50385 0 0 0 -3.5 3.5v23a3.50386 3.50386 0 0 0 3.5 3.5zm24.5 3.74542h-53.99994a1.50017 1.50017 0 0 0 -.00006 3h54a1.50017 1.50017 0 0 0 0-2.99999zm95.5-42.87542v30.57a5.50972 5.50972 0 0 1 -5.5 5.5h-46a5.50972 5.50972 0 0 1 -5.5-5.5v-30.57a5.50968 5.50968 0 0 1 5.5-5.5h46a5.50968 5.50968 0 0 1 5.5 5.5zm-48.49994 21.79a1.50015 1.50015 0 0 0 -.00006 3 1.50016 1.50016 0 0 0 .00006-3zm0-8a1.50015 1.50015 0 0 0 -.00006 3 1.50016 1.50016 0 0 0 .00006-3zm0-8a1.50015 1.50015 0 0 0 -.00006 3 1.50016 1.50016 0 0 0 .00006-3zm47.49994 40.21a5.50968 5.50968 0 0 0 -5.5-5.5h-39.4a1.56923 1.56923 0 0 0 -.64.14l-8.59 4a1.50885 1.50885 0 0 0 -.87 1.36 1.50883 1.50883 0 0 0 .87 1.36l8.59 4a1.56846 1.56846 0 0 0 .64.14h39.4a5.50972 5.50972 0 0 0 5.5-5.5zm95-29.75061v28.93a6.33345 6.33345 0 0 1 -6.32 6.32h-2.68v-9.5a1.498 1.498 0 0 0 -1.5-1.5h-12a1.498 1.498 0 0 0 -1.5 1.5v9.5h-26.68a6.33345 6.33345 0 0 1 -6.32-6.32v-28.93a6.327 6.327 0 0 1 6.32-6.32h44.36a6.327 6.327 0 0 1 6.32 6.32zm-36.78 8.89h-11.71991a1.50016 1.50016 0 0 0 -.00006 3h11.72a1.50018 1.50018 0 0 0 -.00003-3.00004zm3.71-7.64h-15.42993a1.50015 1.50015 0 0 0 -.00006 3h15.43a1.50015 1.50015 0 0 0 -.00001-3zm21.07 26h-9v8h9zm-6.24-36.57h4.58l-13.85-12.06a1.51556 1.51556 0 0 0 -1.97-.01l-14.02 12.07h4.6l10.39-8.95zm106.19 26.96061v-7.63a1.498 1.498 0 0 0 -1.5-1.5h-19.45v-13.83h18.84a1.498 1.498 0 0 0 1.5-1.5v-10.77a1.498 1.498 0 0 0 -1.5-1.5h-40.68a1.498 1.498 0 0 0 -1.5 1.5v10.77a1.498 1.498 0 0 0 1.5 1.5h18.84v13.83h-19.45a1.498 1.498 0 0 0 -1.5 1.5l.00018 7.63c-8.80438 1.95452-7.58246 14.75042 1.49982 14.95a7.55607 7.55607 0 0 0 7.55-7.55 7.56125 7.56125 0 0 0 -6.05-7.4v-6.13h17.95v6.13a7.56125 7.56125 0 0 0 -6.05 7.4 7.56246 7.56246 0 0 0 7.54981 7.55c9.091-.19574 10.29413-13.00611 1.50018-14.95v-6.13h17.95l.00012 6.13c-8.78247 1.945-7.61084 14.74554 1.49988 14.95a7.56249 7.56249 0 0 0 7.55-7.55 7.56125 7.56125 0 0 0 -6.04999-7.4zm47.55006 17.61h47.99994a1.50016 1.50016 0 0 0 0-3h-48a1.50016 1.50016 0 0 0 .00006 3zm35.47992-32c6.59027-4.15814 9.54755-11.38379 9.01984-19.00006l-40.99982.00006c-.52466 7.62232 2.426 14.83667 9.0202 18.99994a4.10811 4.10811 0 0 1 -.0003 7.00006c-6.59015 4.158-9.54743 11.38379-9.01972 19h40.99982c.52466-7.62231-2.426-14.83679-9.0202-19a4.10811 4.10811 0 0 1 .0002-7zm-35.47998-22h48a1.50016 1.50016 0 0 0 -.00006-3h-47.99994a1.50016 1.50016 0 0 0 0 3zm-331.62 110.24121-11.12-11.12-8.07 8.07a8.0515 8.0515 0 0 1 -11.38 0 7.7804 7.7804 0 0 0 -5.56-2.3 7.7804 7.7804 0 0 0 -5.56 2.3l-2.25 2.25a4.70878 4.70878 0 0 0 .00006 6.62l26.99994 27a4.68614 4.68614 0 0 0 6.62 0l2.25-2.25a7.90247 7.90247 0 0 0 -.00006-11.12 8.07862 8.07862 0 0 1 .00012-11.38zm-10.32-18.8a1.49921 1.49921 0 0 0 -2.11994 2.12l17.99994 18.00001a1.4992 1.4992 0 0 0 2.12-2.12zm-21.18 41.3-2.12-2.12-14.82 14.82a1.49922 1.49922 0 0 0 2.12006 2.12zm133.62-13.10121v22.86a5.50972 5.50972 0 0 1 -5.5 5.5h-46a5.50972 5.50972 0 0 1 -5.5-5.5v-22.86a5.50972 5.50972 0 0 1 5.5-5.5h46a5.50972 5.50972 0 0 1 5.5 5.5zm-36.07007 5.22a1.50015 1.50015 0 0 0 .00006-3 1.50015 1.50015 0 0 0 -.00006 3zm-6 0a1.50015 1.50015 0 0 0 .00006-3 1.50015 1.50015 0 0 0 -.00006 3zm-4.49994-1.49994a1.50015 1.50015 0 0 0 -3-.00006 1.50015 1.50015 0 0 0 3.00001.00005zm36.39001 13.92994h-36.64a1.50017 1.50017 0 0 0 -.00006 3h36.64a1.50017 1.50017 0 0 0 .00006-3zm-31.75-46.29a3.50385 3.50385 0 0 0 -3.5 3.5v16.64h33.86v-16.64a3.50385 3.50385 0 0 0 -3.5-3.5zm81.34485.00531a2.41736 2.41736 0 0 0 -2.4148 2.4148v52.1596a2.47466 2.47466 0 0 0 .18256.91877 2.43816 2.43816 0 0 0 2.23224 1.496h52.1596a2.415 2.415 0 0 0 0-4.82959h-46.33014l20.25037-20.25031 5.74359 5.7436a2.47073 2.47073 0 0 0 3.41467 0l18.62885-18.62879a2.41481 2.41481 0 0 0 -3.41473-3.41461l-16.92145 16.92139-5.74359-5.7436a2.41733 2.41733 0 0 0 -3.41468 0l-21.9577 21.95765v-46.33011a2.41735 2.41735 0 0 0 -2.41478-2.4148zm144.72515 39.25476c-.94348-.48608-1.85156.17469-2.08007-.81006a4.5494 4.5494 0 0 0 .25006-6.62 4.56923 4.56923 0 0 0 -6.62.24994c-.18-.08-.36-.16-.55-.23v-.34992a4.50019 4.50019 0 0 0 -9-.00006v.35c-.19.07-.37.15-.56.23a4.506 4.506 0 1 0 -6.61 6.12l.25.25c-.08.18-.16.36-.23.55a4.53611 4.53611 0 0 0 -4.85 4.5 4.50677 4.50677 0 0 0 4.5 4.5h.35c.07.19.15.37.23.55a4.55247 4.55247 0 0 0 -.25006 6.61993 4.54456 4.54456 0 0 0 6.37007.0001l.24005-.25c.99048.20367.33813 1.14508.81994 2.08h-26.03999a5.51621 5.51621 0 0 1 -5.5-5.5v-46a5.52266 5.52266 0 0 1 5.5-5.5h38.28a5.50972 5.50972 0 0 1 5.5 5.5zm-14.64-22.26007h-20a1.50012 1.50012 0 0 0 0 3h20a1.50012 1.50012 0 0 0 0-3zm4-8h-28a1.50017 1.50017 0 0 0 0 3h28a1.50017 1.50017 0 0 0 0-3zm9.14 36a1.50016 1.50016 0 0 0 0-3h-2.63a9.40042 9.40042 0 0 0 -1.69-4.06l1.87-1.86a1.52111 1.52111 0 0 0 0-2.13 1.52119 1.52119 0 0 0 -2.13 0l-1.86 1.87a9.39952 9.39952 0 0 0 -4.06-1.69v-2.63a1.50016 1.50016 0 0 0 -3-.00006v2.63a9.39948 9.39948 0 0 0 -4.06 1.69l-1.87-1.87a1.509 1.509 0 0 0 -2.12 0 1.52111 1.52111 0 0 0 0 2.13l1.87 1.86a9.39969 9.39969 0 0 0 -1.69 4.06h-2.62994a1.50016 1.50016 0 0 0 -.00007 3h2.63a9.39964 9.39964 0 0 0 1.69 4.06l-1.87 1.86a1.50284 1.50284 0 0 0 2.12 2.12994l1.87001-1.86988a9.40033 9.40033 0 0 0 4.06 1.69v2.62994a1.50016 1.50016 0 0 0 3 .00006v-2.63a9.40037 9.40037 0 0 0 4.06-1.69l1.86 1.87a1.53111 1.53111 0 0 0 2.13 0 1.52117 1.52117 0 0 0 0-2.13l-1.87-1.86a9.40037 9.40037 0 0 0 1.69-4.06zm93.86 4.50019a1.50017 1.50017 0 0 0 0-3h-46a1.50017 1.50017 0 0 0 .00006 3zm-21.56-33.00031a10.498 10.498 0 1 0 20.77991-.00018c-1.99365-11.93415-18.78791-11.9317-20.77991.00018zm27.06 5.49988v16a5.50972 5.50972 0 0 1 -5.5 5.5h-46a5.50972 5.50972 0 0 1 -5.5-5.5v-16a5.50968 5.50968 0 0 1 5.5-5.5l21.43005-.00006a13.49117 13.49117 0 1 0 26.85993.50006 5.51789 5.51789 0 0 1 3.21002 5zm-48.49994.5a1.50015 1.50015 0 0 0 -.00006 3 1.50015 1.50015 0 0 0 .00006-3zm6 0a1.50015 1.50015 0 0 0 -.00006 3 1.50015 1.50015 0 0 0 .00006-3zm6 0a1.50015 1.50015 0 0 0 -.00006 3 1.50015 1.50015 0 0 0 .00006-3zm-359.90006 93.40014a8.10448 8.10448 0 0 0 -8.1-8.0999 8.1045 8.1045 0 0 0 -8.1 8.1c.402 10.732 15.79965 10.729 16.2-.0001zm-8.1-21.8999a21.90413 21.90413 0 0 0 -21.84 20.4h10.85a11.10915 11.10915 0 0 1 10.99-9.6 11.10915 11.10915 0 0 1 10.99 9.6h10.85a21.90413 21.90413 0 0 0 -21.84-20.4zm0 33a11.10915 11.10915 0 0 1 -10.99-9.6h-10.85a21.93345 21.93345 0 0 0 21.84009 20.4 21.93342 21.93342 0 0 0 21.83991-20.4h-10.85a11.10915 11.10915 0 0 1 -10.99 9.6zm12 20.99994h-10.5v-7.26a18.23455 18.23455 0 0 1 -3 0v7.26h-10.5a1.50016 1.50016 0 0 0 .00006 3h23.99994a1.50015 1.50015 0 0 0 0-3zm88.79-40.86994h-13.58l-4.53 31.7a5.63625 5.63625 0 0 0 1.59 4.77l5.75 5.75006a5.60667 5.60667 0 0 0 3.98 1.6499 5.60667 5.60667 0 0 0 3.98-1.6499l5.75-5.75006a5.63625 5.63625 0 0 0 1.59-4.77zm.71-3 2.48-4.97a3.58921 3.58921 0 0 0 -3.19006-5.15992l-13.57994-.00008a3.58926 3.58926 0 0 0 -3.18994 5.16l2.48993 4.97zm58 40.37a6.51258 6.51258 0 0 0 6.5 6.49994h44a6.51258 6.51258 0 0 0 6.5-6.49994v-35.93h-57zm57-44v5.07h-57v-5.07a6.51263 6.51263 0 0 1 6.5-6.5h44a6.51263 6.51263 0 0 1 6.5 6.5zm-19.54993-2.21a1.50015 1.50015 0 0 0 -.00006 3 1.50018 1.50018 0 0 0 .00006-3zm6 0a1.50015 1.50015 0 0 0 -.00006 3 1.50018 1.50018 0 0 0 .00006-3zm6 0a1.50015 1.50015 0 0 0 -.00006 3 1.50018 1.50018 0 0 0 .00006-3zm72.23755-4.26147v30.15l21.32 21.31c17.39131-18.95514 4.50691-50.36975-21.32-51.46002zm-3 30.77.00031-26.14991c-22.37928 1.1576-32.94721 28.85358-17.02033 44.66986a26.24068 26.24068 0 0 0 35.95 1.03l-18.49-18.49a1.49852 1.49852 0 0 1 -.43998-1.05995zm124.53238-6.12853h-4.66v-14.95a1.49851 1.49851 0 0 0 -.44-1.06l-8.23-8.22a1.49851 1.49851 0 0 0 -1.06-.44h-32.89a1.5044 1.5044 0 0 0 -1.5 1.5v23.17h-4.65991a1.50016 1.50016 0 0 0 -.00006 3h53.43997a1.5 1.5 0 0 0 0-3zm-30.8313 6.16345a1.50039 1.50039 0 0 0 -1.5 1.5v23.167a1.5 1.5 0 0 0 3 0v-23.167a1.50038 1.50038 0 0 0 -1.50003-1.50001zm-8.22168 0a1.50039 1.50039 0 0 0 -1.5 1.5v23.167a1.5 1.5 0 0 0 3 0v-23.167a1.50038 1.50038 0 0 0 -1.50002-1.50001zm-8.22265 0a1.50038 1.50038 0 0 0 -1.5 1.5v23.167a1.5 1.5 0 0 0 3 0v-23.167a1.50039 1.50039 0 0 0 -1.50003-1.50001zm24.667 0a1.50038 1.50038 0 0 0 -1.5 1.5v23.167a1.5 1.5 0 0 0 3 0v-23.167a1.50039 1.50039 0 0 0 -1.50004-1.50001zm8.22168 0a1.50038 1.50038 0 0 0 -1.5 1.5v23.167a1.5 1.5 0 0 0 3 0v-23.167a1.50039 1.50039 0 0 0 -1.50005-1.50001zm8.22265 0a1.50039 1.50039 0 0 0 -1.5 1.5v23.167a1.5 1.5 0 0 0 3 0v-23.167a1.50038 1.50038 0 0 0 -1.50004-1.50001zm4.61837-1054.91609q.26523.26514.488.53034l1.26568-1.26575a5.36394 5.36394 0 0 0 0-7.55194 5.35393 5.35393 0 0 0 -7.559-.007l-1.27275 1.27274c-.20135-.30261 7.018 6.97474 7.07807 7.02161zm-37.75238 38.88364a13.32627 13.32627 0 0 1 .26868 3.81854 9.6017 9.6017 0 0 0 1.08191-.92633l31.57934-31.57935 1.393 1.393a1.96311 1.96311 0 0 1 0 2.77179l-7.35394 7.35394a1.50445 1.50445 0 0 0 0 2.12134 1.50446 1.50446 0 0 0 2.12133 0l7.35399-7.35393a4.96559 4.96559 0 0 0 0-7.01447l-1.393-1.393a3.95074 3.95074 0 0 0 .57977-5.95386l-6.53367-6.53367a3.82233 3.82233 0 0 0 -5.38812 0l-34.27344 34.27344a9.72574 9.72574 0 0 0 -.93341 1.08893h.80609c4.72901-.10937 9.03058 2.13538 10.69147 7.93363zm-14.05023 8.20962 11.0379-2.82135c.09906-.02826.191-.0495.2829-.08484v-2.26275a7.35539 7.35539 0 0 0 -7.05695-7.97614c-.67584-.03345-2.52246.0072-3.189-.00708-.02832.09894-.04956.19092-.07782.28992l-2.82135 11.038a1.50661 1.50661 0 0 0 .396 1.42829 1.50657 1.50657 0 0 0 1.42832.39595z" fill="url(#linear-gradient)"/></svg>