<svg id="Capa_1" enable-background="new 0 0 512 512" height="512" viewBox="0 0 512 512" width="512" xmlns="http://www.w3.org/2000/svg"><g><path d="m196.906 310.625h-21.594c-11.028 0-20 8.972-20 20v6.062c0 11.028 8.972 20 20 20h21.594c11.028 0 20-8.972 20-20v-6.062c0-11.028-8.971-20-20-20zm5 26.063c0 2.757-2.243 5-5 5h-21.594c-2.757 0-5-2.243-5-5v-6.062c0-2.757 2.243-5 5-5h21.594c2.757 0 5 2.243 5 5z"/><path d="m119.25 310.625h-21.594c-11.028 0-20 8.972-20 20v6.062c0 11.028 8.972 20 20 20h21.594c11.028 0 20-8.972 20-20v-6.062c0-11.028-8.972-20-20-20zm5 26.063c0 2.757-2.243 5-5 5h-21.594c-2.757 0-5-2.243-5-5v-6.062c0-2.757 2.243-5 5-5h21.594c2.757 0 5 2.243 5 5z"/><path d="m294.562 256.531v-108.58c0-13.069-10.633-23.702-23.702-23.702h-169.502c-13.069 0-23.702 10.632-23.702 23.702v108.58c0 12.407 10.094 22.5 22.5 22.5h171.906c12.407 0 22.5-10.093 22.5-22.5zm-201.906-108.579c0-4.798 3.903-8.702 8.702-8.702h169.502c4.799 0 8.702 3.904 8.702 8.702v69.486h-186.906zm124.782 116.079h-62.656v-31.594h62.656zm-124.782-7.5v-24.094h47.125v31.594h-39.625c-4.135 0-7.5-3.364-7.5-7.5zm139.782-24.093h47.125v24.094c0 4.136-3.364 7.5-7.5 7.5h-39.625z"/><path d="m196.906 372.75h-21.594c-11.028 0-20 8.972-20 20v6.062c0 11.028 8.972 20 20 20h21.594c11.028 0 20-8.972 20-20v-6.062c0-11.028-8.971-20-20-20zm5 26.062c0 2.757-2.243 5-5 5h-21.594c-2.757 0-5-2.243-5-5v-6.062c0-2.757 2.243-5 5-5h21.594c2.757 0 5 2.243 5 5z"/><path d="m119.25 372.75h-21.594c-11.028 0-20 8.972-20 20v6.062c0 11.028 8.972 20 20 20h21.594c11.028 0 20-8.972 20-20v-6.062c0-11.028-8.972-20-20-20zm5 26.062c0 2.757-2.243 5-5 5h-21.594c-2.757 0-5-2.243-5-5v-6.062c0-2.757 2.243-5 5-5h21.594c2.757 0 5 2.243 5 5z"/><path d="m196.906 434.875h-21.594c-11.028 0-20 8.972-20 20v6.062c0 11.028 8.972 20 20 20h21.594c11.028 0 20-8.972 20-20v-6.062c0-11.028-8.971-20-20-20zm5 26.063c0 2.757-2.243 5-5 5h-21.594c-2.757 0-5-2.243-5-5v-6.062c0-2.757 2.243-5 5-5h21.594c2.757 0 5 2.243 5 5z"/><path d="m119.25 434.875h-21.594c-11.028 0-20 8.972-20 20v6.062c0 11.028 8.972 20 20 20h21.594c11.028 0 20-8.972 20-20v-6.062c0-11.028-8.972-20-20-20zm5 26.063c0 2.757-2.243 5-5 5h-21.594c-2.757 0-5-2.243-5-5v-6.062c0-2.757 2.243-5 5-5h21.594c2.757 0 5 2.243 5 5z"/><path d="m442.906 341.688h-40.156v-124.516c0-4.142-3.357-7.5-7.5-7.5s-7.5 3.358-7.5 7.5v124.516h-31.062v-217.969h23.562c4.136 0 7.5 3.364 7.5 7.5v50.953c0 4.142 3.357 7.5 7.5 7.5s7.5-3.358 7.5-7.5v-50.953c0-12.407-10.094-22.5-22.5-22.5h-31.062c-4.143 0-7.5 3.358-7.5 7.5v8.031h-16.062v-85.688c-.001-21.263-17.3-38.562-38.564-38.562h-139.781c-21.264 0-38.562 17.299-38.562 38.562v23.562h-24.625c-20.678 0-37.5 16.822-37.5 37.5v354.876c0 31.706 25.794 57.5 57.5 57.5h338.812c12.406 0 22.5-10.093 22.5-22.5v-125.312c0-12.407-10.094-22.5-22.5-22.5zm7.5 22.5v8.562h-202.437v-8.562c0-4.136 3.364-7.5 7.5-7.5h187.438c4.135 0 7.499 3.364 7.499 7.5zm-197.437-22.5c-2.757 0-5-2.243-5-5v-6.062c0-2.757 2.243-5 5-5h21.594c2.757 0 5 2.243 5 5v6.062c0 2.757-2.243 5-5 5zm88.719-202.438v202.438h-16.062v-202.438zm-54.626-124.25c12.992 0 23.562 10.57 23.562 23.562v31.081c-6.272-4.719-14.065-7.518-22.5-7.518h-24.624v-23.563c0-12.992 10.57-23.562 23.562-23.562zm-225.468 439.5v-354.875c0-12.407 10.094-22.5 22.5-22.5h24.625v16.062h-8.031c-4.143 0-7.5 3.358-7.5 7.5s3.357 7.5 7.5 7.5h36.594c4.143 0 7.5-3.358 7.5-7.5s-3.357-7.5-7.5-7.5h-13.562v-54.625c0-12.992 10.57-23.562 23.562-23.562h109.273c-5.048 6.521-8.055 14.697-8.055 23.562v54.625h-76.219c-4.143 0-7.5 3.358-7.5 7.5s3.357 7.5 7.5 7.5h99.25c4.143 0 7.5-3.358 7.5-7.5s-3.357-7.5-7.5-7.5h-8.031v-16.062h24.625c12.406 0 22.5 10.093 22.5 22.5v242.062h-16.695c.413-1.599.633-3.274.633-5v-6.062c0-11.028-8.972-20-20-20h-21.594c-11.028 0-20 8.972-20 20v6.062c0 5.097 1.917 9.755 5.067 13.291-3.166 3.877-5.067 8.825-5.067 14.209v125.313c0 2.629.453 5.153 1.285 7.5h-130.16c-23.435 0-42.5-19.065-42.5-42.5zm381.312 42.5h-187.437c-4.136 0-7.5-3.364-7.5-7.5v-70.688h16.417c4.143 0 7.5-3.358 7.5-7.5s-3.357-7.5-7.5-7.5h-16.417v-16.062h202.438v16.062h-151.021c-4.143 0-7.5 3.358-7.5 7.5s3.357 7.5 7.5 7.5h151.021v70.688c-.001 4.136-3.365 7.5-7.501 7.5z"/><path d="m426.844 434.875h-46.594c-4.143 0-7.5 3.358-7.5 7.5v31.062c0 4.142 3.357 7.5 7.5 7.5h46.594c4.143 0 7.5-3.358 7.5-7.5v-31.062c0-4.142-3.358-7.5-7.5-7.5zm-7.5 31.063h-31.594v-16.062h31.594z"/><path d="m287.062 434.875h-15.531c-4.143 0-7.5 3.358-7.5 7.5s3.357 7.5 7.5 7.5h15.531c4.143 0 7.5-3.358 7.5-7.5s-3.357-7.5-7.5-7.5z"/><path d="m333.656 434.875h-15.531c-4.143 0-7.5 3.358-7.5 7.5s3.357 7.5 7.5 7.5h15.531c4.143 0 7.5-3.358 7.5-7.5s-3.357-7.5-7.5-7.5z"/></g></svg>