<svg height="512" viewBox="0 0 60 60" width="512" xmlns="http://www.w3.org/2000/svg"><g id="Page-1" fill="none" fill-rule="evenodd"><g id="017---Checklist" fill="rgb(0,0,0)" fill-rule="nonzero"><path id="Shape" d="m59.447 30.979-5.447-2.724v-25.255c0-1.65685425-1.3431458-3-3-3h-38c-1.6568542 0-3 1.34314575-3 3v23h-7c-1.65685425 0-3 1.3431458-3 3v25c.00330738 3.3123376 2.68766243 5.9966926 6 6h42c3.3123376-.0033074 5.9966926-2.6876624 6-6v-2.264l4.9-2.447c.6771006-.3385618 1.1034625-1.0319813 1.1-1.789v-15.627c-.0002024-.3786657-.2142706-.7247365-.553-.894zm-27.447 2.512 12 6v14.009l-12-6zm13 4.264-11.764-5.882 3.139-1.573 11.764 5.882zm5.375-2.688-11.764-5.881 1.764-.882 11.764 5.882zm4-2-11.764-5.881 2.389-1.195 11.764 5.882zm-52.375 20.933v-25c0-.5522847.44771525-1 1-1h7v26c0 2.209139-1.790861 4-4 4s-4-1.790861-4-4zm50 0c0 2.209139-1.790861 4-4 4h-37.54c.9908585-1.0966853 1.5396001-2.5219881 1.54-4v-51c0-.55228475.4477153-1 1-1h38c.5522847 0 1 .44771525 1 1v24.255l-6.1-3.055c-.5638101-.2800314-1.2261899-.2800314-1.79 0l-13.557 6.779c-.3387294.1692635-.5527978.5153343-.553.894v15.627c-.0025203.758136.4259562 1.4518414 1.105 1.789l13 6.5c.5638101.2800314 1.2261899.2800314 1.79 0l6.105-3.053zm-6-.5v-14.009l12-6v14.009z"/><path id="Shape" d="m21 4c-3.8659932 0-7 3.13400675-7 7 0 3.8659932 3.1340068 7 7 7s7-3.1340068 7-7c-.0044086-3.86416566-3.1358343-6.99559136-7-7zm0 12c-2.7614237 0-5-2.2385763-5-5 0-2.76142375 2.2385763-5 5-5s5 2.23857625 5 5c-.0033061 2.7600532-2.2399468 4.9966939-5 5z"/><path id="Shape" d="m21 36c-3.8659932 0-7 3.1340068-7 7s3.1340068 7 7 7 7-3.1340068 7-7c-.0044086-3.8641657-3.1358343-6.9955914-7-7zm0 12c-2.7614237 0-5-2.2385763-5-5s2.2385763-5 5-5 5 2.2385763 5 5c-.0033061 2.7600532-2.2399468 4.9966939-5 5z"/><path id="Shape" d="m21 20c-3.8659932 0-7 3.1340068-7 7s3.1340068 7 7 7 7-3.1340068 7-7c-.0044086-3.8641657-3.1358343-6.9955914-7-7zm0 12c-2.7614237 0-5-2.2385763-5-5s2.2385763-5 5-5 5 2.2385763 5 5c-.0033061 2.7600532-2.2399468 4.9966939-5 5z"/><path id="Shape" d="m32 8h7c.5522847 0 1-.44771525 1-1s-.4477153-1-1-1h-7c-.5522847 0-1 .44771525-1 1s.4477153 1 1 1z"/><path id="Shape" d="m43 8h4c.5522847 0 1-.44771525 1-1s-.4477153-1-1-1h-4c-.5522847 0-1 .44771525-1 1s.4477153 1 1 1z"/><path id="Shape" d="m32 24h7c.5522847 0 1-.4477153 1-1s-.4477153-1-1-1h-7c-.5522847 0-1 .4477153-1 1s.4477153 1 1 1z"/><path id="Shape" d="m32 12h17c.5522847 0 1-.4477153 1-1s-.4477153-1-1-1h-17c-.5522847 0-1 .4477153-1 1s.4477153 1 1 1z"/><path id="Shape" d="m32 16h6c.5522847 0 1-.4477153 1-1s-.4477153-1-1-1h-6c-.5522847 0-1 .4477153-1 1s.4477153 1 1 1z"/></g></g></svg>