<svg id="Layer_1" enable-background="new 0 0 512 512" height="512" viewBox="0 0 512 512" width="512" xmlns="http://www.w3.org/2000/svg"><path d="m497.038 284.224-115.269-66.551v-133.101c0-2.501-1.334-4.812-3.5-6.062l-118.769-68.572c-2.166-1.25-4.834-1.25-7 0l-118.769 68.572c-2.166 1.25-3.5 3.561-3.5 6.062v133.102l-115.269 66.55c-2.166 1.25-3.5 3.561-3.5 6.062v137.143c0 2.501 1.334 4.812 3.5 6.062l118.769 68.571c2.166 1.251 4.834 1.25 7 0l115.269-66.551 115.269 66.551c1.083.625 2.292.938 3.5.938s2.417-.313 3.5-.938l118.769-68.571c2.166-1.25 3.5-3.561 3.5-6.062v-137.143c0-2.501-1.334-4.812-3.5-6.062zm-17.5 6.062-28.865 16.665-104.77-60.489 28.865-16.665zm-292.443 47.864 19.04-10.992v40.977l-19.04 10.993zm-6.999-12.124-104.769-60.488 19.039-10.992 104.769 60.488zm-14 8.083-28.865 16.665-104.769-60.488 28.865-16.665zm-21.865 28.789 28.865-16.665v45.018c0 2.501 1.334 4.812 3.5 6.062 1.083.625 2.292.938 3.5.938s2.417-.312 3.5-.938l33.04-19.075c2.166-1.25 3.5-3.561 3.5-6.062v-53.101l28.864-16.665v120.978l-104.769 60.488zm0-266.203 104.769 60.488v120.978l-104.769-60.488zm223.538 0v120.978l-104.769 60.488v-120.977l28.865-16.665v45.018c0 2.501 1.334 4.812 3.5 6.062 1.083.625 2.292.938 3.5.938s2.417-.312 3.5-.938l33.039-19.075c2.166-1.25 3.5-3.561 3.5-6.062v-53.101zm49.865 229.331-104.77-60.489 19.039-10.992 104.77 60.489zm-92.73-163.606-19.039 10.993v-40.977l19.039-10.992zm-26.039-42.108-104.77-60.489 19.039-10.992 104.769 60.489zm-14 8.083-28.865 16.665-104.769-60.489 28.865-16.665zm-21.865 174.015 104.77 60.488v120.978l-104.77-60.489zm111.769 48.364-104.77-60.489 28.866-16.665 104.77 60.489zm49.865-12.624 19.039-10.992v40.976l-19.039 10.993zm-168.634-314.068 104.769 60.489-28.865 16.665-104.77-60.488zm-118.769 205.715 104.769 60.489-28.865 16.665-104.769-60.488zm-111.769 72.613 104.769 60.488v120.978l-104.769-60.489zm356.307 181.466v-120.978l28.865-16.665v45.018c0 2.501 1.334 4.812 3.5 6.062 1.083.625 2.292.938 3.5.938s2.417-.312 3.5-.938l33.039-19.075c2.166-1.25 3.5-3.561 3.5-6.062v-53.101l28.865-16.665v120.977z"/></svg>