<svg id="Capa_1" enable-background="new 0 0 512.001 512.001" height="512" viewBox="0 0 512.001 512.001" width="512" xmlns="http://www.w3.org/2000/svg"><g id="Adress_Book"><g><path d="m80 412v-312c0-44.183 35.817-80 80-80h-60c-44.183 0-80 35.817-80 80v312c0 44.183 35.817 80 80 80h60c-44.183 0-80-35.817-80-80z" fill="#cee1f2"/></g><g><circle cx="180" cy="180" fill="#0023c4" r="20"/></g><g><path d="m180 320c-21.371 0-41.29-11.505-51.983-30.025l-34.663-60.025c-8.736-15.125-13.354-32.398-13.354-49.95 0-55.14 44.86-100 100-100s100 44.86 100 100c0 17.542-4.613 34.806-13.34 49.926-.004.008-.009.016-.013.023-3.941 6.825-28.234 48.893-34.663 60.025-10.694 18.521-30.613 30.026-51.984 30.026zm-17.342-50.025c3.57 6.184 10.216 10.025 17.342 10.025 7.118 0 13.755-3.832 17.329-10.002.004-.007.009-.015.013-.023 10.029-17.367 34.672-60.041 34.676-60.047 5.223-9.051 7.982-19.398 7.982-29.928 0-33.084-26.916-60-60-60s-60 26.916-60 60c0 10.538 2.764 20.893 7.993 29.946.065.113 34.728 60.138 34.665 60.029z" fill="#0023c4"/></g><g><path d="m300 512h-200c-55.14 0-100-44.86-100-100v-312c0-55.14 44.86-100 100-100h200c33.084 0 60 26.916 60 60v392c0 33.084-26.916 60-60 60zm-200-472c-33.084 0-60 26.916-60 60v312c0 33.084 26.916 60 60 60h200c11.028 0 20-8.972 20-20v-392c0-11.028-8.972-20-20-20z" fill="#0023c4"/></g><g><path d="m492 240h-80c-11.046 0-20-8.954-20-20s8.954-20 20-20h31.716l-5.858-5.858c-7.811-7.811-7.811-20.474 0-28.284l5.858-5.858h-31.716c-11.046 0-20-8.954-20-20s8.954-20 20-20h80c8.089 0 15.382 4.873 18.478 12.346 3.096 7.474 1.385 16.076-4.335 21.796l-25.859 25.858 25.858 25.858c5.72 5.72 7.431 14.322 4.335 21.796-3.095 7.473-10.388 12.346-18.477 12.346z" fill="#ff5cf4"/></g><g><path d="m260 400h-160c-11.046 0-20-8.954-20-20s8.954-20 20-20h160c11.046 0 20 8.954 20 20s-8.954 20-20 20z" fill="#0023c4"/></g></g></svg>