<svg id="Capa_1" enable-background="new 0 0 512 512" height="512" viewBox="0 0 512 512" width="512" xmlns="http://www.w3.org/2000/svg"><g><path d="m96 412v-312c0-44.185 35.818-80 80-80h-60c-44.182 0-80 35.815-80 80v312c0 44.182 35.818 80 80 80h60c-44.182 0-80-35.818-80-80z" fill="#cee1f2"/><g fill="#0023c4"><circle cx="196" cy="100" r="20"/><path d="m156 412c0 11.046 8.954 20 20 20h40c11.046 0 20-8.954 20-20s-8.954-20-20-20h-40c-11.046 0-20 8.954-20 20z"/><path d="m436 156h-160c-33.084 0-60 26.916-60 60v80c0 33.084 26.916 60 60 60h160c33.084 0 60-26.916 60-60v-80c0-33.084-26.916-60-60-60zm20 140c0 11.028-8.972 20-20 20h-160c-11.028 0-20-8.972-20-20v-80c0-11.028 8.972-20 20-20h160c11.028 0 20 8.972 20 20z"/><path d="m336 100c0 11.046 8.954 20 20 20s20-8.954 20-20c0-55.14-44.86-100-100-100h-160c-55.14 0-100 44.86-100 100v312c0 55.14 44.86 100 100 100h160c55.14 0 100-44.86 100-100 0-11.046-8.954-20-20-20s-20 8.954-20 20c0 33.084-26.916 60-60 60h-160c-33.084 0-60-26.916-60-60v-312c0-33.084 26.916-60 60-60h160c33.084 0 60 26.916 60 60z"/></g><path d="m384.002 220-16.025 12.019c-7.075 5.306-16.85 5.316-23.936.015-.006-.005-.012-.009-.019-.014l-16.024-12.02c-8.837-6.628-21.373-4.836-28 3.999-6.628 8.836-4.837 21.373 3.999 28 12.1 7.458 24.256 24 52.003 24 27.67 0 40.972-17.197 52.003-24 8.836-6.627 10.627-19.164 3.999-28-6.627-8.835-19.163-10.627-28-3.999z" fill="#ff5cf4"/></g></svg>