<svg id="Capa_1" enable-background="new 0 0 512 512" height="512" viewBox="0 0 512 512" width="512" xmlns="http://www.w3.org/2000/svg"><g id="Phonebook"><g><path d="m136 452c0-22.091 17.909-40 40-40h-60c-22.091 0-40 17.909-40 40 0 22.091 17.909 40 40 40h60c-22.091 0-40-17.908-40-40z" fill="#cee1f2"/></g><g><path d="m276 360h-40c-33.084 0-60-26.916-60-60v-160c0-33.084 26.916-60 60-60h40c11.046 0 20 8.954 20 20v80c0 11.046-8.954 20-20 20h-40c-11.028 0-20 8.972-20 20s8.972 20 20 20h40c11.046 0 20 8.954 20 20v80c0 11.046-8.954 20-20 20zm-60-83.427v23.427c0 11.028 8.972 20 20 20h20v-40h-20c-7.009 0-13.742-1.208-20-3.427zm20-156.573c-11.028 0-20 8.972-20 20v23.427c6.258-2.219 12.991-3.427 20-3.427h20v-40z" fill="#ff5cf4"/></g><g fill="#0023c4"><path d="m356 0h-200c-55.14 0-100 44.86-100 100v20h-20c-11.046 0-20 8.954-20 20s8.954 20 20 20h20v160h-20c-11.046 0-20 8.954-20 20s8.954 20 20 20h20v92c0 33.084 26.916 60 60 60h280c11.046 0 20-8.954 20-20 0-7.056 0-413.643 0-432 0-33.084-26.916-60-60-60zm-240 320h-20v-160h20c11.046 0 20-8.954 20-20s-8.954-20-20-20h-20v-20c0-33.084 26.916-60 60-60h200c11.028 0 20 8.972 20 20v332h-260c-7.011 0-13.74 1.22-20 3.44v-35.44h20c11.046 0 20-8.954 20-20s-8.954-20-20-20zm260 152h-260c-11.028 0-20-8.972-20-20s8.972-20 20-20h260z"/><path d="m476 80c-11.046 0-20 8.954-20 20v40c0 11.046 8.954 20 20 20s20-8.954 20-20v-40c0-11.046-8.954-20-20-20z"/><path d="m476 200c-11.046 0-20 8.954-20 20v40c0 11.046 8.954 20 20 20s20-8.954 20-20v-40c0-11.046-8.954-20-20-20z"/><path d="m476 320c-11.046 0-20 8.954-20 20v40c0 11.046 8.954 20 20 20s20-8.954 20-20v-40c0-11.046-8.954-20-20-20z"/></g></g></svg>