<svg id="Capa_1" enable-background="new 0 0 512 512" height="512" viewBox="0 0 512 512" width="512" xmlns="http://www.w3.org/2000/svg"><g><path d="m156 292h-60c-22.091 0-40 17.909-40 40v160h60v-160c0-22.091 17.909-40 40-40z" fill="#cee1f2"/><circle cx="136" cy="372" fill="#0023c4" r="20"/><path d="m34.142 234.995 90.711-90.711v8.284c0 11.046 8.954 20 20 20s20-8.954 20-20v-56.568-.001c-.001-11.23-9.176-19.999-20-19.999h-56.569c-11.046 0-20 8.954-20 20s8.954 20 20 20h8.285l-90.711 90.711c-7.811 7.811-7.811 20.474 0 28.284 7.81 7.81 20.474 7.81 28.284 0z" fill="#ff5cf4"/><g fill="#0023c4"><path d="m376 152h-80c-11.046 0-20 8.954-20 20s8.954 20 20 20h80c11.046 0 20-8.954 20-20s-8.954-20-20-20z"/><path d="m376 232h-80c-11.046 0-20 8.954-20 20s8.954 20 20 20h80c11.046 0 20-8.954 20-20s-8.954-20-20-20z"/><path d="m376 312h-80c-11.046 0-20 8.954-20 20s8.954 20 20 20h80c11.046 0 20-8.954 20-20s-8.954-20-20-20z"/><path d="m492 472h-96v-20c0-33.084-26.916-60-60-60s-60 26.916-60 60v20h-40v-340c0-11.028 8.972-20 20-20h160c11.028 0 20 8.972 20 20v280c0 11.046 8.954 20 20 20s20-8.954 20-20v-280c0-33.084-26.916-60-60-60h-20v-52c0-11.046-8.954-20-20-20s-20 8.954-20 20v52h-40v-20c0-11.046-8.954-20-20-20s-20 8.954-20 20v20h-20c-33.084 0-60 26.916-60 60v140h-100c-33.084 0-60 26.916-60 60v140h-16c-11.046 0-20 8.954-20 20s8.954 20 20 20h472c11.046 0 20-8.954 20-20s-8.954-20-20-20zm-416-140c0-11.028 8.972-20 20-20h100v160h-40v-20c0-11.046-8.954-20-20-20s-20 8.954-20 20v20h-40zm240 140v-20c0-11.028 8.972-20 20-20s20 8.972 20 20v20z"/></g></g></svg>