<svg id="Layer_1" enable-background="new 0 0 512 512" height="512" viewBox="0 0 512 512" width="512" xmlns="http://www.w3.org/2000/svg"><g><path d="m146.5 392v-272c0-55.229 44.772-100 100-100h-60c-55.228 0-100 44.771-100 100v272c0 55.229 44.772 100 100 100h60c-55.228 0-100-44.771-100-100z" fill="#cee1f2"/><path d="m325.5 512h-139c-66.168 0-120-53.832-120-120v-272c0-66.168 53.832-120 120-120h139c66.168 0 120 53.832 120 120v272c0 66.168-53.832 120-120 120zm-139-472c-44.112 0-80 35.888-80 80v272c0 44.112 35.888 80 80 80h139c44.112 0 80-35.888 80-80v-272c0-44.112-35.888-80-80-80zm71 171c-33.084 0-60-26.916-60-60s26.916-60 60-60 60 26.916 60 60-26.916 60-60 60zm0-80c-11.028 0-20 8.972-20 20s8.972 20 20 20 20-8.972 20-20-8.972-20-20-20z" fill="#0023c4"/><path d="m326.5 335c-11.046 0-20-8.954-20-20 0-23.159-19.358-42-43.152-42h-11.695c-23.794 0-43.152 18.841-43.152 42 0 11.046-8.954 20-20 20s-20-8.954-20-20c0-45.215 37.302-82 83.152-82h11.695c45.851 0 83.152 36.785 83.152 82 0 11.046-8.954 20-20 20zm-69 42c-13.807 0-25 11.193-25 25 0 13.807 11.193 25 25 25s25-11.193 25-25c0-13.807-11.193-25-25-25z" fill="#ff5cf3"/></g></svg>