<svg id="Capa_1" enable-background="new 0 0 512 512" height="512" viewBox="0 0 512 512" width="512" xmlns="http://www.w3.org/2000/svg"><g><path d="m156 287.076v-187.076c0-44.183 35.817-80 80-80h-60c-44.183 0-80 35.817-80 80v187.076c0 96.926 65.967 181.416 160 204.924 10.358-2.589 20.374-5.921 30-9.925-77.764-32.349-130-108.749-130-194.999z" fill="#cee1f2"/><path d="m256 76c-33.084 0-60 26.916-60 60s26.916 60 60 60 60-26.916 60-60-26.916-60-60-60zm0 80c-11.028 0-20-8.972-20-20s8.972-20 20-20 20 8.972 20 20-8.972 20-20 20z" fill="#ff5cf4"/><g fill="#0023c4"><path d="m336 0h-160c-55.14 0-100 44.86-100 100v187.076c0 106.299 72.024 198.546 175.149 224.327 1.592.398 3.222.597 4.851.597s3.258-.199 4.851-.597c103.125-25.781 175.149-118.028 175.149-224.327v-187.076c0-55.14-44.859-100-100-100zm60 287.076c0 86.237-57.312 161.289-140 184.242-82.689-22.954-140-98.005-140-184.242v-187.076c0-33.084 26.916-60 60-60h160c33.084 0 60 26.916 60 60z"/><path d="m256 196c-55.14 0-100 44.86-100 100 0 11.046 8.954 20 20 20s20-8.954 20-20c0-33.084 26.916-60 60-60s60 26.916 60 60c0 11.046 8.954 20 20 20s20-8.954 20-20c0-55.14-44.859-100-100-100z"/><path d="m296 356h-80c-11.046 0-20 8.954-20 20s8.954 20 20 20h80c11.046 0 20-8.954 20-20s-8.954-20-20-20z"/></g></g></svg>