<svg id="Layer_1" enable-background="new 0 0 512 512" height="512" viewBox="0 0 512 512" width="512" xmlns="http://www.w3.org/2000/svg"><g><path d="m80.018 392v-292c0-44.183 35.817-80 80-80h-60c-44.183 0-80 35.817-80 80v292c0 55.228 44.771 100 100 100h60c-55.228 0-100-44.772-100-100z" fill="#cee1f2"/><path d="m292.019 512h-172c-66.168 0-120-53.832-120-120v-292c0-55.14 44.86-100 100-100 0 0 346.371.035 347.043.103 36.648 1.567 64.92 30.848 64.92 67.949v25.693c0 27.08-14.393 51.568-37.562 63.907-9.748 5.191-21.861 1.5-27.054-8.251-5.192-9.749-1.499-21.861 8.25-27.054 10.094-5.376 16.365-16.336 16.365-28.603v-25.692c-1.011-39.93-59.698-34.837-59.963 1.948v322c.001 66.168-53.831 120-119.999 120zm-192-472c-33.084 0-60 26.916-60 60v292c0 44.112 35.888 80 80 80h172c44.112 0 80-35.888 80-80v-322c0-10.594 2.346-20.779 6.799-30zm211 388h-39c-26.508-.983-26.488-39.026 0-40h39c26.508.983 26.488 39.026 0 40zm-116 0h-96c-26.508-.983-26.488-39.026 0-40h96c26.508.983 26.488 39.026 0 40z" fill="#0023c4"/><path d="m208.003 339c-11.046 0-20-8.954-20-20v-23h-22.984c-26.508-.983-26.488-39.026 0-40h22.984v-24.784c-75.988-23.659-61.008-134.49 19.501-136.216 79.931 1.664 95.552 111.382 20.499 135.915v25.085h23.016c26.508.983 26.488 39.026 0 40h-23.016v23c0 11.046-8.954 20-20 20zm-.5-204c-16.267 0-29.5 13.233-29.5 29.5 1.483 39.082 57.523 39.071 59 0 0-16.267-13.233-29.5-29.5-29.5z" fill="#ff5cf4"/></g></svg>