<svg id="Layer_1" enable-background="new 0 0 468 468" height="512" viewBox="0 0 468 468" width="512" xmlns="http://www.w3.org/2000/svg"><g><g><g><g><path d="m324.032 255.521c-3.561 0-6.81-2.396-7.74-6.003l-11.716-45.405c-1.104-4.278 1.469-8.641 5.747-9.745 4.278-1.105 8.642 1.468 9.745 5.748l11.716 45.404c1.283 4.969-2.605 10.001-7.752 10.001z"/></g><g><path d="m389.71 255.521c-3.531 0-6.763-2.355-7.722-5.928l-7.372-27.463c-1.146-4.268 1.386-8.655 5.652-9.801 4.263-1.146 8.655 1.385 9.801 5.652l7.372 27.463c1.338 4.986-2.552 10.077-7.731 10.077z"/></g></g><path d="m436.037 395h-298.792c-17.16 0-24.793-22.466-10.303-32.301l33.244-22.699h253.665c16.644 0 30.149-13.208 30.149-29.764v-102.123c0-4.418-3.582-8-8-8s-8 3.582-8 8v102.123c0 6.16-4.025 11.393-9.621 13.273l-11.981-44.666c-1.146-4.267-5.531-6.799-9.796-5.652-4.268 1.146-6.796 5.403-5.65 9.67l11.081 41.139h-49.93l-11.556-44.653c-1.104-4.279-5.468-6.788-9.745-5.682-4.278 1.104-6.852 5.369-5.747 9.647l10.524 40.688h-50.035l-48.473-187.72 14.516 2.324c4.355.676 8.454-2.276 9.135-6.642.679-4.366-2.31-8.439-6.676-9.118l-142.057-22.094-14.082-54.687c-.91-3.533-4.097-6.063-7.746-6.063h-77.797c-4.418 0-8 3.582-8 8s3.582 8 8 8h71.598l64.73 272.694-30.736 20.882c-27.27 18.51-13.176 61.424 19.289 61.424h38.173c-4.133 5.873-6.57 12.995-6.57 20.677 0 20.029 16.48 36.323 36.737 36.323s36.738-16.294 36.738-36.323c0-7.682-2.437-14.804-6.57-20.677h96.173c-4.133 5.873-6.57 12.995-6.57 20.677 0 20.029 16.48 36.323 36.737 36.323s36.737-16.294 36.737-36.323c0-7.682-2.437-14.804-6.57-20.677h43.776c4.418 0 8-3.582 8-8s-3.581-8-7.999-8zm-216.181-261.464 49.165 190.464h-48.926l-51.211-198.329zm-103.825-16.153 35.638 5.61 51.902 201.007h-39.491zm89.554 334.617c-11.435 0-20.737-9.117-20.737-20.323 0-11.207 9.303-20.324 20.737-20.324s20.737 9.117 20.737 20.324c.001 11.206-9.302 20.323-20.737 20.323zm156.509 0c-11.435 0-20.737-9.117-20.737-20.323 0-11.207 9.303-20.324 20.737-20.324s20.737 9.117 20.737 20.324c0 11.206-9.303 20.323-20.737 20.323z"/></g><g><g><path d="m40.487 248.543c-4.418 0-8-3.582-8-8v-12.174c0-4.418 3.582-8 8-8s8 3.582 8 8v12.174c0 4.418-3.582 8-8 8z"/></g><g><path d="m40.487 301.092c-4.418 0-8-3.582-8-8v-12.174c0-4.418 3.582-8 8-8s8 3.582 8 8v12.174c0 4.418-3.581 8-8 8z"/></g><g><path d="m72.974 268.73h-12.222c-4.418 0-8-3.582-8-8s3.582-8 8-8h12.222c4.418 0 8 3.582 8 8s-3.581 8-8 8z"/></g><g><path d="m20.222 268.73h-12.222c-4.418 0-8-3.582-8-8s3.582-8 8-8h12.222c4.418 0 8 3.582 8 8s-3.582 8-8 8z"/></g></g><g><g><path d="m372.386 190.966c-52.722 0-95.614-42.833-95.614-95.483s42.892-95.483 95.614-95.483 95.614 42.833 95.614 95.483-42.893 95.483-95.614 95.483zm0-174.966c-43.899 0-79.614 35.656-79.614 79.483s35.715 79.483 79.614 79.483 79.614-35.656 79.614-79.483-35.715-79.483-79.614-79.483z"/></g><g><path d="m350.185 127.26-22.471-26.71c-2.844-3.381-2.409-8.427.972-11.271s8.428-2.41 11.272.972l16.709 19.861 53.019-55.853c3.042-3.205 8.104-3.336 11.31-.294 3.204 3.042 3.336 8.105.294 11.31l-59.181 62.344c-3.026 2.964-8.859 3.631-11.924-.359z"/></g></g></g></svg>