<svg id="Layer_1" height="512" viewBox="0 0 512 512" width="512" xmlns="http://www.w3.org/2000/svg" data-name="Layer 1"><path d="m285.755 221.444a14 14 0 1 0 14-14 14.015 14.015 0 0 0 -14 14zm16 0a2 2 0 1 1 -2-2 1.979 1.979 0 0 1 2 2zm-79.489 0a14 14 0 1 0 14-14 14.015 14.015 0 0 0 -14 14zm16 0a2 2 0 1 1 -2-2 1.979 1.979 0 0 1 2 2zm214.187-132.993a8 8 0 0 0 -2.344-5.651l-80.482-80.457a8 8 0 0 0 -5.656-2.343h-274.438a30.337 30.337 0 0 0 -30.3 30.3v451.4a30.337 30.337 0 0 0 30.3 30.3h332.934a30.339 30.339 0 0 0 30.3-30.309zm-80.482-61.141 52.873 52.856h-39.2a14.478 14.478 0 0 1 -13.67-10.116zm50.496 468.69h-332.934a14.319 14.319 0 0 1 -14.3-14.3v-451.4a14.319 14.319 0 0 1 14.3-14.3h266.438v55.124a8.031 8.031 0 0 0 .228 1.9 30.248 30.248 0 0 0 29.442 23.145h50.818l.311 385.531a14.319 14.319 0 0 1 -14.303 14.3zm-209-309.51a8 8 0 0 0 2.643 4.694l10.862 9.424a7.993 7.993 0 0 0 5.242 1.957h82.473a8 8 0 0 0 7.666-5.711l20.547-68.819a8 8 0 0 0 -7.665-10.288h-117.293l-2.431-14.215a8 8 0 0 0 -7.886-6.652h-30.857a8 8 0 0 0 0 16h24.109zm111.033-52.743-15.768 52.818h-73.532l-6.445-5.592-8.077-47.226zm-178.884 204.185a20.8 20.8 0 1 0 20.8 20.8 20.826 20.826 0 0 0 -20.8-20.8zm0 25.6a4.8 4.8 0 1 1 4.8-4.8 4.808 4.808 0 0 1 -4.8 4.804zm241.57-3.506a8 8 0 0 1 -8 8h-191.837a8 8 0 1 1 0-16h191.837a8 8 0 0 1 8 8.004zm-241.57-94.726a20.8 20.8 0 1 0 20.8 20.8 20.826 20.826 0 0 0 -20.8-20.8zm0 25.6a4.8 4.8 0 1 1 4.8-4.8 4.807 4.807 0 0 1 -4.8 4.8zm241.57-3.5a8 8 0 0 1 -8 8h-191.837a8 8 0 0 1 0-16h191.837a8 8 0 0 1 8 8zm-241.57 123.167a20.8 20.8 0 1 0 20.8 20.8 20.825 20.825 0 0 0 -20.8-20.8zm0 25.6a4.8 4.8 0 1 1 4.8-4.8 4.807 4.807 0 0 1 -4.8 4.803zm241.57-3.5a8 8 0 0 1 -8 8h-191.837a8 8 0 0 1 0-16h191.837a8 8 0 0 1 8 7.998zm-247.87-234.056a2 2 0 0 0 0 2.349h13.41c8.9 0 16.149 7.7 16.149 17.175 0 9.15-6.769 16.63-15.259 17.126v2.831a8 8 0 0 1 -16 0v-2.783h-8.516a8 8 0 0 1 0-16h23.4a2 2 0 0 0 0-2.349h-13.416c-8.905 0-16.149-7.705-16.149-17.175 0-8.943 6.462-16.3 14.681-17.095v-2.114a8 8 0 0 1 16 0v2.035h8.522a8 8 0 1 1 0 16z"/></svg>