<svg id="Capa_1" enable-background="new 0 0 512 512" height="512" viewBox="0 0 512 512" width="512" xmlns="http://www.w3.org/2000/svg"><g><path d="m414.863 408.287c-.468-4.115-4.18-7.072-8.299-6.605-4.116.468-7.073 4.183-6.605 8.299l6.003 52.837c.987 8.684-1.786 17.404-7.607 23.924s-14.172 10.259-22.912 10.259h-297.089c-8.74 0-17.091-3.739-22.913-10.259-5.821-6.52-8.593-15.24-7.606-23.924l37.765-332.414c1.104-9.717 9.311-17.044 19.091-17.044h51.477v36.609c-10.386 3.209-17.955 12.9-17.955 24.326 0 14.036 11.419 25.454 25.455 25.454s25.454-11.418 25.454-25.454c0-11.426-7.568-21.117-17.954-24.326v-36.609h15.872c4.142 0 7.5-3.358 7.5-7.5s-3.358-7.5-7.5-7.5h-15.872v-27.629c0-30.73 25.001-55.731 55.731-55.731s55.73 25.001 55.73 55.731v27.628h-64.951c-4.142 0-7.5 3.358-7.5 7.5s3.358 7.5 7.5 7.5h64.951v36.61c-10.386 3.209-17.954 12.899-17.954 24.326 0 14.036 11.418 25.454 25.454 25.454s25.455-11.418 25.455-25.454c0-11.426-7.568-21.117-17.955-24.326v-36.61h51.477c9.78 0 17.987 7.328 19.091 17.045l7.321 64.439c.435 3.828 3.68 6.654 7.443 6.654.282 0 .568-.016.856-.048 4.116-.468 7.073-4.183 6.605-8.299l-7.321-64.439c-1.966-17.303-16.581-30.352-33.995-30.352h-51.477v-27.628c0-39.001-31.73-70.731-70.731-70.731s-70.73 31.73-70.73 70.731v27.628h-51.477c-17.415 0-32.029 13.048-33.995 30.351l-37.766 332.414c-1.468 12.925 2.658 25.903 11.322 35.607s21.093 15.269 34.102 15.269h297.089c13.008 0 25.438-5.565 34.101-15.269 8.664-9.704 12.791-22.682 11.322-35.607zm-124.734-244.447c5.765 0 10.455 4.69 10.455 10.455s-4.69 10.454-10.455 10.454-10.454-4.689-10.454-10.454 4.689-10.455 10.454-10.455zm-126.461 0c5.765 0 10.454 4.69 10.454 10.455s-4.689 10.454-10.454 10.454-10.455-4.689-10.455-10.454 4.69-10.455 10.455-10.455z"/><path d="m451.964 236.78c-2.957-2.9-7.706-2.854-10.606.103s-2.854 7.706.103 10.606c14.768 14.484 22.9 33.851 22.9 54.532 0 42.115-34.263 76.377-76.377 76.377s-76.378-34.263-76.378-76.377 34.263-76.378 76.378-76.378c10.399 0 20.478 2.051 29.954 6.096 3.811 1.626 8.216-.144 9.842-3.954s-.144-8.216-3.954-9.842c-11.349-4.844-23.408-7.3-35.843-7.3-50.386 0-91.378 40.992-91.378 91.378s40.992 91.377 91.378 91.377 91.377-40.992 91.377-91.377c.001-24.743-9.729-47.913-27.396-65.241z"/><path d="m387.44 364.684c4.142 0 7.5-3.358 7.5-7.5v-5.945c13.099-3.191 21.5-14.321 23.346-25.296 2.39-14.22-5.038-26.579-18.924-31.488-8.104-2.864-17.077-6.333-22.192-10.346-1.974-1.548-2.826-4.796-2.17-8.275.644-3.415 2.959-7.555 7.527-8.931 10.465-3.153 17.238 2.604 17.521 2.851l.086.059c3.579 2.469 8.51 1.271 10.558-2.564 1.795-3.363.714-7.571-2.526-9.58-3.285-2.036-7.864-4.323-13.225-5.555v-5.257c0-4.142-3.358-7.5-7.5-7.5s-7.5 3.358-7.5 7.5v5.23c-.578.139-1.157.277-1.741.453-9.205 2.772-16.079 10.634-17.941 20.516-1.707 9.057 1.227 17.814 7.654 22.854 5.499 4.313 13.162 7.989 26.451 12.686 10.185 3.6 9.563 12.283 9.131 14.858-1.101 6.55-6.61 13.628-16.103 13.691-8.746.062-11.695-.414-18.525-4.881-3.722-2.435-8.802-1.136-10.841 2.972-1.704 3.432-.373 7.631 2.84 9.719 7.427 4.826 12.675 6.475 19.076 6.986v5.242c-.002 4.143 3.356 7.501 7.498 7.501z"/></g></svg>