<svg height="492pt" viewBox="-17 0 492 492.034" width="492pt" xmlns="http://www.w3.org/2000/svg"><path d="m3.449219 453.617188c2.097656.992187 4.574219.6875 6.371093-.78125l33.597657-27.523438 33.601562 27.523438c2.210938 1.8125 5.394531 1.8125 7.605469 0l33.585938-27.519532 33.601562 27.519532c2.226562 1.824218 5.4375 1.808593 7.648438-.035157l32.621093-27.222656 28.53125 26.976563c1.199219 1.132812 2.8125 1.722656 4.460938 1.628906 1.644531-.09375 3.183593-.859375 4.246093-2.121094l22.117188-26.226562h106.945312c14.082032.058593 26.082032-10.195313 28.230469-24.109376l21.484375-135.710937c1.242188-8.070313 8.207032-14.015625 16.371094-13.984375h27.144531c3.3125 0 6-2.683594 6-6 0-3.3125-2.6875-6-6-6h-27.144531c-14.078125-.054688-26.078125 10.195312-28.222656 24.109375l-2.285156 14.417969h-82.78125v-112.601563h78.714843c3.3125 0 6-2.683593 6-6v-111.601562c-.03125-25.789063-20.277343-47.03125-46.039062-48.2968752v-.0585938h-295.210938c-30.15625.0351562-54.5937498 24.472656-54.628906 54.625v393.566406c0 2.320313 1.335937 4.433594 3.433594 5.425782zm354.933593-39.78125h-47.199218v-35.265626h66.949218l-3.371093 21.28125c-1.246094 8.070313-8.210938 14.019532-16.378907 13.984376zm21.644532-47.265626h-136.089844c-7.066406-.003906-13.351562-4.480468-15.664062-11.152343l-22.472657-64.859375h186.261719zm3.867187-318.214843v105.601562h-72.714843v-105.601562c-.066407-13.03125 6.847656-25.105469 18.125-31.644531 11.273437-6.535157 25.1875-6.535157 36.464843 0 11.277344 6.539062 18.191407 18.613281 18.125 31.644531zm-371.878906 6.269531c.027344-23.53125 19.097656-42.597656 42.628906-42.625h261.0625c-10.503906 9.164062-16.527343 22.417969-16.527343 36.355469v230.203125h-101.808594c-1.941406 0-3.761719.9375-4.886719 2.519531-1.128906 1.582031-1.417969 3.609375-.78125 5.445313l25.230469 72.824218c3.992187 11.5 14.828125 19.210938 27 19.21875h55.242187v35.265625h-73.582031c-3.316406 0-6 2.6875-6 6 0 3.316407 2.683594 6 6 6h10.144531l-11.5 13.636719-27.792969-26.273438c-2.207031-2.089843-5.632812-2.195312-7.964843-.25l-32.902344 27.460938-33.558594-27.488281c-2.210937-1.808594-5.390625-1.808594-7.601562 0l-33.597657 27.519531-33.601562-27.519531c-2.210938-1.808594-5.386719-1.808594-7.597656 0l-27.601563 22.605469zm0 0"/><path d="m44.839844 203.464844h2.671875c3.3125 0 6-2.6875 6-6s-2.6875-6-6-6h-2.671875c-3.316406 0-6 2.6875-6 6s2.683594 6 6 6zm0 0"/><path d="m74.199219 203.464844h20.207031c3.3125 0 6-2.6875 6-6s-2.6875-6-6-6h-20.207031c-3.3125 0-6 2.6875-6 6s2.6875 6 6 6zm0 0"/><path d="m121.523438 203.464844h144.835937c3.3125 0 6-2.6875 6-6s-2.6875-6-6-6h-144.835937c-3.3125 0-6 2.6875-6 6s2.6875 6 6 6zm0 0"/><path d="m44.839844 146.480469h2.671875c3.3125 0 6-2.683594 6-6 0-3.3125-2.6875-6-6-6h-2.671875c-3.316406 0-6 2.6875-6 6 0 3.316406 2.683594 6 6 6zm0 0"/><path d="m74.199219 146.480469h20.207031c3.3125 0 6-2.683594 6-6 0-3.3125-2.6875-6-6-6h-20.207031c-3.3125 0-6 2.6875-6 6 0 3.316406 2.6875 6 6 6zm0 0"/><path d="m121.523438 146.480469h144.835937c3.3125 0 6-2.683594 6-6 0-3.3125-2.6875-6-6-6h-144.835937c-3.3125 0-6 2.6875-6 6 0 3.316406 2.6875 6 6 6zm0 0"/><path d="m44.839844 89.496094h2.671875c3.3125 0 6-2.683594 6-6 0-3.3125-2.6875-6-6-6h-2.671875c-3.316406 0-6 2.6875-6 6 0 3.316406 2.683594 6 6 6zm0 0"/><path d="m74.199219 89.496094h20.207031c3.3125 0 6-2.683594 6-6 0-3.3125-2.6875-6-6-6h-20.207031c-3.3125 0-6 2.6875-6 6 0 3.316406 2.6875 6 6 6zm0 0"/><path d="m121.523438 89.496094h144.835937c3.3125 0 6-2.683594 6-6 0-3.3125-2.6875-6-6-6h-144.835937c-3.3125 0-6 2.6875-6 6 0 3.316406 2.6875 6 6 6zm0 0"/><path d="m44.839844 260.449219h2.671875c3.3125 0 6-2.6875 6-6s-2.6875-6-6-6h-2.671875c-3.316406 0-6 2.6875-6 6s2.683594 6 6 6zm0 0"/><path d="m74.199219 260.449219h20.207031c3.3125 0 6-2.6875 6-6s-2.6875-6-6-6h-20.207031c-3.3125 0-6 2.6875-6 6s2.6875 6 6 6zm0 0"/><path d="m121.523438 260.449219h87.851562c3.3125 0 6-2.6875 6-6s-2.6875-6-6-6h-87.851562c-3.3125 0-6 2.6875-6 6s2.6875 6 6 6zm0 0"/><path d="m61.949219 378.507812c-.039063 0-.078125-.007812-.121094-.007812-.039063 0-.078125.007812-.121094.007812-6.015625-.074218-10.859375-4.964843-10.867187-10.984374 0-3.3125-2.6875-6-6-6-3.316406 0-6 2.6875-6 6 .011718 10.382812 6.972656 19.472656 16.988281 22.195312v4.90625c0 3.3125 2.6875 6 6 6 3.316406 0 6-2.6875 6-6v-4.90625c11.128906-3.007812 18.3125-13.792969 16.792969-25.222656-1.515625-11.425782-11.261719-19.960938-22.792969-19.960938-6.066406 0-10.988281-4.921875-10.988281-10.992187 0-6.070313 4.921875-10.988281 10.988281-10.988281 6.070313 0 10.992187 4.917968 10.992187 10.988281 0 3.316406 2.6875 6 6 6s6-2.683594 6-6c-.011718-10.378907-6.972656-19.46875-16.992187-22.191407v-4.132812c0-3.316406-2.683594-6-6-6-3.3125 0-6 2.683594-6 6v4.132812c-11.125 3.007813-18.308594 13.792969-16.789063 25.222657 1.515626 11.425781 11.261719 19.960937 22.789063 19.960937 6.035156.011719 10.929687 4.890625 10.964844 10.925782.03125 6.035156-4.808594 10.96875-10.84375 11.050781zm0 0"/><path d="m116.488281 375.226562h50.71875c3.3125 0 6-2.6875 6-6s-2.6875-6-6-6h-50.71875c-3.3125 0-6 2.6875-6 6s2.6875 6 6 6zm0 0"/><path d="m352.449219 438.757812c-14.710938 0-26.640625 11.925782-26.640625 26.636719 0 14.714844 11.925781 26.640625 26.640625 26.640625 14.710937 0 26.636719-11.929687 26.636719-26.640625-.015626-14.703125-11.933594-26.621093-26.636719-26.636719zm0 41.277344c-8.085938 0-14.636719-6.554687-14.640625-14.636718 0-8.085938 6.554687-14.640626 14.636718-14.640626 8.085938 0 14.640626 6.554688 14.640626 14.636719-.007813 8.082031-6.554688 14.628907-14.636719 14.640625zm0 0"/><path d="m232.910156 465.394531c0 14.710938 11.925782 26.640625 26.640625 26.640625 14.710938 0 26.636719-11.925781 26.636719-26.640625 0-14.710937-11.925781-26.636719-26.636719-26.636719-14.707031.015626-26.621093 11.933594-26.640625 26.636719zm41.277344 0c0 8.085938-6.550781 14.640625-14.636719 14.640625-8.085937 0-14.636719-6.554687-14.640625-14.636718 0-8.085938 6.554688-14.640626 14.640625-14.640626 8.078125.007813 14.628907 6.554688 14.640625 14.636719zm0 0"/></svg>