<svg id="Capa_1" enable-background="new 0 0 512 512" height="512" viewBox="0 0 512 512" width="512" xmlns="http://www.w3.org/2000/svg"><g><path d="m214.05 104.195c-11.046 0-20 8.954-20 20s8.954 20 20 20h111.807c11.046 0 20-8.954 20-20s-8.954-20-20-20z"/><path d="m474.296 400.83-28.407-28.407c12.613-18.238 19.401-39.843 19.401-62.49 0-29.429-11.461-57.096-32.27-77.906 0 0 0 0-.001 0-20.809-20.809-48.477-32.27-77.905-32.27s-57.096 11.46-77.905 32.27-32.269 48.477-32.269 77.906c0 25.978 8.93 50.583 25.338 70.31h-116.228v-340.243h213.906c9.87 0 17.9 8.03 17.9 17.9v78.635c0 11.046 8.954 20 20 20s20-8.954 20-20v-78.635c0-31.926-25.974-57.9-57.9-57.9h-270.206c-36.339 0-65.903 29.553-65.903 65.878v380.243c0 36.326 29.553 65.879 65.878 65.879h308.131c11.046 0 20-8.954 20-20s-8.954-20-20-20h-6.694v-61.017c6.441-2.809 12.613-6.246 18.442-10.276l28.407 28.407c3.905 3.905 9.024 5.858 14.143 5.858s10.237-1.953 14.143-5.858c7.809-7.811 7.809-20.474-.001-28.284zm-168.803-140.519c13.254-13.254 30.876-20.554 49.62-20.554s36.367 7.3 49.622 20.554h-.001c13.255 13.254 20.555 30.877 20.555 49.622 0 18.744-7.3 36.367-20.554 49.621-13.255 13.254-30.878 20.554-49.622 20.554s-36.366-7.299-49.621-20.554c-13.254-13.254-20.554-30.877-20.554-49.621.001-18.745 7.3-36.368 20.555-49.622zm-233.646-194.433c0-14.269 11.62-25.878 25.903-25.878h16.3v340.242h-16.325c-9.162 0-17.916 1.868-25.878 5.261zm25.878 406.122c-14.27 0-25.878-11.609-25.878-25.879 0-.917.055-1.885.164-2.877 0-.003.001-.006.001-.009 1.444-13.109 12.496-22.993 25.713-22.993h261.437v51.758z"/></g></svg>