<svg id="Layer_1" enable-background="new 0 0 64 64" height="512" viewBox="0 0 64 64" width="512" xmlns="http://www.w3.org/2000/svg"><path d="m56.922 8.615c-.051-.121-.124-.231-.216-.322l-7.999-7.999c-.091-.092-.201-.165-.322-.216-.121-.051-.251-.078-.385-.078h-39c-1.103 0-2 .897-2 2v60c0 1.103.897 2 2 2h46c1.103 0 2-.897 2-2v-53c0-.134-.027-.264-.078-.385zm-7.922-5.201 4.586 4.586h-4.586zm-40 58.586v-60h38v6c0 1.103.897 2 2 2h6v52z"/><path d="m50 40h-20c-.552 0-1 .448-1 1s.448 1 1 1h20c.552 0 1-.448 1-1s-.448-1-1-1z"/><path d="m50 44h-36c-.552 0-1 .448-1 1s.448 1 1 1h36c.552 0 1-.448 1-1s-.448-1-1-1z"/><path d="m50 48h-36c-.552 0-1 .448-1 1s.448 1 1 1h36c.552 0 1-.448 1-1s-.448-1-1-1z"/><path d="m39 52h-25c-.552 0-1 .448-1 1s.448 1 1 1h25c.552 0 1-.448 1-1s-.448-1-1-1z"/><path d="m17 32c1.654 0 3-1.346 3-3 0-.462-.113-.894-.301-1.285l7.015-7.015c.392.187.824.3 1.286.3s.894-.113 1.285-.301l4.015 4.015c-.187.392-.3.824-.3 1.286 0 1.654 1.346 3 3 3s3-1.346 3-3c0-.462-.113-.894-.301-1.285l7.015-7.015c.392.187.824.3 1.286.3 1.654 0 3-1.346 3-3s-1.346-3-3-3-3 1.346-3 3c0 .462.113.894.301 1.285l-7.015 7.015c-.392-.187-.824-.3-1.286-.3s-.894.113-1.285.301l-4.015-4.015c.187-.392.3-.824.3-1.286 0-1.654-1.346-3-3-3s-3 1.346-3 3c0 .462.113.894.301 1.285l-7.015 7.015c-.392-.187-.824-.3-1.286-.3-1.654 0-3 1.346-3 3s1.346 3 3 3zm30-18c.551 0 1 .449 1 1s-.449 1-1 1-1-.449-1-1 .449-1 1-1zm-10 12c0 .551-.449 1-1 1s-1-.449-1-1 .449-1 1-1 1 .449 1 1zm-9-9c.551 0 1 .449 1 1s-.449 1-1 1-1-.449-1-1 .449-1 1-1zm-11 11c.551 0 1 .449 1 1s-.449 1-1 1-1-.449-1-1 .449-1 1-1z"/><circle cx="26" cy="41" r="1"/><circle cx="43" cy="53" r="1"/><circle cx="22" cy="41" r="1"/></svg>