<svg fill="none" height="512" viewBox="0 0 24 24" width="512" xmlns="http://www.w3.org/2000/svg" xmlns:xlink="http://www.w3.org/1999/xlink"><linearGradient id="paint0_linear_1796_28391" gradientUnits="userSpaceOnUse" x1="12" x2="12" y1="2" y2="22"><stop offset="0" stop-color="#fd6700"/><stop offset="1" stop-color="#ffce00"/></linearGradient><path clip-rule="evenodd" d="m17 4v1.92072c-1.4523-.90069-3.1654-1.42072-5-1.42072s-3.5477.52003-5 1.42072v-1.92072c0-1.10457.89543-2 2-2h6c1.1046 0 2 .89543 2 2zm3 10c0 4.4183-3.5817 8-8 8-4.41828 0-8-3.5817-8-8 0-4.41828 3.58172-8 8-8 4.4183 0 8 3.58172 8 8zm-7.2131-3.4914.5563 1.1719c.1278.2692.3748.4559.6606.4991l1.2439.1879c.7198.1087 1.0072 1.0283.4864 1.5561l-.9001.9122c-.2068.2096-.3012.5116-.2524.8076l.2125 1.288c.1229.7453-.6295 1.3137-1.2732.9618l-1.1126-.6082c-.2556-.1397-.561-.1397-.8166 0l-1.1126.6082c-.64374.3519-1.39613-.2165-1.27319-.9618l.21249-1.288c.04882-.296-.04556-.598-.25237-.8076l-.90008-.9122c-.5208-.5278-.23342-1.4474.48631-1.5561l1.24389-.1879c.28585-.0432.53285-.2299.66065-.4991l.5563-1.1719c.3219-.67812 1.2519-.67812 1.5738 0z" fill="url(#paint0_linear_1796_28391)" fill-rule="evenodd"/></svg>