<svg id="Layer_1" enable-background="new 0 0 512 512" viewBox="0 0 512 512" xmlns="http://www.w3.org/2000/svg"><path d="m106.44 220.1c49.65 0 90.04-40.39 90.04-90.03s-40.39-90.04-90.04-90.04-90.04 40.39-90.04 90.04 40.4 90.03 90.04 90.03zm0-168.07c43.03 0 78.04 35.01 78.04 78.04s-35.01 78.03-78.04 78.03-78.04-35.01-78.04-78.03c.01-43.03 35.02-78.04 78.04-78.04zm-27.27 58.72c0-11.78 9.08-21.68 21.27-24.34v-9.64c0-3.31 2.69-6 6-6s6 2.69 6 6v9.43c9.59 1.73 17.64 7.91 20.89 16.48 1.17 3.1-.39 6.56-3.49 7.74s-6.56-.39-7.74-3.49c-2.06-5.44-8.28-9.24-15.12-9.24-8.58 0-15.82 5.98-15.82 13.05 0 3.74 1.6 8.29 6.09 9.82l11.13 3.82c.09.03.18.07.27.1l13.63 5.43c7.15 2.85 11.42 10.12 11.42 19.46 0 11.78-9.08 21.68-21.28 24.34v9.64c0 3.31-2.69 6-6 6s-6-2.69-6-6v-9.43c-9.59-1.73-17.64-7.91-20.88-16.48-1.17-3.1.39-6.56 3.48-7.74 3.1-1.17 6.56.39 7.74 3.49 2.06 5.44 8.28 9.24 15.12 9.24 8.58 0 15.82-5.98 15.82-13.05 0-1.59-.28-6.88-3.87-8.31l-13.5-5.38-10.99-3.77c-8.6-2.95-14.17-11.26-14.17-21.17zm-41.07 238.76c-3.31 0-6 2.69-6 6v90.5c0 3.31 2.69 6 6 6h70.82c3.31 0 6-2.69 6-6v-90.5c0-3.31-2.69-6-6-6zm64.82 90.5h-58.82v-78.5h58.82zm51.55-132.78c-3.31 0-6 2.69-6 6v132.78c0 3.31 2.69 6 6 6h70.82c3.31 0 6-2.69 6-6v-132.78c0-3.31-2.69-6-6-6zm64.82 132.78h-58.82v-120.78h58.82zm51.54-192.56c-3.31 0-6 2.69-6 6v192.56c0 3.31 2.69 6 6 6h70.82c3.31 0 6-2.69 6-6v-192.56c0-3.31-2.69-6-6-6zm64.83 192.56h-58.82v-180.56h58.82zm45.54-278.36v284.36c0 3.31 2.69 6 6 6h70.82c3.31 0 6-2.69 6-6v-284.36c0-3.31-2.69-6-6-6h-70.82c-3.31 0-6 2.68-6 6zm12 6h58.82v272.36h-58.82zm-342.67 97.68c-9.75 0-19.69-.26-29.83-.77-3.31-.17-5.86-2.98-5.69-6.29s2.98-5.85 6.29-5.69c159.85 8.05 273.89-48.6 358.24-178.16l-33.82 7.54c-3.23.72-6.44-1.32-7.16-4.55s1.32-6.44 4.55-7.16l46.85-10.45c3.22-.72 6.42 1.3 7.16 4.53l10.55 46.42c.73 3.23-1.29 6.45-4.52 7.18-.45.1-.89.15-1.33.15-2.74 0-5.21-1.89-5.84-4.67l-7.11-31.31c-23.74 36.2-50.44 67.33-79.48 92.63-28.47 24.81-60.02 44.75-93.77 59.25-48.93 21.02-103.18 31.35-165.09 31.35zm446.47-230.95v443.24c0 3.31-2.69 6-6 6-.01 0-.01 0-.02 0h-454.11c-3.31 0-6-2.69-6-6s2.69-6 6-6h448.13v-437.24c0-3.31 2.69-6 6-6s6 2.69 6 6z"/></svg>