<svg id="Layer_1" enable-background="new 0 0 66 66" height="512" viewBox="0 0 66 66" width="512" xmlns="http://www.w3.org/2000/svg"><g><path d="m55.75 6.06h-2.09v-2.09c0-1.57-1.28-2.85-2.85-2.85h-40.56c-1.57.01-2.85 1.28-2.85 2.85v53.12c0 1.57 1.28 2.85 2.85 2.85h2.09v2.09c0 1.57 1.28 2.85 2.85 2.85h38.55c2.69 0 4.88-2.19 4.88-4.88v-51.09c-.02-1.57-1.3-2.85-2.87-2.85zm-46.6 51.03v-53.12c0-.61.49-1.1 1.1-1.1h40.57c.61 0 1.1.49 1.1 1.1v53.12c0 .61-.49 1.1-1.1 1.1h-40.57c-.61 0-1.1-.49-1.1-1.1zm47.7 2.91c0 1.72-1.4 3.13-3.13 3.13h-38.54c-.61 0-1.1-.49-1.1-1.1v-2.09h36.74c1.57 0 2.85-1.28 2.85-2.85v-49.28h2.09c.61 0 1.1.49 1.1 1.1v51.09z"/><path d="m34.03 26.21-5.14 5.14-3.05-3.05c-.98-.99-2.7-.98-3.69 0l-6.62 6.62c-1.02 1.02-1.02 2.67 0 3.69.49.49 1.15.76 1.84.76.7 0 1.35-.27 1.84-.76l4.77-4.77 3.05 3.05c1.02 1.02 2.67 1.02 3.69 0l6.98-6.99.99.99c.66.66 1.65.86 2.52.5s1.43-1.2 1.43-2.13v-5.7c0-1.27-1.04-2.31-2.31-2.31h-5.7c-.95 0-1.77.55-2.13 1.43-.36.87-.16 1.85.5 2.52zm.08-2.88c.04-.1.18-.35.52-.35h5.7c.31 0 .56.25.56.56v5.7c0 .34-.24.47-.35.52-.1.04-.37.12-.61-.12l-1.6-1.6c-.34-.34-.9-.34-1.24 0l-7.6 7.6c-.33.33-.88.33-1.21 0l-3.67-3.67c-.16-.16-.39-.26-.62-.26s-.45.09-.62.26l-5.39 5.39c-.33.32-.89.32-1.21 0-.33-.33-.33-.88 0-1.21l6.62-6.62c.16-.16.38-.25.61-.25s.44.09.61.25l3.67 3.67c.34.34.9.34 1.24 0l6.38-6.38c.16-.16.26-.39.26-.62s-.09-.45-.26-.62l-1.65-1.65c-.26-.23-.18-.5-.14-.6z"/><path d="m48.7 55.43c.48 0 .88-.39.88-.88s-.39-.88-.88-.88h-2.25v-20.03c0-.48-.39-.88-.88-.88h-4.3c-.48 0-.88.39-.88.88v20.03h-2.55v-15.02c0-.48-.39-.88-.88-.88h-4.3c-.48 0-.88.39-.88.88v15.03h-2.55v-10.03c0-.48-.39-.88-.88-.88h-4.3c-.48 0-.88.39-.88.88v10.03h-2.55v-5.02c0-.48-.39-.88-.88-.88h-4.3c-.48 0-.88.39-.88.88v5.02h-2.25c-.48 0-.88.39-.88.88s.39.88.88.88h36.39zm-6.55-20.91h2.55v19.16h-2.55zm-8.59 5h2.55v14.16h-2.55zm-8.6 5h2.55v9.15h-2.55zm-8.6 5.01h2.55v4.15h-2.55z"/><path d="m21.21 23.82c4.9 0 8.88-3.98 8.88-8.88s-3.98-8.88-8.88-8.88-8.88 3.98-8.88 8.88 3.99 8.88 8.88 8.88zm7.08-9.75h-6.2v-6.2c3.23.39 5.81 2.96 6.2 6.2zm-7.95-6.21v7.08c0 .48.39.88.88.88h7.08c-.43 3.52-3.44 6.26-7.08 6.26-3.93 0-7.13-3.2-7.13-7.13-.01-3.64 2.73-6.65 6.25-7.09z"/><path d="m34.83 9.67h13.87c.48 0 .88-.39.88-.88s-.39-.88-.88-.88h-13.87c-.48 0-.88.39-.88.88s.4.88.88.88z"/><path d="m34.83 13.47h13.87c.48 0 .88-.39.88-.88s-.39-.88-.88-.88h-13.87c-.48 0-.88.39-.88.88s.4.88.88.88z"/><path d="m48.7 15.51h-7.43c-.48 0-.88.39-.88.88s.39.88.88.88h7.43c.48 0 .88-.39.88-.88s-.39-.88-.88-.88z"/></g></svg>