<svg enable-background="new 0 0 512 512" height="512" viewBox="0 0 512 512" width="512" xmlns="http://www.w3.org/2000/svg"><g id="_x30_4_Backup"><g><g><g><path d="m509.247 256.108c0 119.512-93.759 218.506-213.324 224.535-8.778.529-16.763-6.451-16.763-15.864v-39.132c0-8.355 6.504-15.283 14.754-15.812 84.293-5.129 149.602-77.841 144.208-163.615-4.865-77.101-66.683-138.919-143.785-143.732-84.24-5.288-157.587 58.699-163.509 142.674-.212 3.014 2.221 5.711 5.341 5.711h35.219c13.379 0 20.729 15.547 12.269 25.912l-76.361 93.018c-6.346 7.721-18.191 7.721-24.537 0l-76.362-93.018c-8.514-10.365-1.163-25.912 12.269-25.912h35.959c2.803 0 5.13-2.168 5.235-4.918 5.606-125.276 113.431-222.948 240.611-214.064 110.945 7.773 200.474 97.249 208.195 208.194.369 5.394.581 10.735.581 16.023z"/></g></g></g></g></svg>