<svg id="Layer_1" enable-background="new 0 0 66 66" viewBox="0 0 66 66" xmlns="http://www.w3.org/2000/svg"><g><path d="m64.13 62.05h-62.26c-.47 0-.85.38-.85.85s.38.85.85.85h62.27c.47 0 .85-.38.85-.85s-.39-.85-.86-.85z"/><path d="m15.52 59.86c.47 0 .85-.38.85-.85v-5.51c0-1.54-1.26-2.8-2.8-2.8h-5.54c-1.54 0-2.8 1.25-2.8 2.8v5.51c0 .47.38.85.85.85s.85-.38.85-.85v-5.51c0-.61.48-1.09 1.09-1.09h5.55c.61 0 1.09.48 1.09 1.09v5.51c.01.47.39.85.86.85z"/><path d="m30.32 59.86c.47 0 .85-.38.85-.85v-16.34c0-1.54-1.26-2.8-2.8-2.8h-5.55c-1.54 0-2.8 1.25-2.8 2.8v16.35c0 .47.38.85.85.85s.85-.38.85-.85v-16.35c0-.6.49-1.09 1.09-1.09h5.55c.6 0 1.09.49 1.09 1.09v16.35c.02.46.4.84.87.84z"/><path d="m45.12 59.86c.47 0 .85-.38.85-.85v-24.87c0-1.54-1.26-2.8-2.8-2.8h-5.55c-1.54 0-2.8 1.25-2.8 2.8v24.87c0 .47.38.85.85.85s.85-.38.85-.85v-24.87c0-.61.48-1.09 1.09-1.09h5.55c.6 0 1.09.49 1.09 1.09v24.87c.02.47.4.85.87.85z"/><path d="m52.42 22.85c-1.54 0-2.8 1.25-2.8 2.8v33.36c0 .47.38.85.85.85s.85-.38.85-.85v-33.36c0-.6.49-1.09 1.09-1.09h5.56c.6 0 1.09.49 1.09 1.09v33.36c0 .47.38.85.85.85s.85-.38.85-.85v-33.36c0-1.54-1.26-2.8-2.8-2.8z"/><path d="m8.63 35.61c-.67.14-1.24.52-1.62 1.09s-.51 1.25-.37 1.92c.24 1.18 1.29 2.04 2.5 2.04.17 0 .34-.02.51-.05 17.17-3.51 31.45-12.33 43.64-26.96l1.98 1.32c.68.45 1.55.49 2.27.1s1.16-1.14 1.16-1.96l-.06-8.67c-.01-.74-.38-1.42-.99-1.83s-1.39-.48-2.06-.2l-8.01 3.31c-.76.31-1.28 1.01-1.35 1.83-.08.82.3 1.6.98 2.06l1.81 1.2c-11.36 13.45-24.58 21.57-40.39 24.8zm42.11-25.69-2.6-1.73c-.23-.15-.23-.38-.22-.47s.06-.31.31-.42l8.01-3.31c.07-.03.13-.04.19-.04.13 0 .23.05.28.09.07.04.23.18.23.42l.06 8.66c0 .27-.18.41-.27.45-.08.04-.29.13-.52-.02l-2.62-1.74c-.37-.24-.85-.17-1.13.17-12.04 14.67-26.16 23.49-43.15 26.96-.46.09-.91-.21-1-.66-.05-.22 0-.45.12-.64.13-.19.32-.32.54-.36 16.5-3.37 30.22-11.91 41.96-26.11.15-.19.22-.43.19-.67-.04-.24-.18-.45-.38-.58z"/><path d="m16.19 27.85c6.75 0 12.25-5.49 12.25-12.25s-5.5-12.24-12.25-12.24-12.25 5.49-12.25 12.24 5.49 12.25 12.25 12.25zm0-22.79c5.82 0 10.55 4.73 10.55 10.55s-4.74 10.54-10.55 10.54-10.55-4.73-10.55-10.55 4.73-10.54 10.55-10.54z"/><path d="m16.19 20.33c-1.07 0-1.94-.87-1.94-1.94 0-.47-.38-.85-.85-.85s-.85.38-.85.85c0 1.71 1.19 3.14 2.79 3.53v.56c0 .47.38.85.85.85s.85-.38.85-.85v-.56c1.6-.39 2.79-1.82 2.79-3.53 0-2.01-1.63-3.64-3.64-3.64-1.07 0-1.94-.87-1.94-1.94s.87-1.94 1.94-1.94 1.94.87 1.94 1.94c0 .47.38.85.85.85s.85-.38.85-.85c0-1.71-1.19-3.14-2.79-3.53v-.55c0-.47-.38-.85-.85-.85s-.85.38-.85.85v.56c-1.6.39-2.79 1.82-2.79 3.53 0 2.01 1.63 3.64 3.64 3.64 1.07 0 1.94.87 1.94 1.94-.01 1.06-.87 1.93-1.94 1.93z"/></g></svg>