<?xml version="1.0" encoding="UTF-8"?>
<svg xmlns="http://www.w3.org/2000/svg" viewBox="0 0 64 64" width="512" height="512"><g id="Layer_6" data-name="Layer 6"><path d="M18,20c-1.221,0-2-.592-2-1a1,1,0,0,0-2,0c0,1.421,1.259,2.571,3,2.9V23a1,1,0,0,0,2,0V21.9c1.741-.327,3-1.477,3-2.9,0-1.682-1.757-3-4-3-1.221,0-2-.592-2-1s.779-1,2-1,2,.592,2,1a1,1,0,0,0,2,0c0-1.421-1.259-2.571-3-2.9V11.059a1,1,0,1,0-2,0V12.1c-1.741.327-3,1.477-3,2.9,0,1.682,1.757,3,4,3,1.221,0,2,.592,2,1S19.221,20,18,20Z"/><path d="M27,18H39a1,1,0,0,0,0-2H27a1,1,0,0,0,0,2Z"/><path d="M27,14H45a1,1,0,0,0,0-2H27a1,1,0,0,0,0,2Z"/><path d="M33,20a1,1,0,0,0,0,2h2a1,1,0,0,0,0-2Z"/><path d="M27,22h2a1,1,0,0,0,0-2H27a1,1,0,0,0,0,2Z"/><path d="M55,2H13a1,1,0,0,0-1,1V6H9A1,1,0,0,0,8,7V61a1,1,0,0,0,.61.92.986.986,0,0,0,1.08-.2l3.51-3.34,3.5,3.34a1,1,0,0,0,1.38,0l3.51-3.34,3.51,3.34a1,1,0,0,0,1.38,0l3.51-3.34,3.51,3.34a1,1,0,0,0,1.38,0l3.51-3.34,3.51,3.34a1,1,0,0,0,1.38,0l3.51-3.34,3.52,3.34A1.012,1.012,0,0,0,51,62a1.046,1.046,0,0,0,.39-.08A1,1,0,0,0,52,61V55.53l2.31,2.2A1,1,0,0,0,55,58a1.046,1.046,0,0,0,.39-.08A1,1,0,0,0,56,57V3A1,1,0,0,0,55,2ZM50,58.67l-2.52-2.39a.984.984,0,0,0-1.37,0l-3.52,3.34-3.51-3.34a.985.985,0,0,0-.69-.28.968.968,0,0,0-.69.28l-3.51,3.34-3.51-3.34a1,1,0,0,0-1.38,0l-3.51,3.34-3.51-3.34a1,1,0,0,0-1.38,0l-3.51,3.34-3.5-3.34a1,1,0,0,0-1.38,0L10,58.67V8H50Zm4-4-2-1.9V7a1,1,0,0,0-1-1H14V4H54Z"/><path d="M45,26H15a1,1,0,0,0-1,1V45a1,1,0,0,0,1,1H45a1,1,0,0,0,1-1V27A1,1,0,0,0,45,26ZM36,44H16V34H36Zm0-12H16V28H36Zm8,12H38V34h6Zm0-12H38V28h6Z"/><path d="M45,48H32a1,1,0,0,0-1,1v4a1,1,0,0,0,1,1H45a1,1,0,0,0,1-1V49A1,1,0,0,0,45,48Zm-1,4H33V50H44Z"/></g></svg>
