<svg id="Layer_1" enable-background="new 0 0 511.898 511.898" height="512" viewBox="0 0 511.898 511.898" width="512" xmlns="http://www.w3.org/2000/svg"><path d="m256 425.949c-82.13 0-164.478-57.157-218.968-94.979-24.16-16.77-36.962-42.615-37.032-74.755-.089-32.401 13.083-59.526 37.03-76.13 50.724-35.208 135.621-94.136 218.968-94.136 83.348 0 168.246 58.928 218.97 94.136 48.787 31.327 49.688 119.539 0 150.885-54.49 37.822-136.838 94.979-218.968 94.979zm-216.001-170.217c-.062 19.13 6.437 33.1 19.841 42.378 160.532 115.745 232.041 115.519 392.321 0 26.872-16.319 26.185-68.955 0-85.165-159.351-114.593-233.258-114.339-392.321 0-13.117 9.103-19.792 23.498-19.841 42.787zm216.001 97.217c-52.649 1.061-99.047-44.228-98-97v-.156c-.553-86.226 106.425-130.275 167.17-69.764 61.964 60.079 16.921 167.616-69.17 166.92zm0-155c-31.981 0-58 25.949-58 57.844v.156c0 31.962 25.477 57 58 57 76.102-2.561 77.56-112.907 0-115zm-.002 31.999c-13.807 0-25 11.193-25 25 1.226 33.126 48.779 33.117 50 0 0-13.807-11.193-25-25-25z"/></svg>