<svg enable-background="new 0 0 16 16" viewBox="0 0 16 16" xmlns="http://www.w3.org/2000/svg"><g id="grid" display="none"/><g id="_x31_px" style="display:none;fill:none;stroke:#000;stroke-linecap:round;stroke-linejoin:round;stroke-miterlimit:10"><path d="m5.4 4c3.4-1.3 6.7 0 10.1 4-5 6-10 6-15 0 1-1.3 2.1-2.2 3.1-3" display="inline"/><circle cx="8" cy="8" display="inline" r="2.5"/></g><g id="line_expanded"><g><path d="m15.9 7.7c-3.5-4.2-7.1-5.6-10.6-4.1-.3.1-.4.4-.3.6.1.3.4.4.7.3 3.1-1.3 6.1-.1 9.2 3.5-4.6 5.3-9.1 5.3-13.7 0 .9-1.1 1.8-1.9 2.7-2.6.2-.1.3-.4.1-.6-.1-.3-.4-.3-.7-.2-1 .8-2.1 1.8-3.2 3.1-.1.2-.1.4 0 .6 2.6 3.1 5.3 4.7 7.9 4.7s5.3-1.6 7.9-4.7c.1-.2.1-.4 0-.6z"/><path d="m11 8c0-1.7-1.3-3-3-3s-3 1.3-3 3 1.3 3 3 3 3-1.3 3-3zm-5 0c0-1.1.9-2 2-2s2 .9 2 2-.9 2-2 2-2-.9-2-2z"/></g></g></svg>