<svg id="Layer_1" enable-background="new 0 0 66 66" height="512" viewBox="0 0 66 66" width="512" xmlns="http://www.w3.org/2000/svg"><g><g><g><path d="m11.9 64.9c-1.2 0-2.4-.5-3.3-1.4-1-1-1.6-2.3-1.6-3.6v-43.8c0-.6.4-1 1-1s1 .4 1 1v43.8c0 .8.3 1.6 1 2.2.6.6 1.3.9 2.1.8h41.8c1.7 0 3.1-1.4 3.1-3.1v-53.7c0-1.7-1.4-3.1-3.1-3.1h-31.8c-.6 0-1-.4-1-1s.4-1 1-1h31.8c2.8 0 5.1 2.3 5.1 5.1v53.7c0 2.8-2.3 5.1-5.1 5.1h-41.8c-.1 0-.1 0-.2 0z"/></g><g><path d="m20.2 17.1h-12.2c-.4 0-.8-.2-.9-.6-.2-.4-.1-.8.2-1.1l14.1-14.1c.3-.3.7-.4 1.1-.2s.6.5.6.9v12.1c0 1.6-1.3 3-2.9 3zm-9.8-2h9.8c.4 0 .9-.4.9-1v-9.7z"/></g></g><g><path d="m51 58.3h-36c-.6 0-1-.4-1-1v-29.5c0-.6.4-1 1-1s1 .4 1 1v28.5h35c.6 0 1 .4 1 1s-.4 1-1 1z"/></g><g><g><g><path d="m23.6 58.3h-3.9c-.6 0-1-.4-1-1v-10.1c0-.6.4-1 1-1h3.9c.6 0 1 .4 1 1v10.1c0 .6-.4 1-1 1zm-2.9-2h1.9v-8.1h-1.9z"/></g><g><path d="m31.9 58.3h-3.9c-.6 0-1-.4-1-1v-16.6c0-.6.4-1 1-1h3.9c.6 0 1 .4 1 1v16.6c0 .6-.4 1-1 1zm-2.9-2h1.9v-14.6h-1.9z"/></g><g><path d="m40.1 58.3h-3.9c-.6 0-1-.4-1-1v-13c0-.6.4-1 1-1h3.9c.6 0 1 .4 1 1v13c0 .6-.4 1-1 1zm-2.9-2h1.9v-11h-1.9z"/></g><g><path d="m48.4 58.3h-3.9c-.6 0-1-.4-1-1v-20.8c0-.6.4-1 1-1h3.9c.6 0 1 .4 1 1v20.8c0 .6-.4 1-1 1zm-2.9-2h1.9v-18.8h-1.9z"/></g></g><g><g><path d="m47 30.6c-.5 0-.9-.4-1-.9l-.5-3.7-3.6.5c-.5.1-1-.3-1.1-.9-.1-.5.3-1 .9-1.1l4.6-.6c.3 0 .5 0 .7.2s.3.4.4.7l.6 4.7c.1.5-.3 1-.9 1.1z"/></g><g><path d="m21.6 41.5c-.2 0-.4-.1-.6-.2-.5-.3-.6-.9-.3-1.4l8.3-12.2c.2-.3.4-.4.8-.4.3 0 .6.1.8.3l7.1 7.7 7.9-11c.3-.4.9-.6 1.4-.2.4.3.6.9.2 1.4l-8.6 12c-.2.2-.5.4-.8.4s-.6-.1-.8-.3l-7-7.7-7.6 11.2c-.2.2-.5.4-.8.4z"/></g></g></g><g><path d="m49.7 8.7h-3.6c-.6 0-1-.4-1-1s.4-1 1-1h3.6c.6 0 1 .4 1 1s-.4 1-1 1z"/></g><g><path d="m42 8.7h-13.4c-.6 0-1-.4-1-1s.4-1 1-1h13.4c.6 0 1 .4 1 1s-.4 1-1 1z"/></g><g><path d="m49.6 13.6h-12.3c-.6 0-1-.4-1-1s.4-1 1-1h12.3c.6 0 1 .4 1 1s-.4 1-1 1z"/></g><g><path d="m33 13.6h-4.4c-.6 0-1-.4-1-1s.4-1 1-1h4.4c.6 0 1 .4 1 1s-.4 1-1 1z"/></g><g><path d="m49.7 18.5h-6.7c-.6 0-1-.4-1-1s.4-1 1-1h6.7c.6 0 1 .4 1 1s-.4 1-1 1z"/></g><g><path d="m38.8 18.5h-10.2c-.6 0-1-.4-1-1s.4-1 1-1h10.2c.6 0 1 .4 1 1s-.4 1-1 1z"/></g></g></svg>