<svg height="512" viewBox="0 0 64 64" width="512" xmlns="http://www.w3.org/2000/svg"><g id="mobilephone-smartphone-payment-pay-money"><path d="m15 3h34v22h-34z" fill="#5eac24"/><path d="m46 10v8a4 4 0 0 0 -4 4h-20a4 4 0 0 0 -4-4v-8a4 4 0 0 0 4-4h20a4 4 0 0 0 4 4z" fill="#9de06c"/><circle cx="32" cy="14" fill="#4e901e" r="4"/><path d="m9 14h46v34h-46z" fill="#ffeb99"/><path d="m21 48h34v-34a34 34 0 0 1 -34 34z" fill="#ffe477"/><rect fill="#58595b" height="3" rx="1.5" width="40" x="12" y="22"/><path d="m57 14h-2v34h2a4 4 0 0 0 4-4v-26a4 4 0 0 0 -4-4z" fill="#006df0"/><path d="m7 14a4 4 0 0 0 -4 4v26a4 4 0 0 0 4 4h2v-34z" fill="#006df0"/><path d="m42 36a2 2 0 0 0 -2 2 2 2 0 0 0 -4 0 2 2 0 0 0 -4 0v-8a2 2 0 0 0 -4 0v16l-2.918-4.085a3 3 0 0 0 -4.586-.353l-.488.5 7.322 10.994a4 4 0 0 1 .67 2.217v5.727h14v-4.794a4 4 0 0 1 .682-2.234l.648-.962a4.058 4.058 0 0 0 .67-2.13v-12.88a2 2 0 0 0 -2-2z" fill="#ffbcab"/><path d="m24.08 41.92 3.92 5.641v-1.561l-2.92-4.08a2.985 2.985 0 0 0 -2.96-1.2 2.96 2.96 0 0 1 1.96 1.2z" fill="#ff9478"/><path d="m40 38a2 2 0 0 0 -2-2 1.966 1.966 0 0 0 -.5.071 2 2 0 0 1 1.5 1.929v2h1z" fill="#ff9478"/><path d="m36 38a2 2 0 0 0 -2-2 1.966 1.966 0 0 0 -.5.071 2 2 0 0 1 1.5 1.929v2h1z" fill="#ff9478"/><path d="m32 30v10h-1v-10a2 2 0 0 0 -1.5-1.93 2.08 2.08 0 0 1 .5-.07 2.006 2.006 0 0 1 2 2z" fill="#ff9478"/><path d="m15 14h34v11h-34z" fill="#529720"/><path d="m18 14v4a4 4 0 0 1 4 4h20a4 4 0 0 1 4-4v-4z" fill="#91dc5a"/><path d="m32 18a4 4 0 0 0 4-4h-8a4 4 0 0 0 4 4z" fill="#447e1a"/><path d="m40 15h2a1 1 0 0 0 0-2h-2a1 1 0 0 0 0 2z" fill="#4e901e"/><path d="m24 15a1 1 0 0 0 0-2h-2a1 1 0 0 0 0 2z" fill="#4e901e"/><path d="m58 29a1 1 0 0 0 -1 1v2a1 1 0 0 0 2 0v-2a1 1 0 0 0 -1-1z" fill="#004fac"/><path d="m6 29a1 1 0 0 0 -1 1v2a1 1 0 0 0 2 0v-2a1 1 0 0 0 -1-1z" fill="#004fac"/><g fill="#ff7956"><path d="m36 30h15a1 1 0 0 0 0-2h-15a1 1 0 0 0 0 2z"/><path d="m52 33a1 1 0 0 0 -1-1h-15a1 1 0 0 0 0 2h15a1 1 0 0 0 1-1z"/><path d="m51 36h-3a1 1 0 0 0 0 2h3a1 1 0 0 0 0-2z"/><path d="m51 40h-3a1 1 0 0 0 0 2h3a1 1 0 0 0 0-2z"/><path d="m24 28h-11a1 1 0 0 0 0 2h11a1 1 0 0 0 0-2z"/><path d="m24 32h-11a1 1 0 0 0 0 2h11a1 1 0 0 0 0-2z"/><path d="m24 36h-11a1 1 0 0 0 0 2h11a1 1 0 0 0 0-2z"/><path d="m17 40h-4a1 1 0 0 0 0 2h4a1 1 0 0 0 0-2z"/></g><path d="m42 36a1.966 1.966 0 0 0 -.5.071 2 2 0 0 1 1.5 1.929v12.88a4.058 4.058 0 0 1 -.67 2.13l-.648.962a4 4 0 0 0 -.682 2.234v4.794h1v-4.794a4 4 0 0 1 .682-2.234l.648-.962a4.058 4.058 0 0 0 .67-2.13v-12.88a2 2 0 0 0 -2-2z" fill="#ff9478"/></g></svg>