<svg id="Layer_1" enable-background="new 0 0 512 512" viewBox="0 0 512 512" xmlns="http://www.w3.org/2000/svg"><path d="m437.514 1h-281.959c-6.944 0-13.211 2.596-18.122 7.506l-81.068 81.07c-4.911 4.91-7.507 11.176-7.507 18.123v377.673c0 14.131 11.496 25.627 25.627 25.627h363.029c14.131 0 25.628-11.497 25.628-25.627v-458.745c0-14.13-11.497-25.627-25.628-25.627zm-297.261 27.314v56.167c0 4.365-3.551 7.916-7.916 7.916h-56.165zm306.889 457.059c0 5.309-4.319 9.627-9.628 9.627h-363.029c-5.309 0-9.627-4.319-9.627-9.627v-376.976h67.479c13.188 0 23.916-10.729 23.916-23.916v-67.481h281.261c5.309 0 9.628 4.319 9.628 9.627zm-123.203-192.442v-124.061c0-4.418-3.582-8-8-8h-43.651c-4.418 0-8 3.582-8 8v124.062c0 4.418 3.582 8 8 8h43.651c4.418-.001 8-3.582 8-8.001zm-16-8h-27.651v-108.061h27.651zm-111.879-160.299c-4.418 0-8 3.582-8 8v160.299c0 4.418 3.582 8 8 8h43.651c4.418 0 8-3.582 8-8v-160.299c0-4.418-3.582-8-8-8zm35.651 160.299h-27.651v-144.299h27.651zm-111.878 16h43.651c4.418 0 8-3.582 8-8v-76.036c0-4.418-3.582-8-8-8h-43.651c-4.418 0-8 3.582-8 8v76.036c0 4.419 3.583 8 8 8zm8-76.035h27.651v60.036h-27.651zm264.333-134.405h-43.65c-4.418 0-8 3.582-8 8v194.44c0 4.418 3.582 8 8 8h43.65c4.418 0 8-3.582 8-8v-194.44c0-4.419-3.583-8-8-8zm-8 194.44h-27.65v-178.44h27.65zm-248.848-125.296 76.228-99.107c2.569-3.341 7.291-4.115 10.794-1.769l70.984 47.569 59.726-55.144-11.944-.563c-4.414-.208-7.823-3.954-7.615-8.368.208-4.413 3.964-7.825 8.367-7.615l32.133 1.514c2.304.109 4.449 1.206 5.885 3.011s2.022 4.142 1.61 6.411l-5.75 31.65c-.702 3.864-4.069 6.571-7.862 6.572-.475 0-.955-.042-1.438-.13-4.348-.79-7.231-4.954-6.441-9.301l1.706-9.39-62.159 57.391c-2.719 2.51-6.808 2.828-9.88.768l-70.002-46.91-71.66 93.166c-1.575 2.048-3.948 3.123-6.347 3.123-1.702 0-3.418-.541-4.871-1.659-3.503-2.694-4.158-7.717-1.464-11.219zm107.932 181.249h-116.292c-8.34 0-15.124 6.785-15.124 15.124v98.632c0 8.339 6.784 15.124 15.124 15.124h116.292c8.34 0 15.124-6.785 15.124-15.124v-98.632c.001-8.34-6.784-15.124-15.124-15.124zm-71.252 16h26.212v9.703l-6.038-4.95c-4.096-3.358-10.042-3.358-14.136 0l-6.038 4.951zm70.377 96.88h-114.542v-96.88h28.164v19.955c0 4.355 2.444 8.218 6.378 10.08s8.471 1.303 11.839-1.458l10.89-8.928 10.889 8.927c2.05 1.681 4.531 2.546 7.048 2.546 1.618 0 3.25-.358 4.79-1.086 3.935-1.862 6.379-5.724 6.379-10.08v-19.955h28.165zm-69.822-41.203h-31.348c-4.418 0-8 3.582-8 8v19.831c0 4.418 3.582 8 8 8h31.348c4.418 0 8-3.582 8-8v-19.831c0-4.418-3.582-8-8-8zm-8 19.831h-15.348v-3.831h15.348zm235.613-27.068c0 4.418-3.582 8-8 8h-103.2c-4.418 0-8-3.582-8-8s3.582-8 8-8h103.2c4.417 0 8 3.581 8 8zm0-38.769c0 4.418-3.582 8-8 8h-103.2c-4.418 0-8-3.582-8-8s3.582-8 8-8h103.2c4.417 0 8 3.582 8 8zm0 77.537c0 4.418-3.582 8-8 8h-103.2c-4.418 0-8-3.582-8-8s3.582-8 8-8h103.2c4.417 0 8 3.582 8 8z"/></svg>