<svg id="Layer_1" height="512" viewBox="0 0 48 48" width="512" xmlns="http://www.w3.org/2000/svg" data-name="Layer 1"><rect fill="#ffd164" height="38" rx="5" width="42" x="3" y="5"/><rect fill="#fff" height="15" rx="3" width="30" x="9" y="25"/><g fill="#66b3ff"><path d="m22 36a1 1 0 0 1 -1-1v-5a1 1 0 0 1 2 0v5a1 1 0 0 1 -1 1z"/><path d="m30 36a1 1 0 0 1 -1-1v-5a1 1 0 0 1 2 0v5a1 1 0 0 1 -1 1z"/><path d="m14 36a1 1 0 0 1 -1-1v-5a1 1 0 0 1 2 0v5a1 1 0 0 1 -1 1z"/><path d="m18 33a1 1 0 0 1 -1-1v-2a1 1 0 0 1 2 0v2a1 1 0 0 1 -1 1z"/><path d="m26 33a1 1 0 0 1 -1-1v-2a1 1 0 0 1 2 0v2a1 1 0 0 1 -1 1z"/><path d="m18 36a.964.964 0 0 1 -.71-.3.951.951 0 0 1 -.29-.7 1 1 0 0 1 .08-.38 1.032 1.032 0 0 1 .21-.33 1.047 1.047 0 0 1 1.42 0 1.032 1.032 0 0 1 .21.33 1 1 0 0 1 .08.38.951.951 0 0 1 -.29.7.964.964 0 0 1 -.71.3z"/><path d="m26 36a.852.852 0 0 1 -.38-.08 1 1 0 0 1 -.33-.22.951.951 0 0 1 -.29-.7 1 1 0 0 1 .08-.38 1.032 1.032 0 0 1 .21-.33 1.047 1.047 0 0 1 1.42 0 1.032 1.032 0 0 1 .21.33 1 1 0 0 1 .08.38.951.951 0 0 1 -.29.7 1 1 0 0 1 -.33.22.852.852 0 0 1 -.38.08z"/><path d="m34 33a1 1 0 0 1 -1-1v-2a1 1 0 0 1 2 0v2a1 1 0 0 1 -1 1z"/><path d="m34 36a.852.852 0 0 1 -.38-.08 1 1 0 0 1 -.33-.22.951.951 0 0 1 -.29-.7 1 1 0 0 1 .08-.38 1.032 1.032 0 0 1 .21-.33 1.047 1.047 0 0 1 1.42 0 1.032 1.032 0 0 1 .21.33 1 1 0 0 1 .08.38.951.951 0 0 1 -.29.7.964.964 0 0 1 -.71.3z"/></g><path d="m34 5v12.54a1.969 1.969 0 0 1 -1.31 1.81 2.5 2.5 0 0 1 -2.72-.51l-.14-.14c-.67-.7-1.09-1.1-1.73-1.1-.75 0-1.22.43-1.89 1.13a3.144 3.144 0 0 1 -2.21 1.27 3.776 3.776 0 0 1 -2.34-1.2 3.735 3.735 0 0 0 -2.29-1.2c-.45 0-.73.17-1.21.77a2.491 2.491 0 0 1 -2.75.71 1.978 1.978 0 0 1 -1.41-1.85v-12.23z" fill="#fff2b4"/></svg>