<svg id="Layer_1" enable-background="new 0 0 512 512" viewBox="0 0 512 512" xmlns="http://www.w3.org/2000/svg"><path d="m511.5 215.375c0-9.78-7.958-17.738-17.738-17.738h-54.155c.26-1.205.404-2.452.404-3.734v-117.374c0-9.765-7.958-17.71-17.738-17.71h-123.145c-9.765 0-17.71 7.945-17.71 17.71v117.375c0 9.765 7.945 17.71 17.71 17.71h37.681c3.859 0 6.988-3.128 6.988-6.988s-3.129-6.988-6.988-6.988h-37.681c-2.024 0-3.734-1.709-3.734-3.734v-117.375c0-2.024 1.709-3.734 3.734-3.734h25.602v64.33c0 7.8 6.346 14.146 14.145 14.146h43.68c7.799 0 14.145-6.346 14.145-14.146v-64.33h25.574c2.075 0 3.762 1.674 3.762 3.734v117.375c0 2.024-1.722 3.734-3.762 3.734h-45.236-6.393c-9.78 0-17.738 7.958-17.738 17.738v117.346c0 1.489.205 2.927.552 4.309-1.375-.344-2.805-.546-4.285-.546h-123.147c-9.766 0-17.711 7.945-17.711 17.71v117.375c0 9.765 7.945 17.71 17.711 17.71h123.145c4.034 0 7.746-1.371 10.728-3.652 2.986 2.281 6.703 3.652 10.744 3.652h123.118c9.78 0 17.738-7.945 17.738-17.71v-117.376c0-4.034-1.374-7.746-3.658-10.728 2.284-2.986 3.658-6.704 3.658-10.745zm-128.777-78.249c0 .073-.095.17-.169.17h-43.68c-.073 0-.169-.096-.169-.17v-64.33h44.017v64.33zm71.489 74.487v64.359c0 .055-.077.14-.17.14h-43.679c-.093 0-.17-.086-.17-.14v-64.359h12.079zm-87.33 3.762c0-2.04 1.722-3.762 3.762-3.762h6.393 19.18v64.359c0 7.783 6.346 14.116 14.146 14.116h43.679c7.8 0 14.146-6.333 14.146-14.116v-64.359h25.574c2.04 0 3.762 1.722 3.762 3.762v117.346c0 2.04-1.722 3.763-3.762 3.763h-123.118c-2.04 0-3.762-1.723-3.762-3.763zm43.312 135.085h44.018v64.359c0 .032-.082.141-.17.141h-43.679c-.088 0-.17-.109-.17-.141v-64.359zm-144.59 0h43.99v64.359c0 .055-.077.141-.141.141h-43.707c-.064 0-.141-.087-.141-.141v-64.359zm83.568 124.842h-123.145c-2.059 0-3.735-1.674-3.735-3.734v-117.374c0-2.024 1.71-3.734 3.735-3.734h25.601v64.359c0 7.784 6.333 14.117 14.117 14.117h43.707c7.784 0 14.117-6.333 14.117-14.117v-64.359h25.602c2.024 0 3.734 1.709 3.734 3.734v117.375c.001 2.059-1.673 3.733-3.733 3.733zm148.352-3.733c0 2.059-1.687 3.734-3.762 3.734h-123.118c-2.075 0-3.762-1.674-3.762-3.734v-117.375c0-2.024 1.722-3.734 3.762-3.734h25.574v64.359c0 7.784 6.346 14.117 14.146 14.117h43.679c7.8 0 14.146-6.333 14.146-14.117v-64.359h25.574c2.04 0 3.762 1.709 3.762 3.734v117.375zm-247.026-166.005h62.803c17.081 0 30.978-13.91 30.978-31.006 0-17.081-13.897-30.977-30.978-30.977h-43.578l-48.023-83.151c-7.294-12.671-19.865-19.939-34.487-19.939h-24.518c15.424-12.065 25.367-30.829 25.367-51.883 0-36.33-29.544-65.887-65.859-65.887-36.33 0-65.887 29.557-65.887 65.887 0 21.055 9.947 39.819 25.377 51.883h-31.516c-27.391 0-49.677 22.273-49.677 49.649v88.972c0 17.985 14.646 32.618 32.647 32.618 6.937 0 13.377-2.174 18.671-5.875v56.4 87.529c0 21.324 17.349 38.673 38.673 38.673 13.103 0 24.705-6.541 31.71-16.527 7.001 9.986 18.595 16.527 31.688 16.527 21.324 0 38.673-17.349 38.673-38.673v-209.98l29.523 49.58c6.103 10.283 16.46 16.18 28.413 16.18zm-180.206-216.956c0-28.624 23.286-51.911 51.911-51.911 28.609 0 51.883 23.286 51.883 51.911 0 28.609-23.275 51.883-51.883 51.883-28.625.001-51.911-23.274-51.911-51.883zm121.284 122.23c-1.609-2.702-4.824-3.996-7.857-3.163-3.033.835-5.134 3.592-5.134 6.737v235.372c0 13.618-11.078 24.697-24.697 24.697s-24.697-11.078-24.697-24.697v-79.494c0-3.859-3.129-6.988-6.988-6.988s-6.988 3.129-6.988 6.988v79.494c0 13.618-11.091 24.697-24.725 24.697-13.618 0-24.697-11.078-24.697-24.697v-87.529-83.143-64.7c0-3.859-3.129-6.988-6.988-6.988s-6.988 3.128-6.988 6.988v64.7c0 10.279-8.376 18.642-18.671 18.642s-18.671-8.363-18.671-18.642v-88.972c0-19.671 16.015-35.673 35.701-35.673h137.036c9.627 0 17.573 4.593 22.38 12.944l50.044 86.652c1.249 2.161 3.555 3.493 6.051 3.493h47.612c9.375 0 17.002 7.626 17.002 17.001 0 9.39-7.627 17.03-17.002 17.03h-62.803c-6.999 0-12.822-3.317-16.403-9.346z"/></svg>