<svg id="Layer_1" height="512" viewBox="0 0 512 512" width="512" xmlns="http://www.w3.org/2000/svg" data-name="Layer 1"><path d="m464.118 30.11h-332.472a47.936 47.936 0 0 0 -47.882 47.883v308.132h-77.764a6 6 0 0 0 -6 6v41.882a47.936 47.936 0 0 0 47.882 47.883h332.472a47.936 47.936 0 0 0 47.882-47.883v-90.888a84.115 84.115 0 0 0 9.479-7.112l7.9 7.895-7.027 7.027a6 6 0 0 0 0 8.486l35.669 35.669a21.939 21.939 0 0 0 31.026-31.026l-35.67-35.669a6 6 0 0 0 -8.485 0l-7.028 7.027-7.9-7.895a83.46 83.46 0 0 0 -17.964-124.982v-76.664h77.764a6 6 0 0 0 6-6v-41.882a47.936 47.936 0 0 0 -47.882-47.883zm1.248 311.007 31.427 31.426a9.939 9.939 0 0 1 -14.055 14.057l-31.427-31.427zm-417.484 128.773a35.923 35.923 0 0 1 -35.882-35.883v-35.882h71.764v35.882a35.923 35.923 0 0 1 -35.882 35.883zm406.764-197.061a71.623 71.623 0 1 1 -71.623-71.623 71.7 71.7 0 0 1 71.623 71.623zm-255.128-47.848h-38.625v-45.249h38.625zm50.625 0h-38.625v-79.265h38.625zm101.25-29.544a84.08 84.08 0 0 0 -36.893 29.544h-1.734v-147.295h38.625zm-50.625 29.544h-38.625v-113.281h38.625zm115.468-146.988v118.107a83.331 83.331 0 0 0 -52.843-4.546v-119.868a6 6 0 0 0 -6-6h-50.625a6 6 0 0 0 -6 6v28.014h-44.625a6 6 0 0 0 -6 6v28.015h-44.625a6 6 0 0 0 -6 6v28.016h-44.625a6 6 0 0 0 -6 6v51.249h-16.5a6 6 0 0 0 0 12h175.1a83.592 83.592 0 0 0 108.743 112.576v84.451a35.923 35.923 0 0 1 -35.882 35.883h-300.801a47.786 47.786 0 0 0 16.211-35.883v-356.014a35.923 35.923 0 0 1 35.882-35.883h300.8a47.786 47.786 0 0 0 -16.21 35.883zm83.764 35.882h-71.764v-35.882a35.882 35.882 0 1 1 71.764 0zm-149.3 188.147 55.464-66.1a6 6 0 1 1 9.192 7.714l-55.464 66.1a6 6 0 0 1 -9.192-7.714zm35.051-7.676a18.795 18.795 0 1 0 18.8-18.794 18.816 18.816 0 0 0 -18.805 18.794zm25.589 0a6.795 6.795 0 1 1 -6.794-6.794 6.8 6.8 0 0 1 6.789 6.794zm-31.04-43.033a18.795 18.795 0 1 0 -18.8 18.794 18.816 18.816 0 0 0 18.8-18.794zm-25.589 0a6.795 6.795 0 1 1 6.794 6.794 6.8 6.8 0 0 1 -6.793-6.794zm-174.747 66.741a6 6 0 0 0 -12 0 19.952 19.952 0 0 0 13.921 18.993v1.847a6 6 0 0 0 12 0v-1.847a19.917 19.917 0 0 0 0-37.986v-14a7.883 7.883 0 0 1 1.92 5.156 6 6 0 0 0 12 0 19.953 19.953 0 0 0 -13.92-18.993v-1.846a6 6 0 0 0 -12 0v1.846a19.917 19.917 0 0 0 0 37.986v14a7.879 7.879 0 0 1 -1.921-5.156zm15.841 0a7.883 7.883 0 0 1 -1.92 5.156v-10.31a7.883 7.883 0 0 1 1.92 5.154zm-15.841-27.841a7.879 7.879 0 0 1 1.921-5.156v10.312a7.879 7.879 0 0 1 -1.921-5.156zm7.921 75.412a61.492 61.492 0 1 0 -61.493-61.492 61.561 61.561 0 0 0 61.493 61.492zm0-110.984a49.492 49.492 0 1 1 -49.493 49.492 49.548 49.548 0 0 1 49.493-49.492zm197.866 151.931a6 6 0 0 1 -6 6h-247.216a6 6 0 1 1 0-12h247.216a6 6 0 0 1 6 6zm0 33.741a6 6 0 0 1 -6 6h-247.216a6 6 0 1 1 0-12h247.216a6 6 0 0 1 6 6zm-253.216-73.482h247.216a6 6 0 0 1 0 12h-247.216a6 6 0 1 1 0-12z"/></svg>