<svg clip-rule="evenodd" fill-rule="evenodd" height="512" image-rendering="optimizeQuality" shape-rendering="geometricPrecision" text-rendering="geometricPrecision" viewBox="0 0 512 512" width="512" xmlns="http://www.w3.org/2000/svg"><g id="Layer_x0020_1"><g id="_349374168"><g><g id="_349374144"><path d="m81 502h-38c-8 0-15-6-15-14v-147c0-8 7-14 15-14h38c8 0 14 6 14 14v147c0 8-6 14-14 14zm-38-161c-1 0-1 0-1 0v147h1 38v-147z"/></g><g id="_349374096"><path d="m185 502h-38c-8 0-14-6-14-14v-256c0-8 6-15 14-15h38c8 0 14 7 14 15v256c0 8-6 14-14 14zm-38-271v1 256h38v-256-1z"/></g><g id="_349368264"><path d="m289 502h-38c-8 0-14-6-14-14v-184c0-8 6-14 14-14h38c8 0 14 6 14 14v184c0 8-6 14-14 14zm-38-198v184h38v-184z"/></g><g id="_349375392"><path d="m393 502h-38c-7 0-14-6-14-14v-289c0-8 7-14 14-14h38c8 0 15 6 15 14v289c0 8-7 14-15 14zm-38-303v289h38 1v-289s0 0-1 0z"/></g><g id="_349374912"><path d="m498 502h-38c-8 0-15-6-15-14v-150c0-8 7-14 15-14h38c8 0 14 6 14 14v150c0 8-6 14-14 14zm-38-164c-1 0-1 0-1 0v150h1 38v-150z"/></g><g id="_349375080"><path d="m7 300c-2 0-3-1-5-2-3-2-3-7 0-10l157-177c1-1 3-2 5-2s4 1 5 2l102 96 195-195c3-3 7-3 10 0 3 2 3 7 0 10l-200 200c-3 3-7 3-10 0l-101-96-153 172c-1 1-3 2-5 2z"/></g><g id="_349373832"><path d="m463 81s0 0-1 0c-3-1-6-4-6-8l7-48-48 6c-4 0-8-2-8-6-1-4 2-8 6-8l57-7c2-1 5 0 6 2 2 1 2 3 2 6l-8 57c0 3-3 6-7 6z"/></g></g></g></g></svg>