<svg id="Layer_1" enable-background="new 0 0 512 512" viewBox="0 0 512 512" xmlns="http://www.w3.org/2000/svg"><path d="m256 84.72c-9.56 0-18.54 3.72-25.29 10.48-6.76 6.76-10.48 15.74-10.48 25.29s3.72 18.54 10.48 25.29c6.97 6.97 16.13 10.46 25.29 10.46s18.32-3.49 25.29-10.46c13.95-13.95 13.95-36.64 0-50.59-6.75-6.75-15.73-10.47-25.29-10.47zm16.81 52.58c-4.49 4.49-10.46 6.96-16.81 6.96s-12.32-2.47-16.81-6.96-6.96-10.46-6.96-16.81 2.47-12.32 6.96-16.81 10.46-6.96 16.81-6.96 12.32 2.47 16.81 6.96c9.27 9.27 9.27 24.35 0 33.62zm47.68-16.81c0-17.23-6.71-33.42-18.89-45.6s-28.37-18.89-45.6-18.89-33.42 6.71-45.6 18.89c-25.14 25.15-25.14 66.06 0 91.2 12.57 12.57 29.09 18.86 45.6 18.86s33.03-6.29 45.6-18.86c12.18-12.18 18.89-28.37 18.89-45.6zm-101.61 37.12c-20.47-20.47-20.47-53.77 0-74.23 9.92-9.92 23.1-15.38 37.12-15.38s27.2 5.46 37.12 15.38c9.91 9.91 15.37 23.1 15.37 37.12s-5.46 27.2-15.37 37.12c-20.47 20.45-53.77 20.45-74.24-.01zm53.2 265.49h-32.16c-26.64 0-48.31 21.67-48.31 48.31v19.59c0 3.31 2.69 6 6 6h116.78c3.31 0 6-2.69 6-6v-19.58c0-26.64-21.67-48.32-48.31-48.32zm36.31 61.9h-104.78v-13.58c0-20.02 16.29-36.31 36.31-36.31h32.16c20.02 0 36.31 16.29 36.31 36.31zm122.84-61.9h-32.16c-26.64 0-48.31 21.67-48.31 48.31v19.59c0 3.31 2.69 6 6 6h116.78c3.31 0 6-2.69 6-6v-19.58c0-26.64-21.67-48.32-48.31-48.32zm36.31 61.9h-104.78v-13.58c0-20.02 16.29-36.31 36.31-36.31h32.16c20.02 0 36.31 16.29 36.31 36.31zm-370.69-71.69c19.96 0 36.19-16.24 36.19-36.19 0-17.91-13.08-32.82-30.19-35.69v-47.64h147.15v47.64c-17.11 2.87-30.19 17.77-30.19 35.69 0 19.96 16.24 36.19 36.19 36.19s36.19-16.24 36.19-36.19c0-17.91-13.08-32.82-30.19-35.69v-47.64h147.15v47.64c-17.11 2.87-30.19 17.77-30.19 35.69 0 19.96 16.24 36.19 36.19 36.19s36.19-16.24 36.19-36.19c0-17.91-13.08-32.82-30.19-35.69v-53.64c0-3.31-2.69-6-6-6h-153.15v-55.81h10.59c4.15 0 7.49-3.25 7.62-7.39l.46-14.96c5.78-1.71 11.36-4.02 16.66-6.9l10.91 10.25c3.02 2.84 7.68 2.76 10.61-.17l23.47-23.47c2.93-2.93 3-7.6.16-10.61l-10.25-10.91c2.87-5.29 5.18-10.88 6.9-16.66l14.96-.46c4.14-.13 7.39-3.48 7.39-7.62v-33.18c0-4.15-3.24-7.5-7.39-7.62l-14.96-.46c-1.71-5.78-4.02-11.36-6.9-16.66l10.25-10.9c2.84-3.02 2.77-7.68-.16-10.62l-23.47-23.47c-2.93-2.93-7.59-3-10.61-.16l-10.9 10.25c-5.3-2.88-10.89-5.19-16.68-6.9l-.45-14.95c-.12-4.15-3.47-7.4-7.62-7.4h-33.18c-4.15 0-7.5 3.25-7.62 7.4l-.45 14.95c-5.79 1.71-11.39 4.03-16.69 6.91l-10.88-10.25c-3.02-2.85-7.69-2.78-10.62.16l-23.46 23.46c-2.93 2.93-3 7.6-.16 10.62l10.25 10.88c-2.88 5.3-5.2 10.9-6.91 16.69l-14.95.45c-4.15.12-7.4 3.47-7.4 7.62v33.19c0 4.15 3.25 7.49 7.4 7.62l14.95.45c1.71 5.79 4.03 11.39 6.91 16.69l-10.25 10.89c-2.84 3.02-2.77 7.68.16 10.62l23.46 23.46c2.93 2.93 7.6 3 10.62.16l10.88-10.25c5.3 2.88 10.89 5.19 16.68 6.91l.46 14.96c.13 4.15 3.47 7.39 7.62 7.39h10.59v55.81h-153.15c-3.31 0-6 2.69-6 6v53.64c-17.11 2.87-30.19 17.77-30.19 35.69 0 19.94 16.23 36.18 36.19 36.18zm183.34-36.19c0 13.34-10.85 24.19-24.19 24.19s-24.19-10.85-24.19-24.19 10.85-24.19 24.19-24.19 24.19 10.85 24.19 24.19zm159.15 0c0 13.34-10.85 24.19-24.19 24.19s-24.19-10.85-24.19-24.19 10.85-24.19 24.19-24.19 24.19 10.85 24.19 24.19zm-196.13-177.09c-.11-3.43-2.41-6.3-5.74-7.15-6.9-1.76-13.48-4.49-19.59-8.11-2.95-1.75-6.62-1.35-9.12 1l-10.14 9.55-17.46-17.46 9.56-10.15c2.35-2.5 2.76-6.17 1-9.12-3.63-6.11-6.36-12.71-8.12-19.61-.85-3.33-3.73-5.64-7.16-5.74l-13.94-.42v-24.69l13.94-.42c3.43-.1 6.31-2.41 7.16-5.74 1.76-6.9 4.49-13.5 8.11-19.6 1.76-2.96 1.35-6.62-1-9.12l-9.55-10.15 17.46-17.46 10.14 9.55c2.5 2.36 6.17 2.76 9.12 1.01 6.11-3.63 12.71-6.36 19.61-8.12 3.33-.85 5.64-3.72 5.74-7.16l.42-13.92h24.69l.42 13.93c.1 3.44 2.41 6.32 5.74 7.17 6.89 1.76 13.48 4.48 19.59 8.1 2.95 1.75 6.61 1.35 9.12-1l10.16-9.55 17.47 17.47-9.55 10.17c-2.35 2.5-2.75 6.16-1 9.11 3.62 6.1 6.35 12.69 8.1 19.57.85 3.33 3.72 5.63 7.15 5.74l13.95.43v24.71l-13.95.43c-3.43.11-6.3 2.41-7.15 5.74-1.76 6.89-4.48 13.47-8.1 19.57-1.75 2.95-1.35 6.61 1 9.12l9.55 10.17-17.47 17.47-10.17-9.55c-2.5-2.35-6.16-2.75-9.11-1-6.1 3.62-12.69 6.35-19.57 8.1-3.32.85-5.63 3.72-5.74 7.15l-.43 13.95h-24.71zm-146.36 152.89c13.34 0 24.19 10.85 24.19 24.19s-10.85 24.19-24.19 24.19-24.19-10.85-24.19-24.19c0-13.33 10.85-24.19 24.19-24.19zm16.08 70.18h-32.16c-26.64 0-48.31 21.67-48.31 48.31v19.59c0 3.31 2.69 6 6 6h116.78c3.31 0 6-2.69 6-6v-19.58c0-26.64-21.67-48.32-48.31-48.32zm36.31 61.9h-104.78v-13.58c0-20.02 16.29-36.31 36.31-36.31h32.16c20.02 0 36.31 16.29 36.31 36.31z"/></svg>