<svg id="Capa_1" enable-background="new 0 0 512 512" height="512" viewBox="0 0 512 512" width="512" xmlns="http://www.w3.org/2000/svg"><g><path d="m213.574 226.142c-7.811 7.81-7.812 20.474-.001 28.284 11.332 11.333 26.4 17.574 42.427 17.574s31.095-6.241 42.427-17.574c7.811-7.811 7.81-20.474-.001-28.284-7.811-7.811-20.474-7.81-28.284.001-3.778 3.777-8.799 5.857-14.142 5.857s-10.364-2.08-14.142-5.857c-7.809-7.811-20.472-7.811-28.284-.001z"/><path d="m412 352h-156-156c-55.141 0-100 44.86-100 100 0 33.084 26.916 60 60 60h392c33.084 0 60-26.916 60-60 0-55.14-44.859-100-100-100zm40 120h-392c-11.028 0-20-8.972-20-20 0-33.084 26.916-60 60-60h312c33.084 0 60 26.916 60 60 0 11.028-8.972 20-20 20z"/><path d="m396 212c0-11.046-8.954-20-20-20s-20 8.954-20 20c0 55.14-44.859 100-100 100s-100-44.86-100-100v-16.703c0-11.046-8.954-20-20-20s-20 8.954-20 20v16.703c0 77.196 62.804 140 140 140s140-62.804 140-140z"/><path d="m376 160c11.046 0 20-8.954 20-20 0-55.14-44.859-100-100-100h-160c-11.028 0-20-8.972-20-20 0-11.046-8.954-20-20-20s-20 8.954-20 20v80c0 33.084 26.916 60 60 60zm-260-60v-23.427c6.258 2.219 12.991 3.427 20 3.427h160c26.075 0 48.318 16.719 56.573 40h-216.573c-11.028 0-20-8.972-20-20z"/></g></svg>