<?xml version="1.0" encoding="iso-8859-1"?>

<svg version="1.1" id="Capa_1" xmlns="http://www.w3.org/2000/svg" xmlns:xlink="http://www.w3.org/1999/xlink" x="0px" y="0px"
	 viewBox="0 0 496.941 496.941" style="enable-background:new 0 0 496.941 496.941;" xml:space="preserve">
<g>
	<g>
		<g>
			<path d="M291.388,481.882H27.106c-6.776,0-12.047-5.271-12.047-12.047V97.129c0-6.776,5.271-12.047,12.047-12.047h57.976v21.835
				c0,4.518,3.012,7.529,7.529,7.529h180.706c4.518,0,7.529-3.012,7.529-7.529V85.082h57.977c6.776,0,12.047,5.271,12.047,12.047
				v186.729c0,4.518,3.012,7.529,7.529,7.529s7.529-3.012,7.529-7.529V97.129c0-15.059-12.047-27.106-27.106-27.106h-57.977V51.953
				c0-4.518-3.012-7.529-7.529-7.529h-24.847V38.4c0-21.082-17.318-38.4-38.4-38.4h-54.212c-21.082,0-38.4,17.318-38.4,38.4v5.271
				H92.612c-4.518,0-7.529,3.012-7.529,7.529v18.071H27.106C12.047,69.271,0,81.318,0,96.376v372.706
				c0,15.059,12.047,27.106,27.106,27.106h264.282c4.518,0,7.529-3.012,7.529-7.529S295.153,481.882,291.388,481.882z M132.518,38.4
				c0-12.8,10.541-23.341,23.341-23.341h54.212c12.8,0,23.341,10.541,23.341,23.341v5.271H132.518V38.4z M100.141,59.482
				c132.077,0,144.086,0,144.941,0c0.044,0,0.059,0,0.059,0c0.406,0,3.344,0,20.647,0c0,15.812,0,25.6,0,40.659H100.141
				C100.141,85.835,100.141,75.294,100.141,59.482z"/>
			<path d="M320,167.906l-45.176,37.647l-13.553-20.329c-2.259-3.765-6.776-4.518-10.541-2.259
				c-3.765,2.259-4.518,6.776-2.259,10.541l18.071,27.106c1.506,1.506,3.012,3.012,5.271,3.012h0.753
				c1.506,0,3.765-0.753,4.518-1.506l51.2-42.918c4.518-2.259,5.271-7.529,2.259-10.541
				C327.529,165.647,323.012,164.894,320,167.906z"/>
			<path d="M296.659,427.671H54.965c-4.518,0-7.529,3.012-7.529,7.529s3.012,7.529,7.529,7.529h241.694
				c4.518,0,7.529-3.012,7.529-7.529S300.424,427.671,296.659,427.671z"/>
			<path d="M296.659,366.682H54.965c-4.518,0-7.529,3.012-7.529,7.529c0,4.518,3.012,7.529,7.529,7.529h241.694
				c4.518,0,7.529-3.012,7.529-7.529C304.188,369.694,300.424,366.682,296.659,366.682z"/>
			<path d="M296.659,304.188H54.965c-4.518,0-7.529,3.012-7.529,7.529s3.012,7.529,7.529,7.529h241.694
				c4.518,0,7.529-3.012,7.529-7.529S300.424,304.188,296.659,304.188z"/>
			<path d="M324.518,241.694v-33.882c0-4.518-3.012-7.529-7.529-7.529s-7.529,3.012-7.529,7.529v26.353h-71.529v-72.282h79.059
				c4.518,0,7.529-3.012,7.529-7.529c0-4.518-3.012-7.529-7.529-7.529H230.4c-4.518,0-7.529,3.012-7.529,7.529v87.341
				c0,4.518,3.012,7.529,7.529,7.529h86.588C321.506,249.224,324.518,246.212,324.518,241.694z"/>
			<path d="M406.588,399.812c29.365,0,53.459-24.094,53.459-53.459c0-29.365-24.094-53.459-53.459-53.459
				c-29.365,0.753-52.706,24.094-52.706,53.459C353.882,375.718,377.224,399.812,406.588,399.812z M406.588,308.706
				c21.082,0,38.4,17.318,38.4,38.4c0,21.082-17.318,38.4-38.4,38.4c-21.082,0-37.647-18.071-37.647-39.153
				C368.941,325.271,385.506,308.706,406.588,308.706z"/>
			<path d="M440.471,401.318h-66.259c-31.624,0-56.471,25.6-56.471,56.471v31.624c0,4.518,3.012,7.529,7.529,7.529h164.141
				c4.518,0,7.529-3.012,7.529-7.529v-31.624C496.941,426.165,471.341,401.318,440.471,401.318z M332.047,481.882v-24.094
				c0-23.341,18.823-41.412,41.412-41.412h66.259c23.341,0,41.412,18.824,41.412,41.412v24.094H332.047z"/>
			<path d="M110.682,136.282c-35.388,0-64.753,29.365-64.753,64.753s29.365,64.753,64.753,64.753
				c12.047,0,23.341-3.012,33.129-9.035c18.824-11.294,30.871-31.624,30.871-54.965c0-30.118-20.329-55.718-47.435-63.247
				C121.976,137.035,115.953,136.282,110.682,136.282z M109.929,151.341c1.506,0,3.765,0,5.271,0l-11.294,41.412H60.988
				C64.753,170.165,85.082,151.341,109.929,151.341z M109.929,250.729c-24.847,0-45.176-18.071-48.941-42.165h44.424l23.341,38.4
				C122.729,249.224,116.706,250.729,109.929,250.729z M159.624,201.035c0,15.059-6.776,29.365-18.071,38.4l-23.341-39.153
				l12.047-44.424C147.576,163.388,159.624,180.706,159.624,201.035z"/>
		</g>
	</g>
</g>
<g>
</g>
<g>
</g>
<g>
</g>
<g>
</g>
<g>
</g>
<g>
</g>
<g>
</g>
<g>
</g>
<g>
</g>
<g>
</g>
<g>
</g>
<g>
</g>
<g>
</g>
<g>
</g>
<g>
</g>
</svg>
