<?xml version="1.0"?>
<svg xmlns="http://www.w3.org/2000/svg" viewBox="0 0 32 32" width="512" height="512"><g id="Eye_Wallet_Icon" data-name="Eye, Wallet Icon"><path d="M27,6H25V5a3,3,0,0,0-3-3H5A3,3,0,0,0,2,5V24a3,3,0,0,0,3,3,1,1,0,0,0,0-2,1,1,0,0,1-1-1V7.82A3,3,0,0,0,5,8H27a1,1,0,0,1,1,1v1H21a3,3,0,0,0,0,6h7v8a1,1,0,0,1-1,1H20a1,1,0,0,0,0,2h7a3,3,0,0,0,3-3V9A3,3,0,0,0,27,6ZM4,5A1,1,0,0,1,5,4H22a1,1,0,0,1,1,1V6H5A1,1,0,0,1,4,5Zm17,9a1,1,0,0,1,0-2h7v2Z"/><path d="M12.5,19C9.09,19,6,22.24,6,23.5S9.09,28,12.5,28,19,24.76,19,23.5,15.91,19,12.5,19Zm0,7a6.25,6.25,0,0,1-4.39-2.5A6.12,6.12,0,0,1,12.5,21a6.12,6.12,0,0,1,4.39,2.5A6.25,6.25,0,0,1,12.5,26Z"/><circle cx="12.5" cy="23.5" r="1.5"/></g></svg>
