<svg id="svg8" height="512" viewBox="0 0 16.933333 16.933333" width="512" xmlns="http://www.w3.org/2000/svg" xmlns:svg="http://www.w3.org/2000/svg"><g id="layer2"><path id="path3228" d="m8.4666327.52916899c-.04897.000048-.09722.01345-.1390089.03927l-7.67343385 4.76353271c-.07775.04826-.125048.1332781-.125057.2247932v2.1171828c.00045.2071831.228057.3335031.40411.2242762l.38964005-.2413291-.001 6.6306032c-.43516105 0-.79271705.35137-.79271705.7953v.52865c0 .441362.357556.792716.79271705.792716h14.289567c.43516 0 .792716-.351354.792716-.792716v-.52865c0-.44393-.357556-.7953-.792716-.7953l-.001-6.6306032.38964.2413291c.176053.1092269.403659-.017089.40411-.2242762v-2.1171828c-.000009-.09151-.0473-.1765289-.125057-.2247932l-7.673464-4.76353271c-.04179-.02582-.09004-.03923-.1390103-.03927zm0 .57619191 7.4083343 4.5976519v1.494482l-7.2693242-4.5118689c-.04264-.02653-.09069-.0397-.1390101-.03979-.04833.000094-.09637.01326-.1390089.03979l-7.2693238 4.5118689v-1.494482zm0 2.1171829 6.6145843 4.1062089.001 6.9587493h-1.898591c.02974-.08294.04496-.170889.04496-.26355l.001-2.1177c.000099-.203427-.07432-.388199-.202055-.529167.127617-.141396.200972-.326362.201022-.529683l.000529-2.1171842c.000108-.435161-.352386-.792716-.79375-.792716h-7.9374635c-.4413631 0-.7938571.357555-.7937499.792716l.0005291 2.1171842c.00005.20332.0734.388287.2010209.529683-.127735.140968-.2021538.32574-.2020549.529167l.00101 2.1177c0 .09266.015221.18061.04496.26355h-1.8986318l.001-6.9587493zm-1.3223999 1.5389241c-.1471311-.0005556-.2664629.1190051-.265616.266134v2.1171829c.0005821.1461201.119497.264106.265616.2635501h2.6448003c.14612.0005556.2650329-.11743.2656169-.2635501v-2.1171829c.000846-.1471289-.1184859-.266696-.2656169-.266134h-1.3224004zm.2635502.5296839h.7952999v.5291661h-.7952999zm1.3224 0h.7953002v.5291661h-.7953002zm-1.3224 1.0583331h.7952999v.5291669h-.7952999zm1.3224 0h.7953002v.5291669h-.7953002zm-4.2323002 2.1171831h1.3223999v2.645834c-.4407998-.000056-.8815998.000057-1.3223999 0-.1459881 0-.2635491-.114979-.2635491-.266134l-.0005291-2.1161502c.0000002-.1511549.1232582-.2635498.2640782-.2635498zm1.8515671 0h6.0859331c.14082 0 .264104.1123949.264067.2635498l-.000529 2.1161502c.000037.151155-.11755.266134-.263538.266134-2.028645.000582-4.0572894.000239-6.0859333 0zm-1.3224002 1.0583338c-.1461248 0-.2645828.1184579-.2645828.2645831 0 .1461248.118458.2645831.2645828.2645831.1461252 0 .2645831-.1184583.2645831-.2645831 0-.1461252-.1184579-.2645831-.2645831-.2645831zm2.1166672.0005292c-.352865 0-.352865.529167 0 .529167h4.7625001c.352865 0 .352865-.529167 0-.529167zm-2.6458341 2.117183h1.3223999v2.644788h-1.3223999c-.142385 0-.2635491-.112396-.2635491-.26355l-.00101-2.1177c-.0000719-.148232.113429-.26355.2645832-.26355zm1.8515671 0h6.0859331c.151155 0 .264656.115318.264584.26355l-.001 2.1177c-.000004.151142-.121167.263538-.263552.263538h-6.0859331zm-1.3224002 1.057288c-.1461248 0-.2645828.118457-.2645828.264583 0 .146125.118458.264583.2645828.264583.1461252 0 .2645831-.118458.2645831-.264583 0-.146126-.1184579-.264583-.2645831-.264583zm2.1166672 0c-.352865 0-.352865.529166 0 .529166h4.7625001c.352865 0 .352865-.529166 0-.529166zm-5.8218669 2.116666c4.7631888-.000767 9.526378-.000344 14.289567 0 .151157 0 .26355.120825.26355.266134v.52865c0 .138754-.112393.26355-.26355.26355h-14.2895671c-.151157 0-.2635499-.124795-.2635499-.26355v-.52865c0-.145308.1123929-.266134.26355-.266134z" font-variant-ligatures="normal" font-variant-position="normal" font-variant-caps="normal" font-variant-numeric="normal" font-variant-alternates="normal" font-feature-settings="normal" text-indent="0" text-align="start" text-decoration-line="none" text-decoration-style="solid" text-decoration-color="rgb(0,0,0)" text-transform="none" text-orientation="mixed" white-space="normal" shape-padding="0" isolation="auto" mix-blend-mode="normal" solid-color="rgb(0,0,0)" solid-opacity="1" vector-effect="none"/></g></svg>