<?xml version="1.0" encoding="iso-8859-1"?>

<svg version="1.1" id="Capa_1" xmlns="http://www.w3.org/2000/svg" xmlns:xlink="http://www.w3.org/1999/xlink" x="0px" y="0px"
	 viewBox="0 0 480 480" style="enable-background:new 0 0 480 480;" xml:space="preserve">
<g>
	<g>
		<path d="M448,176.808V152c0-0.056-0.032-0.096-0.032-0.152c-0.016-0.92-0.208-1.824-0.544-2.696
			c-0.088-0.232-0.208-0.44-0.32-0.656c-0.152-0.312-0.256-0.632-0.448-0.928l-96-144C349.168,1.336,346.672,0,344,0H104
			c-2.592,0-4.944,1.304-6.44,3.376c-0.056,0.08-0.168,0.104-0.216,0.192l-96,144c-0.192,0.288-0.296,0.616-0.448,0.928
			c-0.112,0.224-0.232,0.424-0.32,0.656c-0.336,0.872-0.528,1.776-0.544,2.704C0.032,151.904,0,151.944,0,152v192
			c0,22.056,17.944,40,40,40h24h80h56h24v56c0,22.056,17.944,40,40,40h144c19.568,0,35.832-14.144,39.264-32.736
			C465.856,443.832,480,427.568,480,408V216C480,196.688,466.232,180.528,448,176.808z M104,22.424L185.056,144H22.944L104,22.424z
			 M136,368H72V264h64V368z M192,368h-40V256c0-4.424-3.576-8-8-8H64c-4.424,0-8,3.576-8,8v112H40c-13.232,0-24-10.768-24-24V160
			h176V368z M118.944,16h220.768l85.344,128H204.28L118.944,16z M224,248v120h-16V160h224v16H296
			c-19.568,0-35.832,14.144-39.264,32.736C238.144,212.168,224,228.432,224,248z M432,440c0,13.232-10.768,24-24,24H264
			c-13.232,0-24-10.768-24-24V248c0-13.232,10.768-24,24-24h112v48c0,4.424,3.576,8,8,8h48V440z M392,264v-28.688L420.688,264H392z
			 M464,408c0,10.416-6.712,19.216-16,22.528V272c0-2.216-0.904-4.216-2.352-5.664l-55.976-55.976
			c-1.456-1.456-3.456-2.36-5.672-2.36H273.472c3.312-9.288,12.112-16,22.528-16h144c13.232,0,24,10.768,24,24V408z"/>
	</g>
</g>
<g>
	<g>
		<rect x="96" y="400" width="16" height="16"/>
	</g>
</g>
<g>
	<g>
		<rect x="96" y="432" width="16" height="16"/>
	</g>
</g>
<g>
	<g>
		<rect x="128" y="432" width="16" height="16"/>
	</g>
</g>
<g>
	<g>
		<rect x="160" y="432" width="16" height="16"/>
	</g>
</g>
<g>
	<g>
		<rect x="192" y="432" width="16" height="16"/>
	</g>
</g>
<g>
	<g>
		<rect x="264" y="248" width="88" height="16"/>
	</g>
</g>
<g>
	<g>
		<rect x="264" y="280" width="88" height="16"/>
	</g>
</g>
<g>
	<g>
		<rect x="360" y="312" width="48" height="16"/>
	</g>
</g>
<g>
	<g>
		<rect x="360" y="344" width="48" height="16"/>
	</g>
</g>
<g>
	<g>
		<rect x="360" y="392" width="48" height="16"/>
	</g>
</g>
<g>
	<g>
		<rect x="360" y="424" width="48" height="16"/>
	</g>
</g>
<g>
	<g>
		<path d="M330.344,314.344L288,356.688l-18.344-18.344l-11.312,11.312l24,24c1.56,1.56,3.608,2.344,5.656,2.344
			c2.048,0,4.096-0.784,5.656-2.344l48-48L330.344,314.344z"/>
	</g>
</g>
<g>
	<g>
		<path d="M330.344,378.344L288,420.688l-18.344-18.344l-11.312,11.312l24,24c1.56,1.56,3.608,2.344,5.656,2.344
			c2.048,0,4.096-0.784,5.656-2.344l48-48L330.344,378.344z"/>
	</g>
</g>
<g>
</g>
<g>
</g>
<g>
</g>
<g>
</g>
<g>
</g>
<g>
</g>
<g>
</g>
<g>
</g>
<g>
</g>
<g>
</g>
<g>
</g>
<g>
</g>
<g>
</g>
<g>
</g>
<g>
</g>
</svg>
